<ttFont>
    <TTGlyph name="A" xMin="-30" yMin="-78" xMax="601" yMax="694">
      <contour>
        <pt x="324" y="299" on="1"/>
        <pt x="373" y="520" on="0"/>
        <pt x="373" y="631" on="1"/>
        <pt x="373" y="657" on="1"/>
        <pt x="373" y="674" on="0"/>
        <pt x="390" y="691" on="0"/>
        <pt x="409" y="694" on="0"/>
        <pt x="466" y="694" on="0"/>
        <pt x="529" y="652" on="0"/>
        <pt x="529" y="616" on="1"/>
        <pt x="529" y="609" on="0"/>
        <pt x="511" y="449" on="0"/>
        <pt x="508" y="324" on="1"/>
        <pt x="542" y="338" on="0"/>
        <pt x="583" y="369" on="0"/>
        <pt x="590" y="369" on="1"/>
        <pt x="601" y="369" on="0"/>
        <pt x="601" y="328" on="0"/>
        <pt x="539" y="265" on="0"/>
        <pt x="508" y="245" on="1"/>
        <pt x="508" y="223" on="0"/>
        <pt x="510" y="175" on="1"/>
        <pt x="513" y="177" on="0"/>
        <pt x="524" y="177" on="0"/>
        <pt x="535" y="171" on="0"/>
        <pt x="544" y="163" on="0"/>
        <pt x="556" y="148" on="0"/>
        <pt x="562" y="140" on="0"/>
        <pt x="572" y="125" on="0"/>
        <pt x="573" y="124" on="1"/>
        <pt x="591" y="97" on="0"/>
        <pt x="591" y="66" on="0"/>
        <pt x="585" y="46" on="1"/>
        <pt x="562" y="-13" on="0"/>
        <pt x="554" y="-57" on="1"/>
        <pt x="550" y="-78" on="0"/>
        <pt x="530" y="-78" on="1"/>
        <pt x="508" y="-78" on="0"/>
        <pt x="491" y="-55" on="0"/>
        <pt x="482" y="-41" on="0"/>
        <pt x="475" y="-15" on="0"/>
        <pt x="471" y="0" on="0"/>
        <pt x="469" y="16" on="1"/>
        <pt x="466" y="37" on="0"/>
        <pt x="465" y="58" on="1"/>
        <pt x="464" y="74" on="1"/>
        <pt x="460" y="122" on="0"/>
        <pt x="454" y="220" on="1"/>
        <pt x="428" y="211" on="0"/>
        <pt x="374" y="209" on="1"/>
        <pt x="358" y="137" on="0"/>
        <pt x="325" y="16" on="0"/>
        <pt x="250" y="-56" on="0"/>
        <pt x="196" y="-56" on="1"/>
        <pt x="180" y="-56" on="0"/>
        <pt x="158" y="-51" on="1"/>
        <pt x="29" y="-16" on="0"/>
        <pt x="-18" y="112" on="1"/>
        <pt x="-30" y="145" on="0"/>
        <pt x="-30" y="170" on="1"/>
        <pt x="-30" y="230" on="0"/>
        <pt x="20" y="252" on="1"/>
        <pt x="128" y="301" on="0"/>
        <pt x="231" y="301" on="1"/>
      </contour>
      <contour>
        <pt x="450" y="309" on="1"/>
        <pt x="446" y="397" on="0"/>
        <pt x="442" y="577" on="1"/>
        <pt x="434" y="531" on="0"/>
        <pt x="401" y="347" on="0"/>
        <pt x="393" y="301" on="1"/>
        <pt x="431" y="305" on="0"/>
      </contour>
      <contour>
        <pt x="301" y="208" on="1"/>
        <pt x="237" y="208" on="1"/>
        <pt x="115" y="208" on="0"/>
        <pt x="42" y="191" on="1"/>
        <pt x="1" y="183" on="0"/>
        <pt x="1" y="161" on="1"/>
        <pt x="1" y="144" on="0"/>
        <pt x="55" y="90" on="0"/>
        <pt x="141" y="61" on="0"/>
        <pt x="199" y="61" on="0"/>
        <pt x="238" y="81" on="0"/>
        <pt x="261" y="103" on="0"/>
        <pt x="272" y="128" on="1"/>
        <pt x="286" y="159" on="0"/>
      </contour>
    </TTGlyph>
    <TTGlyph name="AE" xMin="-30" yMin="-56" xMax="873" yMax="710">
      <contour>
        <pt x="231" y="290" on="1"/>
        <pt x="321" y="288" on="1"/>
        <pt x="324" y="288" on="1"/>
        <pt x="326" y="296" on="0"/>
        <pt x="333" y="342" on="0"/>
        <pt x="335" y="350" on="1"/>
        <pt x="373" y="536" on="0"/>
        <pt x="373" y="631" on="1"/>
        <pt x="373" y="657" on="1"/>
        <pt x="373" y="674" on="0"/>
        <pt x="390" y="691" on="0"/>
        <pt x="409" y="694" on="0"/>
        <pt x="466" y="694" on="0"/>
        <pt x="529" y="652" on="0"/>
        <pt x="529" y="616" on="1"/>
        <pt x="529" y="609" on="0"/>
        <pt x="524" y="570" on="0"/>
        <pt x="520" y="531" on="1"/>
        <pt x="532" y="560" on="0"/>
        <pt x="583" y="604" on="0"/>
        <pt x="642" y="642" on="0"/>
        <pt x="724" y="689" on="0"/>
        <pt x="756" y="710" on="0"/>
        <pt x="792" y="710" on="0"/>
        <pt x="815" y="683" on="1"/>
        <pt x="827" y="685" on="0"/>
        <pt x="832" y="685" on="1"/>
        <pt x="855" y="685" on="0"/>
        <pt x="865" y="665" on="1"/>
        <pt x="873" y="646" on="0"/>
        <pt x="873" y="640" on="1"/>
        <pt x="873" y="604" on="0"/>
        <pt x="720" y="543" on="1"/>
        <pt x="714" y="541" on="0"/>
        <pt x="712" y="541" on="1"/>
        <pt x="706" y="541" on="0"/>
        <pt x="706" y="558" on="0"/>
        <pt x="716" y="588" on="1"/>
        <pt x="683" y="572" on="1"/>
        <pt x="625" y="542" on="0"/>
        <pt x="612" y="528" on="1"/>
        <pt x="588" y="499" on="0"/>
        <pt x="566" y="451" on="0"/>
        <pt x="566" y="443" on="1"/>
        <pt x="566" y="409" on="0"/>
        <pt x="705" y="409" on="1"/>
        <pt x="722" y="409" on="1"/>
        <pt x="749" y="424" on="0"/>
        <pt x="756" y="424" on="1"/>
        <pt x="773" y="424" on="0"/>
        <pt x="824" y="369" on="0"/>
        <pt x="824" y="333" on="1"/>
        <pt x="824" y="321" on="0"/>
        <pt x="811" y="321" on="1"/>
        <pt x="807" y="321" on="0"/>
        <pt x="774" y="327" on="1"/>
        <pt x="764" y="324" on="0"/>
        <pt x="709" y="308" on="0"/>
        <pt x="689" y="302" on="0"/>
        <pt x="643" y="286" on="0"/>
        <pt x="622" y="275" on="0"/>
        <pt x="585" y="255" on="0"/>
        <pt x="574" y="244" on="1"/>
        <pt x="535" y="207" on="0"/>
        <pt x="521" y="186" on="1"/>
        <pt x="495" y="150" on="0"/>
        <pt x="495" y="73" on="0"/>
        <pt x="531" y="34" on="0"/>
        <pt x="614" y="34" on="0"/>
        <pt x="729" y="75" on="0"/>
        <pt x="729" y="114" on="1"/>
        <pt x="729" y="127" on="0"/>
        <pt x="717" y="152" on="0"/>
        <pt x="690" y="152" on="0"/>
        <pt x="553" y="71" on="0"/>
        <pt x="545" y="71" on="0"/>
        <pt x="545" y="84" on="0"/>
        <pt x="552" y="100" on="1"/>
        <pt x="578" y="149" on="0"/>
        <pt x="674" y="207" on="0"/>
        <pt x="777" y="207" on="0"/>
        <pt x="848" y="147" on="0"/>
        <pt x="848" y="70" on="0"/>
        <pt x="828" y="44" on="1"/>
        <pt x="767" y="-36" on="0"/>
        <pt x="596" y="-36" on="1"/>
        <pt x="490" y="-36" on="0"/>
        <pt x="439" y="46" on="1"/>
        <pt x="411" y="89" on="0"/>
        <pt x="411" y="164" on="0"/>
        <pt x="430" y="213" on="1"/>
        <pt x="406" y="209" on="0"/>
        <pt x="374" y="209" on="1"/>
        <pt x="354" y="117" on="0"/>
        <pt x="326" y="17" on="0"/>
        <pt x="251" y="-56" on="0"/>
        <pt x="196" y="-56" on="1"/>
        <pt x="180" y="-56" on="0"/>
        <pt x="158" y="-51" on="1"/>
        <pt x="29" y="-16" on="0"/>
        <pt x="-18" y="112" on="1"/>
        <pt x="-30" y="145" on="0"/>
        <pt x="-30" y="170" on="1"/>
        <pt x="-30" y="230" on="0"/>
        <pt x="20" y="252" on="1"/>
        <pt x="104" y="290" on="0"/>
      </contour>
      <contour>
        <pt x="301" y="208" on="1"/>
        <pt x="237" y="208" on="1"/>
        <pt x="119" y="208" on="0"/>
        <pt x="42" y="190" on="1"/>
        <pt x="1" y="182" on="0"/>
        <pt x="1" y="161" on="1"/>
        <pt x="1" y="144" on="0"/>
        <pt x="55" y="90" on="0"/>
        <pt x="141" y="61" on="0"/>
        <pt x="199" y="61" on="0"/>
        <pt x="238" y="81" on="0"/>
        <pt x="261" y="103" on="0"/>
        <pt x="272" y="128" on="1"/>
        <pt x="286" y="159" on="0"/>
      </contour>
      <contour>
        <pt x="450" y="298" on="1"/>
        <pt x="447" y="375" on="0"/>
        <pt x="442" y="577" on="1"/>
        <pt x="434" y="531" on="0"/>
        <pt x="401" y="336" on="0"/>
        <pt x="393" y="290" on="1"/>
        <pt x="431" y="294" on="0"/>
      </contour>
      <contour>
        <pt x="514" y="460" on="1"/>
        <pt x="506" y="323" on="0"/>
        <pt x="509" y="317" on="1"/>
        <pt x="542" y="341" on="0"/>
        <pt x="609" y="365" on="1"/>
        <pt x="528" y="391" on="0"/>
      </contour>
    </TTGlyph>
    <TTGlyph name="AEacute" xMin="-30" yMin="-56" xMax="873" yMax="941">
      <component glyphName="AE" x="0" y="0" flags="0x1004"/>
      <component glyphName="acute" x="411" y="250" flags="0x1004"/>
    </TTGlyph>
    <TTGlyph name="Aacute" xMin="-30" yMin="-78" xMax="601" yMax="928">
      <component glyphName="A" x="0" y="0" flags="0x1004"/>
      <component glyphName="acute" x="269" y="237" flags="0x1004"/>
    </TTGlyph>
    <TTGlyph name="Abreve" xMin="-30" yMin="-78" xMax="601" yMax="913">
      <component glyphName="A" x="0" y="0" flags="0x1004"/>
      <component glyphName="breve" x="207" y="237" flags="0x1004"/>
    </TTGlyph>
    <TTGlyph name="Acircumflex" xMin="-30" yMin="-78" xMax="601" yMax="930">
      <component glyphName="A" x="0" y="0" flags="0x1004"/>
      <component glyphName="circumflex" x="218" y="237" flags="0x1004"/>
    </TTGlyph>
    <TTGlyph name="Adieresis" xMin="-30" yMin="-78" xMax="601" yMax="885">
      <component glyphName="A" x="0" y="0" flags="0x1004"/>
      <component glyphName="dieresis" x="221" y="237" flags="0x1004"/>
    </TTGlyph>
    <TTGlyph name="Agrave" xMin="-30" yMin="-78" xMax="601" yMax="930">
      <component glyphName="A" x="0" y="0" flags="0x1004"/>
      <component glyphName="grave" x="186" y="237" flags="0x1004"/>
    </TTGlyph>
    <TTGlyph name="Amacron" xMin="-30" yMin="-78" xMax="601" yMax="867">
      <component glyphName="A" x="0" y="0" flags="0x1004"/>
      <component glyphName="macron" x="217" y="237" flags="0x1004"/>
    </TTGlyph>
    <TTGlyph name="Aogonek" xMin="-30" yMin="-242" xMax="661" yMax="694">
      <contour>
        <pt x="324" y="299" on="1"/>
        <pt x="373" y="520" on="0"/>
        <pt x="373" y="631" on="1"/>
        <pt x="373" y="657" on="1"/>
        <pt x="373" y="674" on="0"/>
        <pt x="390" y="691" on="0"/>
        <pt x="409" y="694" on="0"/>
        <pt x="466" y="694" on="0"/>
        <pt x="529" y="652" on="0"/>
        <pt x="529" y="616" on="1"/>
        <pt x="529" y="609" on="0"/>
        <pt x="511" y="449" on="0"/>
        <pt x="508" y="324" on="1"/>
        <pt x="542" y="338" on="0"/>
        <pt x="583" y="369" on="0"/>
        <pt x="590" y="369" on="1"/>
        <pt x="601" y="369" on="0"/>
        <pt x="601" y="328" on="0"/>
        <pt x="539" y="265" on="0"/>
        <pt x="508" y="245" on="1"/>
        <pt x="508" y="223" on="0"/>
        <pt x="510" y="175" on="1"/>
        <pt x="513" y="177" on="0"/>
        <pt x="524" y="177" on="0"/>
        <pt x="535" y="171" on="0"/>
        <pt x="544" y="163" on="0"/>
        <pt x="556" y="148" on="0"/>
        <pt x="562" y="140" on="0"/>
        <pt x="572" y="125" on="0"/>
        <pt x="573" y="124" on="1"/>
        <pt x="591" y="97" on="0"/>
        <pt x="591" y="66" on="0"/>
        <pt x="585" y="46" on="1"/>
        <pt x="577" y="33" on="0"/>
        <pt x="543" y="-10" on="1"/>
        <pt x="490" y="-76" on="0"/>
        <pt x="490" y="-120" on="1"/>
        <pt x="490" y="-140" on="0"/>
        <pt x="504" y="-148" on="1"/>
        <pt x="536" y="-148" on="0"/>
        <pt x="627" y="-105" on="0"/>
        <pt x="639" y="-105" on="1"/>
        <pt x="647" y="-105" on="0"/>
        <pt x="661" y="-145" on="0"/>
        <pt x="661" y="-157" on="1"/>
        <pt x="652" y="-195" on="0"/>
        <pt x="578" y="-242" on="0"/>
        <pt x="519" y="-242" on="1"/>
        <pt x="492" y="-242" on="0"/>
        <pt x="421" y="-173" on="0"/>
        <pt x="421" y="-104" on="0"/>
        <pt x="460" y="-13" on="0"/>
        <pt x="480" y="11" on="1"/>
        <pt x="468" y="14" on="0"/>
        <pt x="460" y="122" on="0"/>
        <pt x="454" y="220" on="1"/>
        <pt x="428" y="211" on="0"/>
        <pt x="374" y="209" on="1"/>
        <pt x="358" y="137" on="0"/>
        <pt x="325" y="16" on="0"/>
        <pt x="250" y="-56" on="0"/>
        <pt x="196" y="-56" on="1"/>
        <pt x="180" y="-56" on="0"/>
        <pt x="158" y="-51" on="1"/>
        <pt x="29" y="-16" on="0"/>
        <pt x="-18" y="112" on="1"/>
        <pt x="-30" y="145" on="0"/>
        <pt x="-30" y="170" on="1"/>
        <pt x="-30" y="230" on="0"/>
        <pt x="20" y="252" on="1"/>
        <pt x="128" y="301" on="0"/>
        <pt x="231" y="301" on="1"/>
        <pt x="321" y="299" on="1"/>
      </contour>
      <contour>
        <pt x="301" y="208" on="1"/>
        <pt x="237" y="208" on="1"/>
        <pt x="119" y="208" on="0"/>
        <pt x="42" y="190" on="1"/>
        <pt x="1" y="182" on="0"/>
        <pt x="1" y="161" on="1"/>
        <pt x="1" y="144" on="0"/>
        <pt x="55" y="90" on="0"/>
        <pt x="141" y="61" on="0"/>
        <pt x="199" y="61" on="0"/>
        <pt x="238" y="81" on="0"/>
        <pt x="261" y="103" on="0"/>
        <pt x="272" y="128" on="1"/>
        <pt x="286" y="159" on="0"/>
      </contour>
      <contour>
        <pt x="450" y="309" on="1"/>
        <pt x="446" y="397" on="0"/>
        <pt x="442" y="577" on="1"/>
        <pt x="434" y="531" on="0"/>
        <pt x="401" y="347" on="0"/>
        <pt x="393" y="301" on="1"/>
        <pt x="431" y="305" on="0"/>
      </contour>
    </TTGlyph>
    <TTGlyph name="Aring" xMin="-30" yMin="-78" xMax="601" yMax="978">
      <component glyphName="A" x="0" y="0" flags="0x1004"/>
      <component glyphName="ring" x="223" y="237" flags="0x1004"/>
    </TTGlyph>
    <TTGlyph name="Atilde" xMin="-30" yMin="-78" xMax="601" yMax="884">
      <component glyphName="A" x="0" y="0" flags="0x1004"/>
      <component glyphName="tilde" x="212" y="237" flags="0x1004"/>
    </TTGlyph>
    <TTGlyph name="B" xMin="-9" yMin="-48" xMax="463" yMax="702">
      <contour>
        <pt x="19" y="564" on="0"/>
        <pt x="7" y="564" on="0"/>
        <pt x="-1" y="569" on="0"/>
        <pt x="-5" y="581" on="0"/>
        <pt x="-8" y="592" on="0"/>
        <pt x="-9" y="609" on="0"/>
        <pt x="-9" y="614" on="1"/>
        <pt x="-9" y="641" on="1"/>
        <pt x="-9" y="666" on="0"/>
        <pt x="1" y="666" on="1"/>
        <pt x="3" y="666" on="0"/>
        <pt x="7" y="664" on="1"/>
        <pt x="100" y="702" on="0"/>
        <pt x="201" y="702" on="1"/>
        <pt x="341" y="702" on="0"/>
        <pt x="394" y="614" on="1"/>
        <pt x="424" y="563" on="0"/>
        <pt x="424" y="471" on="0"/>
        <pt x="339" y="380" on="0"/>
        <pt x="260" y="325" on="1"/>
        <pt x="427" y="274" on="0"/>
        <pt x="457" y="162" on="1"/>
        <pt x="463" y="143" on="0"/>
        <pt x="463" y="122" on="1"/>
        <pt x="463" y="4" on="0"/>
        <pt x="250" y="-39" on="1"/>
        <pt x="210" y="-48" on="0"/>
        <pt x="160" y="-48" on="0"/>
        <pt x="122" y="-25" on="0"/>
        <pt x="122" y="12" on="0"/>
        <pt x="134" y="36" on="1"/>
        <pt x="131" y="69" on="0"/>
        <pt x="131" y="168" on="0"/>
        <pt x="143" y="255" on="1"/>
        <pt x="133" y="256" on="0"/>
        <pt x="120" y="270" on="0"/>
        <pt x="120" y="291" on="0"/>
        <pt x="127" y="329" on="0"/>
        <pt x="128" y="336" on="1"/>
        <pt x="133" y="374" on="0"/>
        <pt x="158" y="391" on="1"/>
        <pt x="171" y="559" on="0"/>
        <pt x="174" y="592" on="1"/>
        <pt x="128" y="592" on="0"/>
        <pt x="63" y="584" on="0"/>
      </contour>
      <contour>
        <pt x="334" y="545" on="1"/>
        <pt x="334" y="559" on="0"/>
        <pt x="265" y="592" on="0"/>
        <pt x="187" y="592" on="1"/>
        <pt x="218" y="575" on="0"/>
        <pt x="218" y="534" on="1"/>
        <pt x="218" y="526" on="1"/>
        <pt x="213" y="488" on="0"/>
        <pt x="213" y="439" on="0"/>
        <pt x="214" y="430" on="1"/>
        <pt x="334" y="521" on="0"/>
      </contour>
      <contour>
        <pt x="370" y="104" on="1"/>
        <pt x="391" y="116" on="0"/>
        <pt x="391" y="151" on="0"/>
        <pt x="376" y="170" on="1"/>
        <pt x="335" y="222" on="0"/>
        <pt x="232" y="253" on="1"/>
        <pt x="220" y="257" on="0"/>
        <pt x="207" y="257" on="0"/>
        <pt x="201" y="254" on="1"/>
        <pt x="184" y="158" on="0"/>
        <pt x="183" y="101" on="1"/>
        <pt x="191" y="122" on="0"/>
        <pt x="238" y="158" on="0"/>
        <pt x="268" y="158" on="0"/>
        <pt x="268" y="153" on="1"/>
        <pt x="268" y="146" on="0"/>
        <pt x="223" y="131" on="0"/>
        <pt x="196" y="102" on="0"/>
        <pt x="196" y="45" on="0"/>
        <pt x="223" y="45" on="1"/>
        <pt x="273" y="45" on="0"/>
      </contour>
    </TTGlyph>
    <TTGlyph name="C" xMin="30" yMin="-33" xMax="359" yMax="725">
      <contour>
        <pt x="359" y="224" on="1"/>
        <pt x="359" y="94" on="0"/>
        <pt x="259" y="-11" on="1"/>
        <pt x="238" y="-33" on="0"/>
        <pt x="201" y="-33" on="1"/>
        <pt x="141" y="-33" on="0"/>
        <pt x="102" y="-3" on="1"/>
        <pt x="30" y="52" on="0"/>
        <pt x="30" y="217" on="1"/>
        <pt x="30" y="326" on="0"/>
        <pt x="118" y="568" on="0"/>
        <pt x="186" y="668" on="1"/>
        <pt x="196" y="680" on="0"/>
        <pt x="206" y="680" on="0"/>
        <pt x="219" y="674" on="0"/>
        <pt x="234" y="666" on="0"/>
        <pt x="237" y="665" on="1"/>
        <pt x="237" y="695" on="1"/>
        <pt x="231" y="707" on="0"/>
        <pt x="231" y="725" on="0"/>
        <pt x="247" y="725" on="0"/>
        <pt x="256" y="722" on="1"/>
        <pt x="344" y="692" on="0"/>
        <pt x="344" y="578" on="1"/>
        <pt x="344" y="513" on="0"/>
        <pt x="311" y="445" on="1"/>
        <pt x="302" y="427" on="0"/>
        <pt x="295" y="427" on="1"/>
        <pt x="290" y="427" on="0"/>
        <pt x="280" y="443" on="1"/>
        <pt x="248" y="509" on="0"/>
        <pt x="239" y="614" on="1"/>
        <pt x="224" y="614" on="0"/>
        <pt x="210" y="592" on="0"/>
        <pt x="193" y="545" on="1"/>
        <pt x="130" y="375" on="0"/>
        <pt x="130" y="196" on="1"/>
        <pt x="130" y="97" on="0"/>
        <pt x="152" y="27" on="1"/>
        <pt x="217" y="88" on="0"/>
        <pt x="312" y="269" on="0"/>
        <pt x="335" y="364" on="1"/>
        <pt x="359" y="285" on="0"/>
      </contour>
    </TTGlyph>
    <TTGlyph name="Cacute" xMin="30" yMin="-33" xMax="407" yMax="959">
      <component glyphName="C" x="0" y="0" flags="0x1004"/>
      <component glyphName="acute" x="85" y="268" flags="0x1004"/>
    </TTGlyph>
    <TTGlyph name="Ccaron" xMin="30" yMin="-33" xMax="400" yMax="961">
      <component glyphName="C" x="0" y="0" flags="0x1004"/>
      <component glyphName="caron" x="30" y="268" flags="0x1004"/>
    </TTGlyph>
    <TTGlyph name="Ccedilla" xMin="30" yMin="-289" xMax="359" yMax="725">
      <contour>
        <pt x="240" y="-171" on="1"/>
        <pt x="235" y="-156" on="0"/>
        <pt x="169" y="-138" on="1"/>
        <pt x="145" y="-132" on="0"/>
        <pt x="106" y="-94" on="0"/>
        <pt x="106" y="-36" on="0"/>
        <pt x="121" y="-15" on="1"/>
        <pt x="66" y="12" on="0"/>
        <pt x="49" y="78" on="1"/>
        <pt x="30" y="144" on="0"/>
        <pt x="30" y="217" on="1"/>
        <pt x="30" y="326" on="0"/>
        <pt x="118" y="568" on="0"/>
        <pt x="186" y="668" on="1"/>
        <pt x="196" y="680" on="0"/>
        <pt x="206" y="680" on="0"/>
        <pt x="219" y="674" on="0"/>
        <pt x="234" y="666" on="0"/>
        <pt x="237" y="665" on="1"/>
        <pt x="237" y="695" on="1"/>
        <pt x="231" y="707" on="0"/>
        <pt x="231" y="725" on="0"/>
        <pt x="240" y="725" on="1"/>
        <pt x="241" y="725" on="0"/>
        <pt x="256" y="722" on="1"/>
        <pt x="344" y="691" on="0"/>
        <pt x="344" y="578" on="1"/>
        <pt x="344" y="503" on="0"/>
        <pt x="311" y="445" on="1"/>
        <pt x="301" y="427" on="0"/>
        <pt x="290" y="427" on="0"/>
        <pt x="280" y="443" on="1"/>
        <pt x="248" y="509" on="0"/>
        <pt x="239" y="614" on="1"/>
        <pt x="224" y="614" on="0"/>
        <pt x="210" y="592" on="0"/>
        <pt x="193" y="545" on="1"/>
        <pt x="130" y="375" on="0"/>
        <pt x="130" y="196" on="1"/>
        <pt x="130" y="97" on="0"/>
        <pt x="152" y="27" on="1"/>
        <pt x="217" y="88" on="0"/>
        <pt x="312" y="269" on="0"/>
        <pt x="335" y="364" on="1"/>
        <pt x="359" y="285" on="0"/>
        <pt x="359" y="224" on="1"/>
        <pt x="359" y="94" on="0"/>
        <pt x="259" y="-11" on="1"/>
        <pt x="238" y="-33" on="0"/>
        <pt x="201" y="-33" on="1"/>
        <pt x="192" y="-33" on="0"/>
        <pt x="174" y="-31" on="1"/>
        <pt x="168" y="-40" on="0"/>
        <pt x="168" y="-65" on="0"/>
        <pt x="211" y="-79" on="0"/>
        <pt x="263" y="-89" on="0"/>
        <pt x="306" y="-132" on="0"/>
        <pt x="306" y="-169" on="1"/>
        <pt x="306" y="-232" on="0"/>
        <pt x="223" y="-289" on="0"/>
        <pt x="158" y="-289" on="1"/>
        <pt x="137" y="-289" on="0"/>
        <pt x="116" y="-285" on="0"/>
        <pt x="98" y="-258" on="0"/>
        <pt x="98" y="-198" on="0"/>
        <pt x="119" y="-198" on="1"/>
        <pt x="123" y="-198" on="0"/>
        <pt x="128" y="-206" on="0"/>
        <pt x="130" y="-206" on="1"/>
        <pt x="205" y="-200" on="0"/>
        <pt x="230" y="-185" on="1"/>
        <pt x="240" y="-179" on="0"/>
        <pt x="240" y="-173" on="1"/>
      </contour>
    </TTGlyph>
    <TTGlyph name="Ccircumflex" xMin="30" yMin="-33" xMax="404" yMax="961">
      <component glyphName="C" x="0" y="0" flags="0x1004"/>
      <component glyphName="circumflex" x="34" y="268" flags="0x1004"/>
    </TTGlyph>
    <TTGlyph name="Cdotaccent" xMin="30" yMin="-33" xMax="359" yMax="919">
      <component glyphName="C" x="0" y="0" flags="0x1004"/>
      <component glyphName="dotaccent" x="30" y="268" flags="0x1004"/>
    </TTGlyph>
    <TTGlyph name="D" xMin="10" yMin="-23" xMax="480" yMax="697">
      <contour>
        <pt x="14" y="566" on="1"/>
        <pt x="10" y="605" on="1"/>
        <pt x="10" y="618" on="0"/>
        <pt x="21" y="625" on="1"/>
        <pt x="78" y="663" on="0"/>
        <pt x="182" y="688" on="1"/>
        <pt x="225" y="697" on="0"/>
        <pt x="253" y="697" on="1"/>
        <pt x="395" y="697" on="0"/>
        <pt x="458" y="523" on="1"/>
        <pt x="480" y="461" on="0"/>
        <pt x="480" y="392" on="1"/>
        <pt x="480" y="288" on="0"/>
        <pt x="370" y="76" on="0"/>
        <pt x="312" y="11" on="1"/>
        <pt x="280" y="-23" on="0"/>
        <pt x="208" y="-23" on="0"/>
        <pt x="168" y="33" on="0"/>
        <pt x="168" y="120" on="0"/>
        <pt x="200" y="228" on="0"/>
        <pt x="234" y="242" on="1"/>
        <pt x="229" y="219" on="0"/>
        <pt x="229" y="168" on="0"/>
        <pt x="264" y="94" on="0"/>
        <pt x="312" y="94" on="0"/>
        <pt x="327" y="122" on="1"/>
        <pt x="389" y="234" on="0"/>
        <pt x="389" y="377" on="1"/>
        <pt x="389" y="547" on="0"/>
        <pt x="300" y="597" on="1"/>
        <pt x="274" y="611" on="0"/>
        <pt x="226" y="611" on="0"/>
        <pt x="198" y="597" on="1"/>
        <pt x="206" y="554" on="0"/>
        <pt x="206" y="423" on="0"/>
        <pt x="161" y="136" on="0"/>
        <pt x="161" y="61" on="1"/>
        <pt x="161" y="29" on="1"/>
        <pt x="161" y="3" on="0"/>
        <pt x="137" y="-13" on="0"/>
        <pt x="124" y="-13" on="1"/>
        <pt x="87" y="-13" on="0"/>
        <pt x="72" y="124" on="1"/>
        <pt x="66" y="179" on="0"/>
        <pt x="62" y="198" on="1"/>
        <pt x="65" y="199" on="0"/>
        <pt x="71" y="199" on="1"/>
        <pt x="89" y="199" on="0"/>
        <pt x="113" y="173" on="1"/>
        <pt x="113" y="199" on="1"/>
        <pt x="112" y="278" on="0"/>
        <pt x="134" y="487" on="1"/>
        <pt x="135" y="495" on="0"/>
        <pt x="135" y="538" on="0"/>
        <pt x="131" y="561" on="1"/>
        <pt x="124" y="557" on="0"/>
        <pt x="103" y="540" on="1"/>
        <pt x="54" y="500" on="0"/>
        <pt x="13" y="500" on="0"/>
        <pt x="13" y="535" on="1"/>
      </contour>
    </TTGlyph>
    <TTGlyph name="Dcaron" xMin="10" yMin="-23" xMax="480" yMax="933">
      <component glyphName="D" x="0" y="0" flags="0x1004"/>
      <component glyphName="caron" x="22" y="240" flags="0x1004"/>
    </TTGlyph>
    <TTGlyph name="Dcroat" xMin="10" yMin="-23" xMax="480" yMax="697">
      <contour>
        <pt x="14" y="566" on="1"/>
        <pt x="10" y="605" on="1"/>
        <pt x="10" y="618" on="0"/>
        <pt x="21" y="625" on="1"/>
        <pt x="78" y="663" on="0"/>
        <pt x="182" y="688" on="1"/>
        <pt x="225" y="697" on="0"/>
        <pt x="253" y="697" on="1"/>
        <pt x="395" y="697" on="0"/>
        <pt x="458" y="523" on="1"/>
        <pt x="480" y="461" on="0"/>
        <pt x="480" y="392" on="1"/>
        <pt x="480" y="288" on="0"/>
        <pt x="370" y="76" on="0"/>
        <pt x="312" y="11" on="1"/>
        <pt x="280" y="-23" on="0"/>
        <pt x="208" y="-23" on="0"/>
        <pt x="168" y="33" on="0"/>
        <pt x="168" y="120" on="0"/>
        <pt x="200" y="228" on="0"/>
        <pt x="234" y="242" on="1"/>
        <pt x="229" y="219" on="0"/>
        <pt x="229" y="168" on="0"/>
        <pt x="264" y="94" on="0"/>
        <pt x="312" y="94" on="0"/>
        <pt x="327" y="122" on="1"/>
        <pt x="389" y="234" on="0"/>
        <pt x="389" y="377" on="1"/>
        <pt x="389" y="547" on="0"/>
        <pt x="300" y="597" on="1"/>
        <pt x="274" y="611" on="0"/>
        <pt x="226" y="611" on="0"/>
        <pt x="198" y="597" on="1"/>
        <pt x="206" y="554" on="0"/>
        <pt x="206" y="452" on="0"/>
        <pt x="199" y="389" on="1"/>
        <pt x="268" y="392" on="1"/>
        <pt x="294" y="392" on="0"/>
        <pt x="294" y="367" on="1"/>
        <pt x="294" y="320" on="0"/>
        <pt x="261" y="320" on="1"/>
        <pt x="189" y="321" on="1"/>
        <pt x="161" y="149" on="0"/>
        <pt x="161" y="61" on="1"/>
        <pt x="161" y="29" on="1"/>
        <pt x="161" y="3" on="0"/>
        <pt x="137" y="-13" on="0"/>
        <pt x="124" y="-13" on="1"/>
        <pt x="87" y="-13" on="0"/>
        <pt x="72" y="124" on="1"/>
        <pt x="66" y="179" on="0"/>
        <pt x="62" y="198" on="1"/>
        <pt x="65" y="199" on="0"/>
        <pt x="71" y="199" on="1"/>
        <pt x="89" y="199" on="0"/>
        <pt x="113" y="173" on="1"/>
        <pt x="113" y="199" on="1"/>
        <pt x="112" y="250" on="0"/>
        <pt x="117" y="320" on="1"/>
        <pt x="67" y="315" on="0"/>
        <pt x="29" y="315" on="0"/>
        <pt x="18" y="330" on="0"/>
        <pt x="18" y="355" on="0"/>
        <pt x="22" y="371" on="0"/>
        <pt x="36" y="388" on="0"/>
        <pt x="45" y="388" on="1"/>
        <pt x="123" y="387" on="1"/>
        <pt x="135" y="489" on="0"/>
        <pt x="135" y="538" on="0"/>
        <pt x="131" y="561" on="1"/>
        <pt x="124" y="557" on="0"/>
        <pt x="103" y="540" on="1"/>
        <pt x="54" y="500" on="0"/>
        <pt x="13" y="500" on="0"/>
        <pt x="13" y="535" on="1"/>
      </contour>
    </TTGlyph>
    <TTGlyph name="E" xMin="-10" yMin="-36" xMax="452" yMax="710">
      <contour>
        <pt x="145" y="443" on="1"/>
        <pt x="145" y="409" on="0"/>
        <pt x="284" y="409" on="1"/>
        <pt x="301" y="409" on="1"/>
        <pt x="328" y="424" on="0"/>
        <pt x="335" y="424" on="1"/>
        <pt x="352" y="424" on="0"/>
        <pt x="403" y="369" on="0"/>
        <pt x="403" y="333" on="1"/>
        <pt x="403" y="321" on="0"/>
        <pt x="390" y="321" on="1"/>
        <pt x="386" y="321" on="0"/>
        <pt x="353" y="327" on="1"/>
        <pt x="343" y="324" on="0"/>
        <pt x="288" y="308" on="0"/>
        <pt x="268" y="302" on="0"/>
        <pt x="222" y="286" on="0"/>
        <pt x="201" y="275" on="0"/>
        <pt x="164" y="255" on="0"/>
        <pt x="152" y="244" on="1"/>
        <pt x="114" y="207" on="0"/>
        <pt x="100" y="186" on="1"/>
        <pt x="74" y="150" on="0"/>
        <pt x="74" y="73" on="0"/>
        <pt x="110" y="34" on="0"/>
        <pt x="193" y="34" on="0"/>
        <pt x="308" y="75" on="0"/>
        <pt x="308" y="114" on="1"/>
        <pt x="308" y="127" on="0"/>
        <pt x="296" y="152" on="0"/>
        <pt x="269" y="152" on="0"/>
        <pt x="132" y="71" on="0"/>
        <pt x="124" y="71" on="0"/>
        <pt x="124" y="88" on="0"/>
        <pt x="131" y="100" on="1"/>
        <pt x="160" y="149" on="0"/>
        <pt x="254" y="207" on="0"/>
        <pt x="356" y="207" on="0"/>
        <pt x="427" y="147" on="0"/>
        <pt x="427" y="70" on="0"/>
        <pt x="407" y="44" on="1"/>
        <pt x="346" y="-36" on="0"/>
        <pt x="175" y="-36" on="1"/>
        <pt x="69" y="-36" on="0"/>
        <pt x="18" y="46" on="1"/>
        <pt x="-10" y="89" on="0"/>
        <pt x="-10" y="169" on="0"/>
        <pt x="40" y="284" on="0"/>
        <pt x="123" y="342" on="0"/>
        <pt x="188" y="365" on="1"/>
        <pt x="91" y="396" on="0"/>
        <pt x="91" y="488" on="1"/>
        <pt x="91" y="543" on="0"/>
        <pt x="137" y="582" on="1"/>
        <pt x="176" y="616" on="0"/>
        <pt x="303" y="689" on="0"/>
        <pt x="335" y="710" on="0"/>
        <pt x="371" y="710" on="0"/>
        <pt x="394" y="683" on="1"/>
        <pt x="406" y="685" on="0"/>
        <pt x="411" y="685" on="1"/>
        <pt x="434" y="685" on="0"/>
        <pt x="444" y="665" on="1"/>
        <pt x="452" y="646" on="0"/>
        <pt x="452" y="640" on="1"/>
        <pt x="452" y="604" on="0"/>
        <pt x="299" y="543" on="1"/>
        <pt x="293" y="541" on="0"/>
        <pt x="291" y="541" on="1"/>
        <pt x="285" y="541" on="0"/>
        <pt x="285" y="558" on="0"/>
        <pt x="295" y="588" on="1"/>
        <pt x="262" y="572" on="1"/>
        <pt x="204" y="542" on="0"/>
        <pt x="191" y="528" on="1"/>
        <pt x="167" y="499" on="0"/>
        <pt x="145" y="449" on="0"/>
      </contour>
    </TTGlyph>
    <TTGlyph name="Eacute" xMin="-10" yMin="-36" xMax="505" yMax="944">
      <component glyphName="E" x="0" y="0" flags="0x1004"/>
      <component glyphName="acute" x="183" y="253" flags="0x1004"/>
    </TTGlyph>
    <TTGlyph name="Ebreve" xMin="-10" yMin="-36" xMax="501" yMax="929">
      <component glyphName="E" x="0" y="0" flags="0x1004"/>
      <component glyphName="breve" x="121" y="253" flags="0x1004"/>
    </TTGlyph>
    <TTGlyph name="Ecaron" xMin="-10" yMin="-36" xMax="498" yMax="946">
      <component glyphName="E" x="0" y="0" flags="0x1004"/>
      <component glyphName="caron" x="128" y="253" flags="0x1004"/>
    </TTGlyph>
    <TTGlyph name="Ecircumflex" xMin="-10" yMin="-36" xMax="502" yMax="946">
      <component glyphName="E" x="0" y="0" flags="0x1004"/>
      <component glyphName="circumflex" x="132" y="253" flags="0x1004"/>
    </TTGlyph>
    <TTGlyph name="Edieresis" xMin="-10" yMin="-36" xMax="494" yMax="901">
      <component glyphName="E" x="0" y="0" flags="0x1004"/>
      <component glyphName="dieresis" x="135" y="253" flags="0x1004"/>
    </TTGlyph>
    <TTGlyph name="Edotaccent" xMin="-10" yMin="-36" xMax="452" yMax="904">
      <component glyphName="E" x="0" y="0" flags="0x1004"/>
      <component glyphName="dotaccent" x="128" y="253" flags="0x1004"/>
    </TTGlyph>
    <TTGlyph name="Egrave" xMin="-10" yMin="-36" xMax="452" yMax="946">
      <component glyphName="E" x="0" y="0" flags="0x1004"/>
      <component glyphName="grave" x="100" y="253" flags="0x1004"/>
    </TTGlyph>
    <TTGlyph name="Emacron" xMin="-10" yMin="-36" xMax="485" yMax="883">
      <component glyphName="E" x="0" y="0" flags="0x1004"/>
      <component glyphName="macron" x="131" y="253" flags="0x1004"/>
    </TTGlyph>
    <TTGlyph name="Eng" xMin="10" yMin="-289" xMax="570" yMax="718">
      <contour>
        <pt x="303" y="28" on="1"/>
        <pt x="305" y="10" on="1"/>
        <pt x="305" y="-11" on="0"/>
        <pt x="272" y="-42" on="0"/>
        <pt x="228" y="-42" on="0"/>
        <pt x="181" y="17" on="0"/>
        <pt x="181" y="59" on="0"/>
        <pt x="194" y="87" on="0"/>
        <pt x="195" y="96" on="0"/>
        <pt x="200" y="157" on="0"/>
        <pt x="219" y="260" on="0"/>
        <pt x="228" y="327" on="0"/>
        <pt x="262" y="512" on="0"/>
        <pt x="270" y="569" on="1"/>
        <pt x="270" y="579" on="1"/>
        <pt x="270" y="603" on="0"/>
        <pt x="235" y="603" on="0"/>
        <pt x="217" y="585" on="1"/>
        <pt x="219" y="581" on="0"/>
        <pt x="219" y="557" on="0"/>
        <pt x="165" y="428" on="0"/>
        <pt x="115" y="297" on="1"/>
        <pt x="100" y="261" on="0"/>
        <pt x="50" y="261" on="0"/>
        <pt x="10" y="321" on="0"/>
        <pt x="10" y="364" on="0"/>
        <pt x="17" y="383" on="1"/>
        <pt x="42" y="443" on="0"/>
        <pt x="106" y="562" on="0"/>
        <pt x="143" y="632" on="0"/>
        <pt x="162" y="664" on="0"/>
        <pt x="182" y="664" on="0"/>
        <pt x="190" y="662" on="1"/>
        <pt x="209" y="685" on="0"/>
        <pt x="273" y="685" on="0"/>
        <pt x="338" y="645" on="0"/>
        <pt x="338" y="565" on="1"/>
        <pt x="338" y="537" on="0"/>
        <pt x="328" y="432" on="0"/>
        <pt x="327" y="418" on="1"/>
        <pt x="408" y="649" on="0"/>
        <pt x="471" y="707" on="1"/>
        <pt x="482" y="718" on="0"/>
        <pt x="502" y="718" on="1"/>
        <pt x="549" y="718" on="0"/>
        <pt x="577" y="679" on="0"/>
        <pt x="570" y="633" on="1"/>
        <pt x="567" y="615" on="0"/>
        <pt x="553" y="502" on="1"/>
        <pt x="518" y="216" on="0"/>
        <pt x="447" y="-120" on="0"/>
        <pt x="394" y="-238" on="1"/>
        <pt x="385" y="-259" on="0"/>
        <pt x="331" y="-289" on="0"/>
        <pt x="293" y="-289" on="0"/>
        <pt x="256" y="-276" on="0"/>
        <pt x="251" y="-266" on="1"/>
        <pt x="204" y="-205" on="0"/>
        <pt x="175" y="-152" on="0"/>
        <pt x="170" y="-133" on="1"/>
        <pt x="159" y="-102" on="0"/>
        <pt x="175" y="-102" on="1"/>
        <pt x="183" y="-102" on="0"/>
        <pt x="208" y="-127" on="1"/>
        <pt x="214" y="-132" on="0"/>
        <pt x="256" y="-146" on="0"/>
        <pt x="263" y="-146" on="1"/>
        <pt x="292" y="-146" on="0"/>
        <pt x="348" y="-68" on="0"/>
        <pt x="368" y="-7" on="1"/>
        <pt x="409" y="114" on="0"/>
        <pt x="428" y="229" on="1"/>
        <pt x="478" y="532" on="0"/>
        <pt x="492" y="633" on="1"/>
        <pt x="350" y="397" on="0"/>
        <pt x="306" y="53" on="1"/>
      </contour>
    </TTGlyph>
    <TTGlyph name="Eogonek" xMin="-10" yMin="-242" xMax="452" yMax="710">
      <contour>
        <pt x="145" y="443" on="1"/>
        <pt x="145" y="409" on="0"/>
        <pt x="284" y="409" on="1"/>
        <pt x="301" y="409" on="1"/>
        <pt x="328" y="424" on="0"/>
        <pt x="335" y="424" on="1"/>
        <pt x="352" y="424" on="0"/>
        <pt x="403" y="369" on="0"/>
        <pt x="403" y="333" on="1"/>
        <pt x="403" y="321" on="0"/>
        <pt x="390" y="321" on="1"/>
        <pt x="386" y="321" on="0"/>
        <pt x="353" y="327" on="1"/>
        <pt x="343" y="324" on="0"/>
        <pt x="288" y="308" on="0"/>
        <pt x="268" y="302" on="0"/>
        <pt x="222" y="286" on="0"/>
        <pt x="201" y="275" on="0"/>
        <pt x="164" y="255" on="0"/>
        <pt x="152" y="244" on="1"/>
        <pt x="114" y="207" on="0"/>
        <pt x="100" y="186" on="1"/>
        <pt x="74" y="150" on="0"/>
        <pt x="74" y="73" on="0"/>
        <pt x="110" y="34" on="0"/>
        <pt x="193" y="34" on="0"/>
        <pt x="308" y="75" on="0"/>
        <pt x="308" y="114" on="1"/>
        <pt x="308" y="127" on="0"/>
        <pt x="296" y="152" on="0"/>
        <pt x="269" y="152" on="0"/>
        <pt x="132" y="71" on="0"/>
        <pt x="124" y="71" on="0"/>
        <pt x="124" y="84" on="0"/>
        <pt x="131" y="100" on="1"/>
        <pt x="160" y="149" on="0"/>
        <pt x="255" y="207" on="0"/>
        <pt x="356" y="207" on="0"/>
        <pt x="427" y="147" on="0"/>
        <pt x="427" y="68" on="0"/>
        <pt x="395" y="27" on="0"/>
        <pt x="326" y="-13" on="0"/>
        <pt x="297" y="-37" on="0"/>
        <pt x="271" y="-97" on="0"/>
        <pt x="271" y="-140" on="0"/>
        <pt x="285" y="-148" on="1"/>
        <pt x="317" y="-148" on="0"/>
        <pt x="408" y="-105" on="0"/>
        <pt x="420" y="-105" on="1"/>
        <pt x="428" y="-105" on="0"/>
        <pt x="442" y="-145" on="0"/>
        <pt x="442" y="-157" on="1"/>
        <pt x="433" y="-195" on="0"/>
        <pt x="359" y="-242" on="0"/>
        <pt x="300" y="-242" on="1"/>
        <pt x="273" y="-242" on="0"/>
        <pt x="202" y="-173" on="0"/>
        <pt x="202" y="-85" on="0"/>
        <pt x="254" y="-25" on="1"/>
        <pt x="226" y="-36" on="0"/>
        <pt x="175" y="-36" on="1"/>
        <pt x="69" y="-36" on="0"/>
        <pt x="18" y="46" on="1"/>
        <pt x="-10" y="89" on="0"/>
        <pt x="-10" y="169" on="0"/>
        <pt x="40" y="284" on="0"/>
        <pt x="123" y="342" on="0"/>
        <pt x="188" y="365" on="1"/>
        <pt x="91" y="396" on="0"/>
        <pt x="91" y="488" on="1"/>
        <pt x="91" y="543" on="0"/>
        <pt x="137" y="582" on="1"/>
        <pt x="176" y="616" on="0"/>
        <pt x="303" y="689" on="0"/>
        <pt x="335" y="710" on="0"/>
        <pt x="371" y="710" on="0"/>
        <pt x="394" y="683" on="1"/>
        <pt x="406" y="685" on="0"/>
        <pt x="411" y="685" on="1"/>
        <pt x="434" y="685" on="0"/>
        <pt x="444" y="665" on="1"/>
        <pt x="452" y="646" on="0"/>
        <pt x="452" y="640" on="1"/>
        <pt x="452" y="604" on="0"/>
        <pt x="299" y="543" on="1"/>
        <pt x="293" y="541" on="0"/>
        <pt x="291" y="541" on="1"/>
        <pt x="285" y="541" on="0"/>
        <pt x="285" y="558" on="0"/>
        <pt x="295" y="588" on="1"/>
        <pt x="262" y="572" on="1"/>
        <pt x="204" y="542" on="0"/>
        <pt x="191" y="528" on="1"/>
        <pt x="167" y="499" on="0"/>
        <pt x="145" y="451" on="0"/>
      </contour>
    </TTGlyph>
    <TTGlyph name="Eth" xMin="10" yMin="-23" xMax="480" yMax="697">
      <contour>
        <pt x="14" y="566" on="1"/>
        <pt x="10" y="605" on="1"/>
        <pt x="10" y="618" on="0"/>
        <pt x="21" y="625" on="1"/>
        <pt x="78" y="663" on="0"/>
        <pt x="182" y="688" on="1"/>
        <pt x="225" y="697" on="0"/>
        <pt x="253" y="697" on="1"/>
        <pt x="395" y="697" on="0"/>
        <pt x="458" y="523" on="1"/>
        <pt x="480" y="461" on="0"/>
        <pt x="480" y="392" on="1"/>
        <pt x="480" y="288" on="0"/>
        <pt x="370" y="76" on="0"/>
        <pt x="312" y="11" on="1"/>
        <pt x="280" y="-23" on="0"/>
        <pt x="208" y="-23" on="0"/>
        <pt x="168" y="33" on="0"/>
        <pt x="168" y="120" on="0"/>
        <pt x="200" y="228" on="0"/>
        <pt x="234" y="242" on="1"/>
        <pt x="229" y="219" on="0"/>
        <pt x="229" y="168" on="0"/>
        <pt x="264" y="94" on="0"/>
        <pt x="312" y="94" on="0"/>
        <pt x="327" y="122" on="1"/>
        <pt x="389" y="234" on="0"/>
        <pt x="389" y="377" on="1"/>
        <pt x="389" y="547" on="0"/>
        <pt x="300" y="597" on="1"/>
        <pt x="274" y="611" on="0"/>
        <pt x="226" y="611" on="0"/>
        <pt x="198" y="597" on="1"/>
        <pt x="206" y="554" on="0"/>
        <pt x="206" y="452" on="0"/>
        <pt x="199" y="389" on="1"/>
        <pt x="268" y="392" on="1"/>
        <pt x="294" y="392" on="0"/>
        <pt x="294" y="367" on="1"/>
        <pt x="294" y="320" on="0"/>
        <pt x="261" y="320" on="1"/>
        <pt x="189" y="321" on="1"/>
        <pt x="161" y="149" on="0"/>
        <pt x="161" y="61" on="1"/>
        <pt x="161" y="29" on="1"/>
        <pt x="161" y="3" on="0"/>
        <pt x="137" y="-13" on="0"/>
        <pt x="124" y="-13" on="1"/>
        <pt x="87" y="-13" on="0"/>
        <pt x="72" y="124" on="1"/>
        <pt x="66" y="179" on="0"/>
        <pt x="62" y="198" on="1"/>
        <pt x="65" y="199" on="0"/>
        <pt x="71" y="199" on="1"/>
        <pt x="89" y="199" on="0"/>
        <pt x="113" y="173" on="1"/>
        <pt x="113" y="199" on="1"/>
        <pt x="112" y="250" on="0"/>
        <pt x="117" y="320" on="1"/>
        <pt x="67" y="315" on="0"/>
        <pt x="29" y="315" on="0"/>
        <pt x="18" y="330" on="0"/>
        <pt x="18" y="355" on="0"/>
        <pt x="22" y="371" on="0"/>
        <pt x="36" y="388" on="0"/>
        <pt x="45" y="388" on="1"/>
        <pt x="123" y="387" on="1"/>
        <pt x="135" y="489" on="0"/>
        <pt x="135" y="538" on="0"/>
        <pt x="131" y="561" on="1"/>
        <pt x="124" y="557" on="0"/>
        <pt x="103" y="540" on="1"/>
        <pt x="54" y="500" on="0"/>
        <pt x="13" y="500" on="0"/>
        <pt x="13" y="535" on="1"/>
      </contour>
    </TTGlyph>
    <TTGlyph name="Euro" xMin="-3" yMin="-23" xMax="378" yMax="725">
      <contour>
        <pt x="156" y="322" on="1"/>
        <pt x="222" y="326" on="1"/>
        <pt x="235" y="326" on="0"/>
        <pt x="242" y="313" on="0"/>
        <pt x="242" y="284" on="0"/>
        <pt x="218" y="251" on="0"/>
        <pt x="178" y="251" on="0"/>
        <pt x="155" y="252" on="1"/>
        <pt x="150" y="252" on="1"/>
        <pt x="149" y="236" on="0"/>
        <pt x="149" y="206" on="1"/>
        <pt x="149" y="58" on="0"/>
        <pt x="176" y="58" on="1"/>
        <pt x="204" y="58" on="0"/>
        <pt x="328" y="358" on="0"/>
        <pt x="351" y="358" on="1"/>
        <pt x="362" y="358" on="0"/>
        <pt x="378" y="274" on="0"/>
        <pt x="378" y="193" on="0"/>
        <pt x="340" y="76" on="0"/>
        <pt x="263" y="-23" on="0"/>
        <pt x="220" y="-23" on="1"/>
        <pt x="203" y="-23" on="0"/>
        <pt x="164" y="-10" on="1"/>
        <pt x="89" y="12" on="0"/>
        <pt x="68" y="88" on="1"/>
        <pt x="49" y="154" on="0"/>
        <pt x="49" y="227" on="1"/>
        <pt x="49" y="247" on="1"/>
        <pt x="34" y="247" on="1"/>
        <pt x="-3" y="247" on="0"/>
        <pt x="-3" y="273" on="1"/>
        <pt x="-3" y="281" on="0"/>
        <pt x="15" y="319" on="0"/>
        <pt x="28" y="319" on="1"/>
        <pt x="55" y="319" on="1"/>
        <pt x="61" y="358" on="1"/>
        <pt x="37" y="358" on="1"/>
        <pt x="12" y="358" on="0"/>
        <pt x="12" y="383" on="1"/>
        <pt x="12" y="397" on="0"/>
        <pt x="33" y="431" on="0"/>
        <pt x="48" y="431" on="1"/>
        <pt x="80" y="431" on="1"/>
        <pt x="132" y="606" on="0"/>
        <pt x="252" y="697" on="1"/>
        <pt x="253" y="701" on="0"/>
        <pt x="250" y="713" on="0"/>
        <pt x="250" y="716" on="1"/>
        <pt x="250" y="725" on="0"/>
        <pt x="259" y="725" on="1"/>
        <pt x="260" y="725" on="0"/>
        <pt x="275" y="722" on="1"/>
        <pt x="363" y="691" on="0"/>
        <pt x="363" y="578" on="1"/>
        <pt x="363" y="545" on="0"/>
        <pt x="336" y="427" on="0"/>
        <pt x="314" y="427" on="1"/>
        <pt x="295" y="427" on="0"/>
        <pt x="276" y="518" on="0"/>
        <pt x="266" y="609" on="0"/>
        <pt x="258" y="609" on="1"/>
        <pt x="248" y="609" on="0"/>
        <pt x="234" y="588" on="1"/>
        <pt x="209" y="551" on="0"/>
        <pt x="177" y="434" on="1"/>
        <pt x="198" y="435" on="0"/>
        <pt x="272" y="435" on="0"/>
        <pt x="272" y="409" on="1"/>
        <pt x="272" y="401" on="0"/>
        <pt x="255" y="363" on="0"/>
        <pt x="242" y="363" on="1"/>
        <pt x="197" y="363" on="0"/>
        <pt x="162" y="362" on="1"/>
        <pt x="161" y="355" on="0"/>
        <pt x="157" y="329" on="0"/>
      </contour>
    </TTGlyph>
    <TTGlyph name="F" xMin="20" yMin="-36" xMax="551" yMax="720">
      <contour>
        <pt x="402" y="418" on="1"/>
        <pt x="535" y="475" on="0"/>
        <pt x="551" y="475" on="0"/>
        <pt x="551" y="450" on="0"/>
        <pt x="525" y="411" on="1"/>
        <pt x="477" y="336" on="0"/>
        <pt x="388" y="301" on="1"/>
        <pt x="365" y="174" on="0"/>
        <pt x="299" y="50" on="1"/>
        <pt x="255" y="-36" on="0"/>
        <pt x="200" y="-36" on="1"/>
        <pt x="169" y="-36" on="0"/>
        <pt x="133" y="-6" on="1"/>
        <pt x="108" y="16" on="0"/>
        <pt x="99" y="38" on="1"/>
        <pt x="86" y="69" on="0"/>
        <pt x="69" y="125" on="0"/>
        <pt x="69" y="192" on="0"/>
        <pt x="109" y="263" on="0"/>
        <pt x="143" y="290" on="1"/>
        <pt x="203" y="339" on="0"/>
        <pt x="282" y="371" on="1"/>
        <pt x="323" y="387" on="1"/>
        <pt x="325" y="406" on="0"/>
        <pt x="325" y="523" on="0"/>
        <pt x="313" y="582" on="1"/>
        <pt x="306" y="626" on="0"/>
        <pt x="267" y="626" on="1"/>
        <pt x="249" y="626" on="0"/>
        <pt x="221" y="610" on="0"/>
        <pt x="217" y="585" on="1"/>
        <pt x="190" y="453" on="0"/>
        <pt x="117" y="364" on="1"/>
        <pt x="87" y="327" on="0"/>
        <pt x="44" y="327" on="0"/>
        <pt x="29" y="355" on="1"/>
        <pt x="26" y="363" on="0"/>
        <pt x="23" y="394" on="0"/>
        <pt x="20" y="412" on="0"/>
        <pt x="20" y="420" on="1"/>
        <pt x="20" y="470" on="0"/>
        <pt x="84" y="538" on="1"/>
        <pt x="108" y="564" on="0"/>
        <pt x="148" y="641" on="0"/>
        <pt x="148" y="682" on="1"/>
        <pt x="147" y="707" on="1"/>
        <pt x="147" y="720" on="0"/>
        <pt x="154" y="720" on="1"/>
        <pt x="163" y="720" on="0"/>
        <pt x="210" y="673" on="1"/>
        <pt x="242" y="694" on="0"/>
        <pt x="327" y="694" on="0"/>
        <pt x="387" y="623" on="0"/>
        <pt x="404" y="510" on="0"/>
      </contour>
      <contour>
        <pt x="305" y="276" on="1"/>
        <pt x="258" y="264" on="1"/>
        <pt x="237" y="259" on="0"/>
        <pt x="156" y="251" on="0"/>
        <pt x="137" y="247" on="1"/>
        <pt x="100" y="240" on="0"/>
        <pt x="100" y="178" on="0"/>
        <pt x="182" y="97" on="0"/>
        <pt x="235" y="97" on="0"/>
        <pt x="245" y="117" on="1"/>
        <pt x="283" y="185" on="0"/>
      </contour>
    </TTGlyph>
    <TTGlyph name="G" xMin="30" yMin="-22" xMax="455" yMax="719">
      <contour>
        <pt x="248" y="276" on="1"/>
        <pt x="231" y="275" on="1"/>
        <pt x="202" y="275" on="0"/>
        <pt x="166" y="306" on="0"/>
        <pt x="166" y="326" on="0"/>
        <pt x="192" y="339" on="0"/>
        <pt x="337" y="405" on="0"/>
        <pt x="394" y="433" on="0"/>
        <pt x="421" y="433" on="0"/>
        <pt x="455" y="404" on="0"/>
        <pt x="455" y="377" on="0"/>
        <pt x="445" y="360" on="0"/>
        <pt x="424" y="345" on="0"/>
        <pt x="409" y="336" on="0"/>
        <pt x="380" y="323" on="0"/>
        <pt x="377" y="321" on="1"/>
        <pt x="355" y="311" on="0"/>
        <pt x="355" y="299" on="1"/>
        <pt x="358" y="290" on="1"/>
        <pt x="384" y="241" on="0"/>
        <pt x="384" y="193" on="1"/>
        <pt x="384" y="121" on="0"/>
        <pt x="333" y="44" on="1"/>
        <pt x="287" y="-22" on="0"/>
        <pt x="212" y="-22" on="1"/>
        <pt x="162" y="-22" on="0"/>
        <pt x="78" y="17" on="0"/>
        <pt x="61" y="58" on="1"/>
        <pt x="30" y="136" on="0"/>
        <pt x="30" y="224" on="1"/>
        <pt x="30" y="288" on="0"/>
        <pt x="48" y="366" on="0"/>
        <pt x="57" y="408" on="0"/>
        <pt x="83" y="477" on="0"/>
        <pt x="93" y="507" on="0"/>
        <pt x="128" y="586" on="0"/>
        <pt x="132" y="595" on="1"/>
        <pt x="160" y="658" on="0"/>
        <pt x="179" y="696" on="1"/>
        <pt x="189" y="719" on="0"/>
        <pt x="246" y="719" on="0"/>
        <pt x="310" y="698" on="0"/>
        <pt x="325" y="682" on="1"/>
        <pt x="353" y="652" on="0"/>
        <pt x="353" y="595" on="0"/>
        <pt x="317" y="538" on="1"/>
        <pt x="306" y="522" on="0"/>
        <pt x="306" y="490" on="1"/>
        <pt x="304" y="476" on="0"/>
        <pt x="291" y="476" on="1"/>
        <pt x="283" y="476" on="0"/>
        <pt x="271" y="486" on="0"/>
        <pt x="268" y="497" on="0"/>
        <pt x="263" y="517" on="0"/>
        <pt x="262" y="520" on="1"/>
        <pt x="252" y="548" on="0"/>
        <pt x="252" y="612" on="1"/>
        <pt x="252" y="625" on="0"/>
        <pt x="236" y="625" on="0"/>
        <pt x="202" y="539" on="1"/>
        <pt x="123" y="343" on="0"/>
        <pt x="123" y="200" on="1"/>
        <pt x="123" y="123" on="0"/>
        <pt x="135" y="75" on="1"/>
        <pt x="140" y="54" on="0"/>
        <pt x="182" y="54" on="0"/>
        <pt x="206" y="85" on="1"/>
        <pt x="273" y="172" on="0"/>
        <pt x="273" y="249" on="1"/>
        <pt x="273" y="276" on="0"/>
      </contour>
    </TTGlyph>
    <TTGlyph name="Gbreve" xMin="30" yMin="-22" xMax="455" yMax="938">
      <component glyphName="G" x="0" y="0" flags="0x1004"/>
      <component glyphName="breve" x="27" y="262" flags="0x1004"/>
    </TTGlyph>
    <TTGlyph name="Gcircumflex" xMin="30" yMin="-22" xMax="455" yMax="955">
      <component glyphName="G" x="0" y="0" flags="0x1004"/>
      <component glyphName="circumflex" x="38" y="262" flags="0x1004"/>
    </TTGlyph>
    <TTGlyph name="Gcommaaccent" xMin="30" yMin="-265" xMax="455" yMax="719">
      <contour>
        <pt x="248" y="276" on="1"/>
        <pt x="231" y="275" on="1"/>
        <pt x="202" y="275" on="0"/>
        <pt x="166" y="306" on="0"/>
        <pt x="166" y="326" on="0"/>
        <pt x="192" y="339" on="0"/>
        <pt x="337" y="405" on="0"/>
        <pt x="394" y="433" on="0"/>
        <pt x="421" y="433" on="0"/>
        <pt x="455" y="404" on="0"/>
        <pt x="455" y="377" on="0"/>
        <pt x="445" y="360" on="0"/>
        <pt x="424" y="345" on="0"/>
        <pt x="409" y="336" on="0"/>
        <pt x="380" y="323" on="0"/>
        <pt x="377" y="321" on="1"/>
        <pt x="355" y="311" on="0"/>
        <pt x="355" y="299" on="1"/>
        <pt x="358" y="290" on="1"/>
        <pt x="384" y="241" on="0"/>
        <pt x="384" y="193" on="1"/>
        <pt x="384" y="121" on="0"/>
        <pt x="333" y="44" on="1"/>
        <pt x="287" y="-22" on="0"/>
        <pt x="212" y="-22" on="1"/>
        <pt x="162" y="-22" on="0"/>
        <pt x="78" y="17" on="0"/>
        <pt x="61" y="58" on="1"/>
        <pt x="30" y="136" on="0"/>
        <pt x="30" y="224" on="1"/>
        <pt x="30" y="288" on="0"/>
        <pt x="48" y="366" on="0"/>
        <pt x="57" y="408" on="0"/>
        <pt x="83" y="477" on="0"/>
        <pt x="93" y="507" on="0"/>
        <pt x="128" y="586" on="0"/>
        <pt x="132" y="595" on="1"/>
        <pt x="160" y="658" on="0"/>
        <pt x="179" y="696" on="1"/>
        <pt x="189" y="719" on="0"/>
        <pt x="246" y="719" on="0"/>
        <pt x="310" y="698" on="0"/>
        <pt x="325" y="682" on="1"/>
        <pt x="353" y="652" on="0"/>
        <pt x="353" y="595" on="0"/>
        <pt x="317" y="538" on="1"/>
        <pt x="306" y="522" on="0"/>
        <pt x="306" y="490" on="1"/>
        <pt x="304" y="476" on="0"/>
        <pt x="291" y="476" on="1"/>
        <pt x="283" y="476" on="0"/>
        <pt x="271" y="486" on="0"/>
        <pt x="268" y="497" on="0"/>
        <pt x="263" y="517" on="0"/>
        <pt x="262" y="520" on="1"/>
        <pt x="252" y="548" on="0"/>
        <pt x="252" y="612" on="1"/>
        <pt x="252" y="625" on="0"/>
        <pt x="236" y="625" on="0"/>
        <pt x="202" y="539" on="1"/>
        <pt x="123" y="343" on="0"/>
        <pt x="123" y="200" on="1"/>
        <pt x="123" y="123" on="0"/>
        <pt x="135" y="75" on="1"/>
        <pt x="140" y="54" on="0"/>
        <pt x="182" y="54" on="0"/>
        <pt x="206" y="85" on="1"/>
        <pt x="273" y="172" on="0"/>
        <pt x="273" y="249" on="1"/>
        <pt x="273" y="276" on="0"/>
      </contour>
      <contour>
        <pt x="137" y="-265" on="0"/>
        <pt x="126" y="-252" on="0"/>
        <pt x="126" y="-234" on="0"/>
        <pt x="175" y="-156" on="0"/>
        <pt x="175" y="-132" on="1"/>
        <pt x="163" y="-118" on="0"/>
        <pt x="163" y="-97" on="0"/>
        <pt x="196" y="-80" on="0"/>
        <pt x="230" y="-80" on="0"/>
        <pt x="257" y="-108" on="0"/>
        <pt x="257" y="-128" on="1"/>
        <pt x="257" y="-162" on="0"/>
        <pt x="169" y="-265" on="0"/>
        <pt x="146" y="-265" on="1"/>
      </contour>
    </TTGlyph>
    <TTGlyph name="Gdotaccent" xMin="30" yMin="-22" xMax="455" yMax="913">
      <component glyphName="G" x="0" y="0" flags="0x1004"/>
      <component glyphName="dotaccent" x="34" y="262" flags="0x1004"/>
    </TTGlyph>
    <TTGlyph name="H" xMin="-10" yMin="-48" xMax="487" yMax="718">
      <contour>
        <pt x="62" y="297" on="1"/>
        <pt x="96" y="288" on="1"/>
        <pt x="114" y="288" on="0"/>
        <pt x="173" y="305" on="1"/>
        <pt x="184" y="356" on="0"/>
        <pt x="208" y="450" on="1"/>
        <pt x="246" y="595" on="0"/>
        <pt x="246" y="627" on="0"/>
        <pt x="236" y="627" on="1"/>
        <pt x="224" y="627" on="0"/>
        <pt x="177" y="615" on="0"/>
        <pt x="177" y="605" on="1"/>
        <pt x="177" y="598" on="0"/>
        <pt x="208" y="564" on="0"/>
        <pt x="208" y="551" on="0"/>
        <pt x="207" y="549" on="1"/>
        <pt x="129" y="450" on="0"/>
        <pt x="68" y="404" on="1"/>
        <pt x="58" y="396" on="0"/>
        <pt x="48" y="396" on="1"/>
        <pt x="26" y="396" on="0"/>
        <pt x="17" y="426" on="1"/>
        <pt x="15" y="433" on="0"/>
        <pt x="7" y="450" on="1"/>
        <pt x="-10" y="488" on="0"/>
        <pt x="-10" y="527" on="0"/>
        <pt x="6" y="545" on="1"/>
        <pt x="76" y="615" on="0"/>
        <pt x="180" y="690" on="1"/>
        <pt x="192" y="700" on="0"/>
        <pt x="234" y="700" on="0"/>
        <pt x="286" y="683" on="0"/>
        <pt x="327" y="595" on="0"/>
        <pt x="327" y="546" on="0"/>
        <pt x="311" y="465" on="0"/>
        <pt x="281" y="333" on="1"/>
        <pt x="330" y="344" on="1"/>
        <pt x="349" y="508" on="0"/>
        <pt x="396" y="674" on="1"/>
        <pt x="398" y="680" on="0"/>
        <pt x="398" y="691" on="0"/>
        <pt x="388" y="709" on="0"/>
        <pt x="388" y="718" on="0"/>
        <pt x="399" y="718" on="0"/>
        <pt x="406" y="713" on="1"/>
        <pt x="447" y="686" on="0"/>
        <pt x="447" y="661" on="1"/>
        <pt x="447" y="649" on="0"/>
        <pt x="444" y="637" on="1"/>
        <pt x="417" y="513" on="0"/>
        <pt x="402" y="359" on="1"/>
        <pt x="408" y="360" on="0"/>
        <pt x="430" y="360" on="0"/>
        <pt x="487" y="339" on="0"/>
        <pt x="487" y="323" on="1"/>
        <pt x="487" y="317" on="0"/>
        <pt x="473" y="305" on="0"/>
        <pt x="421" y="260" on="0"/>
        <pt x="403" y="254" on="0"/>
        <pt x="393" y="251" on="1"/>
        <pt x="387" y="185" on="0"/>
        <pt x="387" y="136" on="0"/>
        <pt x="403" y="49" on="0"/>
        <pt x="403" y="22" on="0"/>
        <pt x="391" y="-14" on="0"/>
        <pt x="378" y="-14" on="1"/>
        <pt x="370" y="-14" on="0"/>
        <pt x="357" y="-3" on="1"/>
        <pt x="312" y="39" on="0"/>
        <pt x="312" y="140" on="0"/>
        <pt x="320" y="228" on="1"/>
        <pt x="289" y="220" on="0"/>
        <pt x="252" y="207" on="1"/>
        <pt x="226" y="94" on="0"/>
        <pt x="226" y="68" on="1"/>
        <pt x="236" y="0" on="1"/>
        <pt x="236" y="-16" on="0"/>
        <pt x="216" y="-48" on="0"/>
        <pt x="191" y="-48" on="0"/>
        <pt x="175" y="-30" on="0"/>
        <pt x="156" y="8" on="0"/>
        <pt x="156" y="9" on="1"/>
        <pt x="137" y="44" on="0"/>
        <pt x="137" y="102" on="0"/>
        <pt x="148" y="179" on="1"/>
        <pt x="116" y="183" on="0"/>
        <pt x="90" y="215" on="0"/>
        <pt x="55" y="278" on="0"/>
        <pt x="55" y="297" on="0"/>
      </contour>
    </TTGlyph>
    <TTGlyph name="Hbar" xMin="-10" yMin="-48" xMax="486" yMax="718">
      <contour>
        <pt x="286" y="683" on="0"/>
        <pt x="327" y="595" on="0"/>
        <pt x="327" y="544" on="0"/>
        <pt x="310" y="459" on="1"/>
        <pt x="324" y="459" on="0"/>
        <pt x="348" y="461" on="1"/>
        <pt x="364" y="561" on="0"/>
        <pt x="396" y="674" on="1"/>
        <pt x="398" y="680" on="0"/>
        <pt x="398" y="691" on="0"/>
        <pt x="388" y="709" on="0"/>
        <pt x="388" y="718" on="0"/>
        <pt x="399" y="718" on="0"/>
        <pt x="406" y="713" on="1"/>
        <pt x="447" y="686" on="0"/>
        <pt x="447" y="661" on="1"/>
        <pt x="447" y="649" on="0"/>
        <pt x="430" y="576" on="0"/>
        <pt x="416" y="476" on="1"/>
        <pt x="440" y="488" on="0"/>
        <pt x="453" y="490" on="1"/>
        <pt x="469" y="490" on="0"/>
        <pt x="477" y="441" on="1"/>
        <pt x="477" y="397" on="0"/>
        <pt x="405" y="391" on="1"/>
        <pt x="401" y="359" on="0"/>
        <pt x="401" y="344" on="1"/>
        <pt x="407" y="345" on="0"/>
        <pt x="429" y="345" on="0"/>
        <pt x="486" y="324" on="0"/>
        <pt x="486" y="308" on="1"/>
        <pt x="486" y="302" on="0"/>
        <pt x="472" y="290" on="0"/>
        <pt x="420" y="245" on="0"/>
        <pt x="402" y="239" on="0"/>
        <pt x="392" y="236" on="1"/>
        <pt x="387" y="154" on="0"/>
        <pt x="387" y="136" on="0"/>
        <pt x="403" y="49" on="0"/>
        <pt x="403" y="22" on="0"/>
        <pt x="391" y="-14" on="0"/>
        <pt x="378" y="-14" on="1"/>
        <pt x="370" y="-14" on="0"/>
        <pt x="357" y="-3" on="1"/>
        <pt x="312" y="39" on="0"/>
        <pt x="312" y="95" on="1"/>
        <pt x="312" y="136" on="0"/>
        <pt x="319" y="213" on="1"/>
        <pt x="289" y="205" on="0"/>
        <pt x="251" y="192" on="1"/>
        <pt x="249" y="184" on="0"/>
        <pt x="241" y="154" on="1"/>
        <pt x="226" y="99" on="0"/>
        <pt x="226" y="68" on="1"/>
        <pt x="236" y="0" on="1"/>
        <pt x="236" y="-16" on="0"/>
        <pt x="216" y="-48" on="0"/>
        <pt x="191" y="-48" on="0"/>
        <pt x="175" y="-30" on="0"/>
        <pt x="156" y="8" on="0"/>
        <pt x="156" y="9" on="1"/>
        <pt x="137" y="44" on="0"/>
        <pt x="137" y="102" on="0"/>
        <pt x="148" y="179" on="1"/>
        <pt x="143" y="180" on="0"/>
        <pt x="132" y="179" on="1"/>
        <pt x="107" y="177" on="0"/>
        <pt x="89" y="200" on="0"/>
        <pt x="54" y="263" on="0"/>
        <pt x="54" y="282" on="0"/>
        <pt x="61" y="282" on="1"/>
        <pt x="95" y="273" on="1"/>
        <pt x="112" y="273" on="0"/>
        <pt x="172" y="290" on="1"/>
        <pt x="174" y="298" on="0"/>
        <pt x="192" y="379" on="1"/>
        <pt x="170" y="377" on="0"/>
        <pt x="126" y="375" on="1"/>
        <pt x="117" y="375" on="0"/>
        <pt x="101" y="414" on="0"/>
        <pt x="101" y="448" on="0"/>
        <pt x="109" y="460" on="0"/>
        <pt x="121" y="460" on="1"/>
        <pt x="169" y="461" on="1"/>
        <pt x="212" y="460" on="1"/>
        <pt x="218" y="485" on="0"/>
        <pt x="241" y="579" on="0"/>
        <pt x="246" y="598" on="0"/>
        <pt x="246" y="627" on="0"/>
        <pt x="236" y="627" on="1"/>
        <pt x="233" y="627" on="1"/>
        <pt x="231" y="626" on="0"/>
        <pt x="215" y="624" on="0"/>
        <pt x="201" y="621" on="0"/>
        <pt x="194" y="618" on="1"/>
        <pt x="177" y="613" on="0"/>
        <pt x="177" y="598" on="0"/>
        <pt x="198" y="582" on="0"/>
        <pt x="198" y="570" on="0"/>
        <pt x="197" y="568" on="1"/>
        <pt x="119" y="469" on="0"/>
        <pt x="58" y="423" on="1"/>
        <pt x="48" y="415" on="0"/>
        <pt x="38" y="415" on="1"/>
        <pt x="16" y="415" on="0"/>
        <pt x="7" y="445" on="1"/>
        <pt x="5" y="451" on="0"/>
        <pt x="-3" y="470" on="0"/>
        <pt x="-5" y="476" on="1"/>
        <pt x="-10" y="489" on="0"/>
        <pt x="-10" y="527" on="0"/>
        <pt x="6" y="545" on="1"/>
        <pt x="76" y="615" on="0"/>
        <pt x="180" y="690" on="1"/>
        <pt x="192" y="700" on="0"/>
        <pt x="234" y="700" on="0"/>
      </contour>
      <contour>
        <pt x="328" y="389" on="1"/>
        <pt x="305" y="389" on="0"/>
        <pt x="295" y="387" on="1"/>
        <pt x="288" y="351" on="0"/>
        <pt x="280" y="318" on="1"/>
        <pt x="329" y="329" on="1"/>
        <pt x="333" y="369" on="0"/>
        <pt x="336" y="389" on="1"/>
      </contour>
    </TTGlyph>
    <TTGlyph name="Hcircumflex" xMin="-10" yMin="-48" xMax="487" yMax="944">
      <component glyphName="H" x="0" y="0" flags="0x1004"/>
      <component glyphName="circumflex" x="96" y="251" flags="0x1004"/>
    </TTGlyph>
    <TTGlyph name="I" xMin="20" yMin="-50" xMax="273" yMax="728">
      <contour>
        <pt x="207" y="634" on="1"/>
        <pt x="207" y="668" on="0"/>
        <pt x="179" y="668" on="0"/>
        <pt x="150" y="626" on="0"/>
        <pt x="150" y="610" on="0"/>
        <pt x="160" y="566" on="0"/>
        <pt x="160" y="519" on="0"/>
        <pt x="126" y="370" on="0"/>
        <pt x="105" y="321" on="0"/>
        <pt x="91" y="321" on="1"/>
        <pt x="80" y="321" on="0"/>
        <pt x="63" y="340" on="0"/>
        <pt x="40" y="378" on="0"/>
        <pt x="20" y="405" on="0"/>
        <pt x="20" y="439" on="0"/>
        <pt x="82" y="578" on="0"/>
        <pt x="103" y="619" on="1"/>
        <pt x="89" y="636" on="0"/>
        <pt x="89" y="642" on="1"/>
        <pt x="89" y="654" on="0"/>
        <pt x="106" y="654" on="1"/>
        <pt x="111" y="654" on="0"/>
        <pt x="119" y="650" on="1"/>
        <pt x="121" y="653" on="0"/>
        <pt x="135" y="680" on="0"/>
        <pt x="141" y="690" on="0"/>
        <pt x="156" y="711" on="0"/>
        <pt x="162" y="716" on="1"/>
        <pt x="181" y="728" on="0"/>
        <pt x="198" y="728" on="1"/>
        <pt x="273" y="728" on="0"/>
        <pt x="272" y="510" on="1"/>
        <pt x="272" y="504" on="0"/>
        <pt x="272" y="501" on="1"/>
        <pt x="272" y="270" on="0"/>
        <pt x="218" y="-28" on="1"/>
        <pt x="213" y="-50" on="0"/>
        <pt x="196" y="-50" on="1"/>
        <pt x="177" y="-50" on="0"/>
        <pt x="127" y="-2" on="0"/>
        <pt x="114" y="11" on="1"/>
        <pt x="79" y="46" on="0"/>
        <pt x="67" y="62" on="1"/>
        <pt x="52" y="79" on="0"/>
        <pt x="52" y="109" on="0"/>
        <pt x="75" y="154" on="0"/>
        <pt x="101" y="154" on="0"/>
        <pt x="126" y="112" on="0"/>
        <pt x="142" y="112" on="0"/>
        <pt x="147" y="143" on="0"/>
        <pt x="150" y="171" on="1"/>
        <pt x="158" y="230" on="0"/>
        <pt x="207" y="530" on="0"/>
        <pt x="207" y="603" on="1"/>
      </contour>
    </TTGlyph>
    <TTGlyph name="IJ" xMin="20" yMin="-50" xMax="869" yMax="728">
      <contour>
        <pt x="207" y="634" on="1"/>
        <pt x="207" y="668" on="0"/>
        <pt x="179" y="668" on="0"/>
        <pt x="150" y="626" on="0"/>
        <pt x="150" y="610" on="0"/>
        <pt x="160" y="566" on="0"/>
        <pt x="160" y="519" on="0"/>
        <pt x="126" y="370" on="0"/>
        <pt x="105" y="321" on="0"/>
        <pt x="91" y="321" on="1"/>
        <pt x="80" y="321" on="0"/>
        <pt x="63" y="340" on="0"/>
        <pt x="40" y="378" on="0"/>
        <pt x="20" y="405" on="0"/>
        <pt x="20" y="439" on="0"/>
        <pt x="82" y="578" on="0"/>
        <pt x="103" y="619" on="1"/>
        <pt x="89" y="636" on="0"/>
        <pt x="89" y="642" on="1"/>
        <pt x="89" y="654" on="0"/>
        <pt x="106" y="654" on="1"/>
        <pt x="111" y="654" on="0"/>
        <pt x="119" y="650" on="1"/>
        <pt x="121" y="653" on="0"/>
        <pt x="135" y="680" on="0"/>
        <pt x="141" y="690" on="0"/>
        <pt x="156" y="711" on="0"/>
        <pt x="162" y="716" on="1"/>
        <pt x="181" y="728" on="0"/>
        <pt x="198" y="728" on="1"/>
        <pt x="273" y="728" on="0"/>
        <pt x="272" y="510" on="1"/>
        <pt x="272" y="504" on="0"/>
        <pt x="272" y="501" on="1"/>
        <pt x="272" y="270" on="0"/>
        <pt x="218" y="-28" on="1"/>
        <pt x="213" y="-50" on="0"/>
        <pt x="196" y="-50" on="1"/>
        <pt x="177" y="-50" on="0"/>
        <pt x="127" y="-2" on="0"/>
        <pt x="114" y="11" on="1"/>
        <pt x="79" y="46" on="0"/>
        <pt x="67" y="62" on="1"/>
        <pt x="52" y="79" on="0"/>
        <pt x="52" y="109" on="0"/>
        <pt x="75" y="154" on="0"/>
        <pt x="101" y="154" on="0"/>
        <pt x="126" y="112" on="0"/>
        <pt x="142" y="112" on="0"/>
        <pt x="147" y="143" on="0"/>
        <pt x="150" y="171" on="1"/>
        <pt x="158" y="230" on="0"/>
        <pt x="207" y="530" on="0"/>
        <pt x="207" y="603" on="1"/>
      </contour>
      <contour>
        <pt x="687" y="700" on="1"/>
        <pt x="804" y="701" on="1"/>
        <pt x="829" y="701" on="0"/>
        <pt x="869" y="676" on="0"/>
        <pt x="869" y="656" on="1"/>
        <pt x="869" y="616" on="0"/>
        <pt x="790" y="598" on="1"/>
        <pt x="751" y="589" on="0"/>
        <pt x="679" y="591" on="0"/>
        <pt x="644" y="591" on="1"/>
        <pt x="604" y="532" on="0"/>
        <pt x="604" y="469" on="1"/>
        <pt x="604" y="435" on="0"/>
        <pt x="620" y="369" on="1"/>
        <pt x="647" y="253" on="0"/>
        <pt x="647" y="164" on="0"/>
        <pt x="639" y="117" on="0"/>
        <pt x="629" y="78" on="0"/>
        <pt x="620" y="55" on="1"/>
        <pt x="600" y="8" on="0"/>
        <pt x="512" y="-16" on="0"/>
        <pt x="468" y="-16" on="1"/>
        <pt x="386" y="-16" on="0"/>
        <pt x="313" y="26" on="1"/>
        <pt x="283" y="43" on="0"/>
        <pt x="283" y="75" on="1"/>
        <pt x="283" y="92" on="0"/>
        <pt x="286" y="108" on="1"/>
        <pt x="291" y="146" on="0"/>
        <pt x="307" y="152" on="1"/>
        <pt x="386" y="184" on="0"/>
        <pt x="546" y="184" on="0"/>
        <pt x="546" y="171" on="1"/>
        <pt x="546" y="162" on="0"/>
        <pt x="492" y="137" on="0"/>
        <pt x="483" y="132" on="1"/>
        <pt x="460" y="121" on="0"/>
        <pt x="443" y="102" on="1"/>
        <pt x="450" y="103" on="0"/>
        <pt x="462" y="106" on="1"/>
        <pt x="488" y="111" on="0"/>
        <pt x="503" y="111" on="1"/>
        <pt x="592" y="117" on="0"/>
        <pt x="592" y="262" on="1"/>
        <pt x="592" y="304" on="0"/>
        <pt x="564" y="468" on="0"/>
        <pt x="564" y="555" on="0"/>
        <pt x="575" y="593" on="1"/>
        <pt x="502" y="596" on="0"/>
        <pt x="426" y="602" on="1"/>
        <pt x="371" y="606" on="0"/>
        <pt x="368" y="643" on="1"/>
        <pt x="366" y="671" on="0"/>
        <pt x="366" y="684" on="1"/>
        <pt x="366" y="705" on="0"/>
        <pt x="384" y="705" on="1"/>
      </contour>
    </TTGlyph>
    <TTGlyph name="Iacute" xMin="20" yMin="-50" xMax="345" yMax="962">
      <component glyphName="I" x="0" y="0" flags="0x1004"/>
      <component glyphName="acute" x="23" y="271" flags="0x1004"/>
    </TTGlyph>
    <TTGlyph name="Ibreve" xMin="20" yMin="-50" xMax="341" yMax="947">
      <component glyphName="I" x="0" y="0" flags="0x1004"/>
      <component glyphName="breve" x="-39" y="271" flags="0x1004"/>
    </TTGlyph>
    <TTGlyph name="Icircumflex" xMin="20" yMin="-50" xMax="342" yMax="964">
      <component glyphName="I" x="0" y="0" flags="0x1004"/>
      <component glyphName="circumflex" x="-28" y="271" flags="0x1004"/>
    </TTGlyph>
    <TTGlyph name="Idieresis" xMin="20" yMin="-50" xMax="334" yMax="919">
      <component glyphName="I" x="0" y="0" flags="0x1004"/>
      <component glyphName="dieresis" x="-25" y="271" flags="0x1004"/>
    </TTGlyph>
    <TTGlyph name="Idotaccent" xMin="20" yMin="-50" xMax="273" yMax="922">
      <component glyphName="I" x="0" y="0" flags="0x1004"/>
      <component glyphName="dotaccent" x="-32" y="271" flags="0x1004"/>
    </TTGlyph>
    <TTGlyph name="Igrave" xMin="20" yMin="-50" xMax="273" yMax="964">
      <component glyphName="I" x="0" y="0" flags="0x1004"/>
      <component glyphName="grave" x="-60" y="271" flags="0x1004"/>
    </TTGlyph>
    <TTGlyph name="Imacron" xMin="20" yMin="-50" xMax="325" yMax="901">
      <component glyphName="I" x="0" y="0" flags="0x1004"/>
      <component glyphName="macron" x="-29" y="271" flags="0x1004"/>
    </TTGlyph>
    <TTGlyph name="Iogonek" xMin="20" yMin="-252" xMax="317" yMax="728">
      <contour>
        <pt x="207" y="634" on="1"/>
        <pt x="207" y="668" on="0"/>
        <pt x="179" y="668" on="0"/>
        <pt x="150" y="626" on="0"/>
        <pt x="150" y="610" on="0"/>
        <pt x="160" y="566" on="0"/>
        <pt x="160" y="519" on="0"/>
        <pt x="126" y="370" on="0"/>
        <pt x="105" y="321" on="0"/>
        <pt x="91" y="321" on="1"/>
        <pt x="80" y="321" on="0"/>
        <pt x="63" y="340" on="0"/>
        <pt x="40" y="378" on="0"/>
        <pt x="20" y="405" on="0"/>
        <pt x="20" y="439" on="0"/>
        <pt x="82" y="578" on="0"/>
        <pt x="103" y="619" on="1"/>
        <pt x="89" y="636" on="0"/>
        <pt x="89" y="642" on="1"/>
        <pt x="89" y="654" on="0"/>
        <pt x="106" y="654" on="1"/>
        <pt x="111" y="654" on="0"/>
        <pt x="119" y="650" on="1"/>
        <pt x="121" y="653" on="0"/>
        <pt x="135" y="680" on="0"/>
        <pt x="141" y="690" on="0"/>
        <pt x="156" y="711" on="0"/>
        <pt x="162" y="716" on="1"/>
        <pt x="181" y="728" on="0"/>
        <pt x="198" y="728" on="1"/>
        <pt x="273" y="728" on="0"/>
        <pt x="272" y="510" on="1"/>
        <pt x="272" y="504" on="0"/>
        <pt x="272" y="501" on="1"/>
        <pt x="272" y="274" on="0"/>
        <pt x="218" y="-28" on="1"/>
        <pt x="212" y="-50" on="0"/>
        <pt x="174" y="-50" on="0"/>
        <pt x="146" y="-100" on="0"/>
        <pt x="146" y="-150" on="0"/>
        <pt x="160" y="-158" on="1"/>
        <pt x="192" y="-158" on="0"/>
        <pt x="283" y="-115" on="0"/>
        <pt x="295" y="-115" on="1"/>
        <pt x="303" y="-115" on="0"/>
        <pt x="317" y="-155" on="0"/>
        <pt x="317" y="-167" on="1"/>
        <pt x="308" y="-205" on="0"/>
        <pt x="234" y="-252" on="0"/>
        <pt x="175" y="-252" on="1"/>
        <pt x="148" y="-252" on="0"/>
        <pt x="77" y="-183" on="0"/>
        <pt x="77" y="-109" on="0"/>
        <pt x="107" y="-22" on="0"/>
        <pt x="127" y="-2" on="1"/>
        <pt x="119" y="6" on="0"/>
        <pt x="67" y="62" on="1"/>
        <pt x="52" y="79" on="0"/>
        <pt x="52" y="109" on="0"/>
        <pt x="75" y="154" on="0"/>
        <pt x="101" y="154" on="0"/>
        <pt x="126" y="112" on="0"/>
        <pt x="142" y="112" on="0"/>
        <pt x="147" y="143" on="0"/>
        <pt x="150" y="171" on="1"/>
        <pt x="158" y="230" on="0"/>
        <pt x="207" y="530" on="0"/>
        <pt x="207" y="603" on="1"/>
      </contour>
    </TTGlyph>
    <TTGlyph name="Itilde" xMin="20" yMin="-50" xMax="334" yMax="918">
      <component glyphName="I" x="0" y="0" flags="0x1004"/>
      <component glyphName="tilde" x="-34" y="271" flags="0x1004"/>
    </TTGlyph>
    <TTGlyph name="J" xMin="-60" yMin="-6" xMax="526" yMax="715">
      <contour>
        <pt x="344" y="710" on="1"/>
        <pt x="461" y="711" on="1"/>
        <pt x="486" y="711" on="0"/>
        <pt x="526" y="686" on="0"/>
        <pt x="526" y="666" on="1"/>
        <pt x="526" y="626" on="0"/>
        <pt x="448" y="608" on="1"/>
        <pt x="408" y="599" on="0"/>
        <pt x="336" y="601" on="0"/>
        <pt x="301" y="601" on="1"/>
        <pt x="261" y="542" on="0"/>
        <pt x="261" y="479" on="1"/>
        <pt x="261" y="445" on="0"/>
        <pt x="276" y="379" on="1"/>
        <pt x="304" y="263" on="0"/>
        <pt x="304" y="174" on="0"/>
        <pt x="296" y="127" on="0"/>
        <pt x="286" y="88" on="0"/>
        <pt x="276" y="65" on="1"/>
        <pt x="257" y="18" on="0"/>
        <pt x="169" y="-6" on="0"/>
        <pt x="125" y="-6" on="1"/>
        <pt x="43" y="-6" on="0"/>
        <pt x="-30" y="36" on="1"/>
        <pt x="-60" y="53" on="0"/>
        <pt x="-60" y="85" on="1"/>
        <pt x="-60" y="102" on="0"/>
        <pt x="-57" y="118" on="1"/>
        <pt x="-52" y="156" on="0"/>
        <pt x="-36" y="162" on="1"/>
        <pt x="43" y="194" on="0"/>
        <pt x="203" y="194" on="0"/>
        <pt x="203" y="181" on="1"/>
        <pt x="203" y="172" on="0"/>
        <pt x="149" y="147" on="0"/>
        <pt x="140" y="142" on="1"/>
        <pt x="117" y="131" on="0"/>
        <pt x="100" y="112" on="1"/>
        <pt x="107" y="113" on="0"/>
        <pt x="119" y="116" on="1"/>
        <pt x="145" y="121" on="0"/>
        <pt x="160" y="121" on="1"/>
        <pt x="249" y="127" on="0"/>
        <pt x="249" y="272" on="1"/>
        <pt x="249" y="314" on="0"/>
        <pt x="221" y="478" on="0"/>
        <pt x="221" y="565" on="0"/>
        <pt x="232" y="603" on="1"/>
        <pt x="159" y="606" on="0"/>
        <pt x="83" y="612" on="1"/>
        <pt x="28" y="616" on="0"/>
        <pt x="25" y="653" on="1"/>
        <pt x="23" y="681" on="0"/>
        <pt x="23" y="694" on="1"/>
        <pt x="23" y="715" on="0"/>
        <pt x="41" y="715" on="1"/>
      </contour>
    </TTGlyph>
    <TTGlyph name="Jcircumflex" xMin="-60" yMin="-6" xMax="526" yMax="947">
      <component glyphName="J" x="0" y="0" flags="0x1004"/>
      <component glyphName="circumflex" x="41" y="254" flags="0x1004"/>
    </TTGlyph>
    <TTGlyph name="K" xMin="0" yMin="-35" xMax="572" yMax="737">
      <contour>
        <pt x="210" y="624" on="1"/>
        <pt x="210" y="619" on="0"/>
        <pt x="210" y="614" on="1"/>
        <pt x="210" y="601" on="1"/>
        <pt x="210" y="547" on="0"/>
        <pt x="117" y="438" on="0"/>
        <pt x="61" y="402" on="1"/>
        <pt x="47" y="394" on="0"/>
        <pt x="38" y="394" on="1"/>
        <pt x="21" y="394" on="0"/>
        <pt x="0" y="445" on="0"/>
        <pt x="0" y="480" on="0"/>
        <pt x="13" y="498" on="1"/>
        <pt x="99" y="612" on="0"/>
        <pt x="202" y="682" on="1"/>
        <pt x="222" y="696" on="0"/>
        <pt x="273" y="696" on="0"/>
        <pt x="303" y="680" on="1"/>
        <pt x="345" y="658" on="0"/>
        <pt x="345" y="596" on="1"/>
        <pt x="345" y="566" on="0"/>
        <pt x="318" y="479" on="0"/>
        <pt x="295" y="410" on="0"/>
        <pt x="293" y="403" on="1"/>
        <pt x="341" y="448" on="0"/>
        <pt x="407" y="552" on="1"/>
        <pt x="432" y="592" on="0"/>
        <pt x="442" y="607" on="1"/>
        <pt x="494" y="689" on="0"/>
        <pt x="505" y="712" on="1"/>
        <pt x="505" y="737" on="0"/>
        <pt x="520" y="737" on="1"/>
        <pt x="530" y="737" on="0"/>
        <pt x="557" y="712" on="0"/>
        <pt x="572" y="700" on="0"/>
        <pt x="572" y="686" on="0"/>
        <pt x="566" y="676" on="1"/>
        <pt x="491" y="506" on="0"/>
        <pt x="319" y="324" on="1"/>
        <pt x="317" y="322" on="0"/>
        <pt x="317" y="319" on="1"/>
        <pt x="317" y="304" on="0"/>
        <pt x="351" y="304" on="1"/>
        <pt x="400" y="291" on="0"/>
        <pt x="428" y="229" on="1"/>
        <pt x="432" y="221" on="0"/>
        <pt x="465" y="140" on="0"/>
        <pt x="475" y="119" on="1"/>
        <pt x="485" y="95" on="0"/>
        <pt x="500" y="95" on="1"/>
        <pt x="506" y="95" on="0"/>
        <pt x="522" y="105" on="0"/>
        <pt x="525" y="105" on="1"/>
        <pt x="540" y="105" on="0"/>
        <pt x="540" y="30" on="0"/>
        <pt x="530" y="3" on="0"/>
        <pt x="479" y="-35" on="0"/>
        <pt x="446" y="-35" on="0"/>
        <pt x="388" y="34" on="0"/>
        <pt x="330" y="206" on="0"/>
        <pt x="321" y="225" on="1"/>
        <pt x="310" y="251" on="0"/>
        <pt x="279" y="251" on="0"/>
        <pt x="258" y="216" on="0"/>
        <pt x="242" y="217" on="1"/>
        <pt x="227" y="147" on="0"/>
        <pt x="227" y="62" on="0"/>
        <pt x="233" y="26" on="0"/>
        <pt x="233" y="6" on="0"/>
        <pt x="205" y="-20" on="0"/>
        <pt x="178" y="-20" on="0"/>
        <pt x="158" y="2" on="1"/>
        <pt x="145" y="15" on="0"/>
        <pt x="144" y="25" on="1"/>
        <pt x="142" y="44" on="0"/>
        <pt x="138" y="106" on="0"/>
        <pt x="138" y="129" on="1"/>
        <pt x="138" y="206" on="0"/>
        <pt x="173" y="360" on="0"/>
        <pt x="205" y="457" on="1"/>
        <pt x="252" y="599" on="0"/>
        <pt x="252" y="639" on="0"/>
        <pt x="234" y="639" on="1"/>
        <pt x="212" y="639" on="0"/>
      </contour>
    </TTGlyph>
    <TTGlyph name="Kcommaaccent" xMin="0" yMin="-265" xMax="572" yMax="737">
      <contour>
        <pt x="210" y="624" on="1"/>
        <pt x="210" y="619" on="0"/>
        <pt x="210" y="614" on="1"/>
        <pt x="210" y="601" on="1"/>
        <pt x="210" y="547" on="0"/>
        <pt x="117" y="438" on="0"/>
        <pt x="61" y="402" on="1"/>
        <pt x="47" y="394" on="0"/>
        <pt x="38" y="394" on="1"/>
        <pt x="21" y="394" on="0"/>
        <pt x="0" y="445" on="0"/>
        <pt x="0" y="480" on="0"/>
        <pt x="13" y="498" on="1"/>
        <pt x="99" y="612" on="0"/>
        <pt x="202" y="682" on="1"/>
        <pt x="222" y="696" on="0"/>
        <pt x="273" y="696" on="0"/>
        <pt x="303" y="680" on="1"/>
        <pt x="345" y="658" on="0"/>
        <pt x="345" y="596" on="1"/>
        <pt x="345" y="566" on="0"/>
        <pt x="318" y="479" on="0"/>
        <pt x="295" y="410" on="0"/>
        <pt x="293" y="403" on="1"/>
        <pt x="341" y="448" on="0"/>
        <pt x="407" y="552" on="1"/>
        <pt x="432" y="592" on="0"/>
        <pt x="442" y="607" on="1"/>
        <pt x="494" y="689" on="0"/>
        <pt x="505" y="712" on="1"/>
        <pt x="505" y="737" on="0"/>
        <pt x="520" y="737" on="1"/>
        <pt x="530" y="737" on="0"/>
        <pt x="557" y="712" on="0"/>
        <pt x="572" y="700" on="0"/>
        <pt x="572" y="686" on="0"/>
        <pt x="566" y="676" on="1"/>
        <pt x="491" y="506" on="0"/>
        <pt x="319" y="324" on="1"/>
        <pt x="317" y="322" on="0"/>
        <pt x="317" y="319" on="1"/>
        <pt x="317" y="304" on="0"/>
        <pt x="351" y="304" on="1"/>
        <pt x="400" y="291" on="0"/>
        <pt x="428" y="229" on="1"/>
        <pt x="432" y="221" on="0"/>
        <pt x="465" y="140" on="0"/>
        <pt x="475" y="119" on="1"/>
        <pt x="485" y="95" on="0"/>
        <pt x="500" y="95" on="1"/>
        <pt x="506" y="95" on="0"/>
        <pt x="522" y="105" on="0"/>
        <pt x="525" y="105" on="1"/>
        <pt x="540" y="105" on="0"/>
        <pt x="540" y="30" on="0"/>
        <pt x="530" y="3" on="0"/>
        <pt x="479" y="-35" on="0"/>
        <pt x="446" y="-35" on="0"/>
        <pt x="388" y="34" on="0"/>
        <pt x="330" y="206" on="0"/>
        <pt x="321" y="225" on="1"/>
        <pt x="310" y="251" on="0"/>
        <pt x="279" y="251" on="0"/>
        <pt x="258" y="216" on="0"/>
        <pt x="242" y="217" on="1"/>
        <pt x="227" y="147" on="0"/>
        <pt x="227" y="62" on="0"/>
        <pt x="233" y="26" on="0"/>
        <pt x="233" y="6" on="0"/>
        <pt x="205" y="-20" on="0"/>
        <pt x="178" y="-20" on="0"/>
        <pt x="158" y="2" on="1"/>
        <pt x="145" y="15" on="0"/>
        <pt x="144" y="25" on="1"/>
        <pt x="142" y="44" on="0"/>
        <pt x="138" y="106" on="0"/>
        <pt x="138" y="129" on="1"/>
        <pt x="138" y="206" on="0"/>
        <pt x="173" y="360" on="0"/>
        <pt x="205" y="457" on="1"/>
        <pt x="252" y="599" on="0"/>
        <pt x="252" y="639" on="0"/>
        <pt x="234" y="639" on="1"/>
        <pt x="212" y="639" on="0"/>
      </contour>
      <contour>
        <pt x="251" y="-265" on="0"/>
        <pt x="240" y="-252" on="0"/>
        <pt x="240" y="-234" on="0"/>
        <pt x="289" y="-156" on="0"/>
        <pt x="289" y="-132" on="1"/>
        <pt x="277" y="-118" on="0"/>
        <pt x="277" y="-97" on="0"/>
        <pt x="310" y="-80" on="0"/>
        <pt x="344" y="-80" on="0"/>
        <pt x="371" y="-108" on="0"/>
        <pt x="371" y="-128" on="1"/>
        <pt x="371" y="-162" on="0"/>
        <pt x="283" y="-265" on="0"/>
        <pt x="260" y="-265" on="1"/>
      </contour>
    </TTGlyph>
    <TTGlyph name="L" xMin="-60" yMin="-9" xMax="385" yMax="712">
      <contour>
        <pt x="230" y="672" on="1"/>
        <pt x="226" y="697" on="1"/>
        <pt x="226" y="701" on="0"/>
        <pt x="232" y="701" on="0"/>
        <pt x="262" y="681" on="0"/>
        <pt x="303" y="655" on="0"/>
        <pt x="315" y="601" on="0"/>
        <pt x="315" y="496" on="0"/>
        <pt x="284" y="457" on="1"/>
        <pt x="273" y="443" on="0"/>
        <pt x="267" y="443" on="1"/>
        <pt x="255" y="443" on="0"/>
        <pt x="250" y="489" on="0"/>
        <pt x="240" y="489" on="1"/>
        <pt x="233" y="489" on="0"/>
        <pt x="232" y="474" on="1"/>
        <pt x="229" y="450" on="0"/>
        <pt x="229" y="385" on="1"/>
        <pt x="221" y="214" on="0"/>
        <pt x="171" y="107" on="1"/>
        <pt x="199" y="102" on="0"/>
        <pt x="223" y="102" on="1"/>
        <pt x="318" y="102" on="0"/>
        <pt x="363" y="154" on="1"/>
        <pt x="372" y="166" on="0"/>
        <pt x="385" y="166" on="0"/>
        <pt x="385" y="148" on="1"/>
        <pt x="385" y="97" on="0"/>
        <pt x="375" y="54" on="1"/>
        <pt x="360" y="-9" on="0"/>
        <pt x="224" y="-9" on="0"/>
        <pt x="130" y="40" on="1"/>
        <pt x="95" y="-8" on="0"/>
        <pt x="34" y="-8" on="0"/>
        <pt x="-60" y="87" on="0"/>
        <pt x="-60" y="116" on="1"/>
        <pt x="-60" y="132" on="0"/>
        <pt x="-25" y="150" on="0"/>
        <pt x="15" y="150" on="0"/>
        <pt x="83" y="128" on="1"/>
        <pt x="116" y="190" on="0"/>
        <pt x="132" y="348" on="0"/>
        <pt x="176" y="651" on="0"/>
        <pt x="184" y="712" on="0"/>
        <pt x="202" y="712" on="0"/>
        <pt x="230" y="666" on="1"/>
      </contour>
      <contour>
        <pt x="51" y="83" on="1"/>
        <pt x="33" y="91" on="1"/>
        <pt x="30" y="91" on="0"/>
        <pt x="30" y="70" on="0"/>
        <pt x="38" y="70" on="1"/>
        <pt x="42" y="70" on="0"/>
      </contour>
    </TTGlyph>
    <TTGlyph name="Lacute" xMin="-60" yMin="-9" xMax="385" yMax="946">
      <component glyphName="L" x="0" y="0" flags="0x1004"/>
      <component glyphName="acute" x="61" y="255" flags="0x1004"/>
    </TTGlyph>
    <TTGlyph name="Lcaron" xMin="-60" yMin="-9" xMax="447" yMax="712">
      <contour>
        <pt x="230" y="672" on="1"/>
        <pt x="226" y="697" on="1"/>
        <pt x="226" y="701" on="0"/>
        <pt x="232" y="701" on="0"/>
        <pt x="262" y="681" on="0"/>
        <pt x="303" y="655" on="0"/>
        <pt x="315" y="601" on="0"/>
        <pt x="315" y="496" on="0"/>
        <pt x="284" y="457" on="1"/>
        <pt x="273" y="443" on="0"/>
        <pt x="267" y="443" on="1"/>
        <pt x="255" y="443" on="0"/>
        <pt x="250" y="489" on="0"/>
        <pt x="240" y="489" on="1"/>
        <pt x="233" y="489" on="0"/>
        <pt x="232" y="474" on="1"/>
        <pt x="229" y="450" on="0"/>
        <pt x="229" y="385" on="1"/>
        <pt x="221" y="214" on="0"/>
        <pt x="171" y="107" on="1"/>
        <pt x="199" y="102" on="0"/>
        <pt x="223" y="102" on="1"/>
        <pt x="318" y="102" on="0"/>
        <pt x="363" y="154" on="1"/>
        <pt x="372" y="166" on="0"/>
        <pt x="385" y="166" on="0"/>
        <pt x="385" y="148" on="1"/>
        <pt x="385" y="97" on="0"/>
        <pt x="375" y="54" on="1"/>
        <pt x="360" y="-9" on="0"/>
        <pt x="224" y="-9" on="0"/>
        <pt x="130" y="40" on="1"/>
        <pt x="95" y="-8" on="0"/>
        <pt x="34" y="-8" on="0"/>
        <pt x="-60" y="87" on="0"/>
        <pt x="-60" y="116" on="1"/>
        <pt x="-60" y="132" on="0"/>
        <pt x="-25" y="150" on="0"/>
        <pt x="15" y="150" on="0"/>
        <pt x="83" y="128" on="1"/>
        <pt x="116" y="190" on="0"/>
        <pt x="132" y="348" on="0"/>
        <pt x="176" y="651" on="0"/>
        <pt x="184" y="712" on="0"/>
        <pt x="202" y="712" on="0"/>
        <pt x="230" y="666" on="1"/>
      </contour>
      <contour>
        <pt x="51" y="83" on="1"/>
        <pt x="33" y="91" on="1"/>
        <pt x="30" y="91" on="0"/>
        <pt x="30" y="70" on="0"/>
        <pt x="38" y="70" on="1"/>
        <pt x="42" y="70" on="0"/>
      </contour>
      <contour>
        <pt x="447" y="594" on="0"/>
        <pt x="403" y="490" on="0"/>
        <pt x="362" y="490" on="0"/>
        <pt x="357" y="524" on="1"/>
        <pt x="357" y="538" on="0"/>
        <pt x="373" y="625" on="0"/>
        <pt x="373" y="651" on="0"/>
        <pt x="358" y="687" on="0"/>
        <pt x="358" y="694" on="1"/>
        <pt x="358" y="706" on="0"/>
        <pt x="374" y="706" on="1"/>
        <pt x="403" y="706" on="0"/>
        <pt x="447" y="653" on="0"/>
        <pt x="447" y="634" on="1"/>
      </contour>
    </TTGlyph>
    <TTGlyph name="Lcommaaccent" xMin="-60" yMin="-265" xMax="385" yMax="712">
      <contour>
        <pt x="230" y="672" on="1"/>
        <pt x="226" y="697" on="1"/>
        <pt x="226" y="701" on="0"/>
        <pt x="232" y="701" on="0"/>
        <pt x="262" y="681" on="0"/>
        <pt x="303" y="655" on="0"/>
        <pt x="315" y="601" on="0"/>
        <pt x="315" y="496" on="0"/>
        <pt x="284" y="457" on="1"/>
        <pt x="273" y="443" on="0"/>
        <pt x="267" y="443" on="1"/>
        <pt x="255" y="443" on="0"/>
        <pt x="250" y="489" on="0"/>
        <pt x="240" y="489" on="1"/>
        <pt x="233" y="489" on="0"/>
        <pt x="232" y="474" on="1"/>
        <pt x="229" y="450" on="0"/>
        <pt x="229" y="385" on="1"/>
        <pt x="221" y="214" on="0"/>
        <pt x="171" y="107" on="1"/>
        <pt x="199" y="102" on="0"/>
        <pt x="223" y="102" on="1"/>
        <pt x="318" y="102" on="0"/>
        <pt x="363" y="154" on="1"/>
        <pt x="372" y="166" on="0"/>
        <pt x="385" y="166" on="0"/>
        <pt x="385" y="148" on="1"/>
        <pt x="385" y="97" on="0"/>
        <pt x="375" y="54" on="1"/>
        <pt x="360" y="-9" on="0"/>
        <pt x="224" y="-9" on="0"/>
        <pt x="130" y="40" on="1"/>
        <pt x="95" y="-8" on="0"/>
        <pt x="34" y="-8" on="0"/>
        <pt x="-60" y="87" on="0"/>
        <pt x="-60" y="116" on="1"/>
        <pt x="-60" y="132" on="0"/>
        <pt x="-25" y="150" on="0"/>
        <pt x="15" y="150" on="0"/>
        <pt x="83" y="128" on="1"/>
        <pt x="116" y="190" on="0"/>
        <pt x="132" y="348" on="0"/>
        <pt x="176" y="651" on="0"/>
        <pt x="184" y="712" on="0"/>
        <pt x="202" y="712" on="0"/>
        <pt x="230" y="666" on="1"/>
      </contour>
      <contour>
        <pt x="51" y="83" on="1"/>
        <pt x="33" y="91" on="1"/>
        <pt x="30" y="91" on="0"/>
        <pt x="30" y="70" on="0"/>
        <pt x="38" y="70" on="1"/>
        <pt x="42" y="70" on="0"/>
      </contour>
      <contour>
        <pt x="103" y="-265" on="0"/>
        <pt x="92" y="-252" on="0"/>
        <pt x="92" y="-234" on="0"/>
        <pt x="141" y="-156" on="0"/>
        <pt x="141" y="-132" on="1"/>
        <pt x="129" y="-118" on="0"/>
        <pt x="129" y="-97" on="0"/>
        <pt x="162" y="-80" on="0"/>
        <pt x="196" y="-80" on="0"/>
        <pt x="223" y="-108" on="0"/>
        <pt x="223" y="-128" on="1"/>
        <pt x="223" y="-162" on="0"/>
        <pt x="135" y="-265" on="0"/>
        <pt x="112" y="-265" on="1"/>
      </contour>
    </TTGlyph>
    <TTGlyph name="Ldot" xMin="-60" yMin="-9" xMax="430" yMax="712">
      <contour>
        <pt x="230" y="672" on="1"/>
        <pt x="226" y="697" on="1"/>
        <pt x="226" y="701" on="0"/>
        <pt x="230" y="701" on="0"/>
        <pt x="238" y="697" on="1"/>
        <pt x="262" y="681" on="0"/>
        <pt x="303" y="655" on="0"/>
        <pt x="315" y="601" on="0"/>
        <pt x="315" y="496" on="0"/>
        <pt x="284" y="457" on="1"/>
        <pt x="273" y="443" on="0"/>
        <pt x="267" y="443" on="1"/>
        <pt x="255" y="443" on="0"/>
        <pt x="250" y="489" on="0"/>
        <pt x="240" y="489" on="1"/>
        <pt x="233" y="489" on="0"/>
        <pt x="232" y="474" on="1"/>
        <pt x="229" y="450" on="0"/>
        <pt x="229" y="385" on="1"/>
        <pt x="221" y="214" on="0"/>
        <pt x="171" y="107" on="1"/>
        <pt x="199" y="102" on="0"/>
        <pt x="223" y="102" on="1"/>
        <pt x="310" y="102" on="0"/>
        <pt x="363" y="154" on="1"/>
        <pt x="372" y="166" on="0"/>
        <pt x="385" y="166" on="0"/>
        <pt x="385" y="148" on="1"/>
        <pt x="385" y="97" on="0"/>
        <pt x="375" y="54" on="1"/>
        <pt x="360" y="-9" on="0"/>
        <pt x="224" y="-9" on="0"/>
        <pt x="130" y="40" on="1"/>
        <pt x="95" y="-8" on="0"/>
        <pt x="34" y="-8" on="0"/>
        <pt x="-60" y="87" on="0"/>
        <pt x="-60" y="116" on="1"/>
        <pt x="-60" y="132" on="0"/>
        <pt x="-25" y="150" on="0"/>
        <pt x="15" y="150" on="0"/>
        <pt x="83" y="128" on="1"/>
        <pt x="116" y="190" on="0"/>
        <pt x="132" y="348" on="0"/>
        <pt x="176" y="651" on="0"/>
        <pt x="184" y="712" on="0"/>
        <pt x="202" y="712" on="0"/>
        <pt x="230" y="666" on="1"/>
      </contour>
      <contour>
        <pt x="51" y="83" on="1"/>
        <pt x="33" y="91" on="1"/>
        <pt x="30" y="91" on="0"/>
        <pt x="30" y="70" on="0"/>
        <pt x="38" y="70" on="1"/>
        <pt x="42" y="70" on="0"/>
      </contour>
      <contour>
        <pt x="430" y="267" on="0"/>
        <pt x="400" y="221" on="0"/>
        <pt x="350" y="221" on="0"/>
        <pt x="323" y="261" on="0"/>
        <pt x="323" y="328" on="0"/>
        <pt x="350" y="376" on="0"/>
        <pt x="396" y="376" on="0"/>
        <pt x="430" y="337" on="0"/>
      </contour>
    </TTGlyph>
    <TTGlyph name="Lslash" xMin="-60" yMin="-9" xMax="385" yMax="712">
      <contour>
        <pt x="230" y="672" on="1"/>
        <pt x="226" y="697" on="1"/>
        <pt x="226" y="701" on="0"/>
        <pt x="230" y="701" on="0"/>
        <pt x="238" y="697" on="1"/>
        <pt x="262" y="681" on="0"/>
        <pt x="303" y="655" on="0"/>
        <pt x="315" y="601" on="0"/>
        <pt x="315" y="496" on="0"/>
        <pt x="284" y="457" on="1"/>
        <pt x="273" y="443" on="0"/>
        <pt x="267" y="443" on="1"/>
        <pt x="255" y="443" on="0"/>
        <pt x="250" y="489" on="0"/>
        <pt x="240" y="489" on="1"/>
        <pt x="233" y="489" on="0"/>
        <pt x="232" y="474" on="1"/>
        <pt x="229" y="450" on="0"/>
        <pt x="229" y="385" on="1"/>
        <pt x="228" y="371" on="0"/>
        <pt x="226" y="345" on="1"/>
        <pt x="247" y="352" on="0"/>
        <pt x="275" y="364" on="1"/>
        <pt x="277" y="370" on="0"/>
        <pt x="287" y="383" on="0"/>
        <pt x="292" y="383" on="1"/>
        <pt x="300" y="384" on="0"/>
        <pt x="316" y="350" on="0"/>
        <pt x="314" y="323" on="0"/>
        <pt x="305" y="307" on="0"/>
        <pt x="281" y="295" on="0"/>
        <pt x="266" y="289" on="0"/>
        <pt x="225" y="278" on="0"/>
        <pt x="218" y="276" on="1"/>
        <pt x="205" y="181" on="0"/>
        <pt x="171" y="107" on="1"/>
        <pt x="199" y="102" on="0"/>
        <pt x="223" y="102" on="1"/>
        <pt x="310" y="102" on="0"/>
        <pt x="363" y="154" on="1"/>
        <pt x="372" y="166" on="0"/>
        <pt x="385" y="166" on="0"/>
        <pt x="385" y="148" on="1"/>
        <pt x="385" y="97" on="0"/>
        <pt x="375" y="54" on="1"/>
        <pt x="360" y="-9" on="0"/>
        <pt x="224" y="-9" on="0"/>
        <pt x="130" y="40" on="1"/>
        <pt x="95" y="-8" on="0"/>
        <pt x="34" y="-8" on="0"/>
        <pt x="-60" y="87" on="0"/>
        <pt x="-60" y="116" on="1"/>
        <pt x="-60" y="132" on="0"/>
        <pt x="-25" y="150" on="0"/>
        <pt x="15" y="150" on="0"/>
        <pt x="83" y="128" on="1"/>
        <pt x="111" y="181" on="0"/>
        <pt x="121" y="246" on="1"/>
        <pt x="109" y="243" on="0"/>
        <pt x="73" y="226" on="0"/>
        <pt x="64" y="224" on="1"/>
        <pt x="48" y="220" on="0"/>
        <pt x="41" y="261" on="0"/>
        <pt x="53" y="286" on="0"/>
        <pt x="60" y="288" on="1"/>
        <pt x="74" y="294" on="0"/>
        <pt x="128" y="311" on="1"/>
        <pt x="136" y="381" on="0"/>
        <pt x="174" y="636" on="0"/>
        <pt x="184" y="712" on="0"/>
        <pt x="202" y="712" on="0"/>
        <pt x="230" y="666" on="1"/>
      </contour>
      <contour>
        <pt x="51" y="83" on="1"/>
        <pt x="33" y="91" on="1"/>
        <pt x="30" y="91" on="0"/>
        <pt x="30" y="70" on="0"/>
        <pt x="38" y="70" on="1"/>
        <pt x="42" y="70" on="0"/>
      </contour>
    </TTGlyph>
    <TTGlyph name="M" xMin="10" yMin="-20" xMax="715" yMax="717">
      <contour>
        <pt x="710" y="322" on="1"/>
        <pt x="715" y="322" on="0"/>
        <pt x="715" y="300" on="0"/>
        <pt x="714" y="289" on="1"/>
        <pt x="698" y="99" on="0"/>
        <pt x="619" y="11" on="1"/>
        <pt x="593" y="-18" on="0"/>
        <pt x="534" y="-20" on="1"/>
        <pt x="462" y="6" on="0"/>
        <pt x="462" y="107" on="1"/>
        <pt x="462" y="125" on="0"/>
        <pt x="470" y="180" on="0"/>
        <pt x="533" y="540" on="1"/>
        <pt x="445" y="362" on="0"/>
        <pt x="420" y="106" on="1"/>
        <pt x="417" y="76" on="0"/>
        <pt x="415" y="61" on="1"/>
        <pt x="411" y="29" on="0"/>
        <pt x="388" y="29" on="1"/>
        <pt x="357" y="29" on="0"/>
        <pt x="322" y="76" on="1"/>
        <pt x="310" y="92" on="0"/>
        <pt x="310" y="140" on="0"/>
        <pt x="313" y="198" on="0"/>
        <pt x="321" y="268" on="0"/>
        <pt x="325" y="310" on="0"/>
        <pt x="340" y="396" on="0"/>
        <pt x="344" y="421" on="0"/>
        <pt x="363" y="523" on="0"/>
        <pt x="364" y="529" on="1"/>
        <pt x="349" y="514" on="0"/>
        <pt x="326" y="454" on="0"/>
        <pt x="312" y="417" on="0"/>
        <pt x="298" y="365" on="0"/>
        <pt x="288" y="327" on="0"/>
        <pt x="275" y="273" on="0"/>
        <pt x="272" y="259" on="1"/>
        <pt x="265" y="233" on="0"/>
        <pt x="233" y="91" on="0"/>
        <pt x="224" y="54" on="0"/>
        <pt x="219" y="31" on="0"/>
        <pt x="216" y="22" on="0"/>
        <pt x="212" y="14" on="1"/>
        <pt x="204" y="0" on="0"/>
        <pt x="169" y="0" on="0"/>
        <pt x="144" y="25" on="0"/>
        <pt x="136" y="44" on="0"/>
        <pt x="123" y="79" on="0"/>
        <pt x="123" y="99" on="0"/>
        <pt x="135" y="149" on="0"/>
        <pt x="152" y="223" on="0"/>
        <pt x="157" y="244" on="0"/>
        <pt x="172" y="312" on="0"/>
        <pt x="178" y="340" on="0"/>
        <pt x="190" y="401" on="0"/>
        <pt x="196" y="436" on="0"/>
        <pt x="206" y="491" on="0"/>
        <pt x="209" y="512" on="1"/>
        <pt x="219" y="578" on="0"/>
        <pt x="221" y="604" on="1"/>
        <pt x="221" y="611" on="1"/>
        <pt x="221" y="629" on="0"/>
        <pt x="205" y="629" on="0"/>
        <pt x="169" y="573" on="0"/>
        <pt x="155" y="543" on="0"/>
        <pt x="152" y="517" on="1"/>
        <pt x="138" y="378" on="0"/>
        <pt x="80" y="291" on="1"/>
        <pt x="73" y="281" on="0"/>
        <pt x="43" y="281" on="0"/>
        <pt x="10" y="313" on="0"/>
        <pt x="10" y="330" on="1"/>
        <pt x="10" y="432" on="0"/>
        <pt x="79" y="566" on="1"/>
        <pt x="106" y="617" on="0"/>
        <pt x="123" y="717" on="1"/>
        <pt x="150" y="677" on="0"/>
        <pt x="163" y="651" on="0"/>
        <pt x="171" y="651" on="1"/>
        <pt x="175" y="651" on="0"/>
        <pt x="203" y="675" on="0"/>
        <pt x="258" y="675" on="0"/>
        <pt x="292" y="647" on="0"/>
        <pt x="301" y="611" on="0"/>
        <pt x="303" y="575" on="1"/>
        <pt x="309" y="580" on="0"/>
        <pt x="324" y="594" on="1"/>
        <pt x="356" y="622" on="0"/>
        <pt x="405" y="622" on="0"/>
        <pt x="444" y="569" on="0"/>
        <pt x="442" y="541" on="1"/>
        <pt x="454" y="555" on="0"/>
        <pt x="486" y="610" on="1"/>
        <pt x="509" y="646" on="0"/>
        <pt x="547" y="646" on="1"/>
        <pt x="610" y="646" on="0"/>
        <pt x="610" y="589" on="1"/>
        <pt x="610" y="563" on="0"/>
        <pt x="562" y="327" on="0"/>
        <pt x="540" y="174" on="0"/>
        <pt x="540" y="106" on="1"/>
        <pt x="540" y="87" on="1"/>
        <pt x="573" y="115" on="0"/>
        <pt x="636" y="200" on="0"/>
        <pt x="666" y="251" on="0"/>
        <pt x="698" y="308" on="1"/>
        <pt x="707" y="322" on="0"/>
      </contour>
    </TTGlyph>
    <TTGlyph name="N" xMin="10" yMin="-48" xMax="591" yMax="718">
      <contour>
        <pt x="308" y="22" on="1"/>
        <pt x="310" y="4" on="1"/>
        <pt x="310" y="-17" on="0"/>
        <pt x="277" y="-48" on="0"/>
        <pt x="233" y="-48" on="0"/>
        <pt x="186" y="11" on="0"/>
        <pt x="186" y="32" on="1"/>
        <pt x="186" y="57" on="0"/>
        <pt x="199" y="83" on="1"/>
        <pt x="200" y="90" on="0"/>
        <pt x="212" y="216" on="0"/>
        <pt x="263" y="515" on="0"/>
        <pt x="270" y="569" on="1"/>
        <pt x="270" y="579" on="1"/>
        <pt x="270" y="603" on="0"/>
        <pt x="235" y="603" on="0"/>
        <pt x="217" y="585" on="1"/>
        <pt x="219" y="581" on="0"/>
        <pt x="219" y="557" on="0"/>
        <pt x="165" y="428" on="0"/>
        <pt x="115" y="297" on="1"/>
        <pt x="100" y="261" on="0"/>
        <pt x="50" y="261" on="0"/>
        <pt x="10" y="321" on="0"/>
        <pt x="10" y="364" on="0"/>
        <pt x="17" y="383" on="1"/>
        <pt x="42" y="443" on="0"/>
        <pt x="106" y="562" on="0"/>
        <pt x="143" y="632" on="0"/>
        <pt x="162" y="664" on="0"/>
        <pt x="182" y="664" on="0"/>
        <pt x="190" y="662" on="1"/>
        <pt x="209" y="685" on="0"/>
        <pt x="273" y="685" on="0"/>
        <pt x="338" y="645" on="0"/>
        <pt x="338" y="565" on="1"/>
        <pt x="338" y="537" on="0"/>
        <pt x="328" y="432" on="0"/>
        <pt x="327" y="418" on="1"/>
        <pt x="408" y="649" on="0"/>
        <pt x="471" y="707" on="1"/>
        <pt x="482" y="718" on="0"/>
        <pt x="502" y="718" on="1"/>
        <pt x="547" y="718" on="0"/>
        <pt x="570" y="683" on="0"/>
        <pt x="570" y="590" on="0"/>
        <pt x="552" y="482" on="0"/>
        <pt x="514" y="317" on="0"/>
        <pt x="503" y="264" on="0"/>
        <pt x="503" y="214" on="0"/>
        <pt x="506" y="214" on="1"/>
        <pt x="514" y="214" on="0"/>
        <pt x="579" y="321" on="0"/>
        <pt x="591" y="321" on="0"/>
        <pt x="591" y="302" on="1"/>
        <pt x="591" y="235" on="0"/>
        <pt x="560" y="85" on="0"/>
        <pt x="503" y="7" on="0"/>
        <pt x="480" y="7" on="1"/>
        <pt x="470" y="7" on="0"/>
        <pt x="440" y="30" on="0"/>
        <pt x="437" y="33" on="1"/>
        <pt x="404" y="69" on="0"/>
        <pt x="404" y="138" on="1"/>
        <pt x="404" y="199" on="0"/>
        <pt x="466" y="500" on="1"/>
        <pt x="485" y="596" on="0"/>
        <pt x="492" y="633" on="1"/>
        <pt x="417" y="507" on="0"/>
        <pt x="334" y="226" on="0"/>
        <pt x="311" y="47" on="1"/>
      </contour>
    </TTGlyph>
    <TTGlyph name="Nacute" xMin="10" yMin="-48" xMax="591" yMax="947">
      <component glyphName="N" x="0" y="0" flags="0x1004"/>
      <component glyphName="acute" x="214" y="256" flags="0x1004"/>
    </TTGlyph>
    <TTGlyph name="Ncaron" xMin="10" yMin="-48" xMax="591" yMax="949">
      <component glyphName="N" x="0" y="0" flags="0x1004"/>
      <component glyphName="caron" x="159" y="256" flags="0x1004"/>
    </TTGlyph>
    <TTGlyph name="Ncommaaccent" xMin="10" yMin="-265" xMax="591" yMax="718">
      <contour>
        <pt x="308" y="22" on="1"/>
        <pt x="310" y="4" on="1"/>
        <pt x="310" y="-17" on="0"/>
        <pt x="277" y="-48" on="0"/>
        <pt x="233" y="-48" on="0"/>
        <pt x="186" y="11" on="0"/>
        <pt x="186" y="32" on="1"/>
        <pt x="186" y="57" on="0"/>
        <pt x="199" y="83" on="1"/>
        <pt x="200" y="90" on="0"/>
        <pt x="212" y="216" on="0"/>
        <pt x="263" y="515" on="0"/>
        <pt x="270" y="569" on="1"/>
        <pt x="270" y="579" on="1"/>
        <pt x="270" y="603" on="0"/>
        <pt x="235" y="603" on="0"/>
        <pt x="217" y="585" on="1"/>
        <pt x="219" y="581" on="0"/>
        <pt x="219" y="557" on="0"/>
        <pt x="165" y="428" on="0"/>
        <pt x="115" y="297" on="1"/>
        <pt x="100" y="261" on="0"/>
        <pt x="50" y="261" on="0"/>
        <pt x="10" y="321" on="0"/>
        <pt x="10" y="364" on="0"/>
        <pt x="17" y="383" on="1"/>
        <pt x="42" y="443" on="0"/>
        <pt x="106" y="562" on="0"/>
        <pt x="143" y="632" on="0"/>
        <pt x="162" y="664" on="0"/>
        <pt x="182" y="664" on="0"/>
        <pt x="190" y="662" on="1"/>
        <pt x="209" y="685" on="0"/>
        <pt x="273" y="685" on="0"/>
        <pt x="338" y="645" on="0"/>
        <pt x="338" y="565" on="1"/>
        <pt x="338" y="537" on="0"/>
        <pt x="328" y="432" on="0"/>
        <pt x="327" y="418" on="1"/>
        <pt x="408" y="649" on="0"/>
        <pt x="471" y="707" on="1"/>
        <pt x="482" y="718" on="0"/>
        <pt x="502" y="718" on="1"/>
        <pt x="547" y="718" on="0"/>
        <pt x="570" y="683" on="0"/>
        <pt x="570" y="590" on="0"/>
        <pt x="552" y="482" on="0"/>
        <pt x="514" y="317" on="0"/>
        <pt x="503" y="264" on="0"/>
        <pt x="503" y="214" on="0"/>
        <pt x="506" y="214" on="1"/>
        <pt x="514" y="214" on="0"/>
        <pt x="579" y="321" on="0"/>
        <pt x="591" y="321" on="0"/>
        <pt x="591" y="302" on="1"/>
        <pt x="591" y="235" on="0"/>
        <pt x="560" y="85" on="0"/>
        <pt x="503" y="7" on="0"/>
        <pt x="480" y="7" on="1"/>
        <pt x="470" y="7" on="0"/>
        <pt x="440" y="30" on="0"/>
        <pt x="437" y="33" on="1"/>
        <pt x="404" y="69" on="0"/>
        <pt x="404" y="138" on="1"/>
        <pt x="404" y="199" on="0"/>
        <pt x="466" y="500" on="1"/>
        <pt x="485" y="596" on="0"/>
        <pt x="492" y="633" on="1"/>
        <pt x="417" y="507" on="0"/>
        <pt x="334" y="226" on="0"/>
        <pt x="311" y="47" on="1"/>
      </contour>
      <contour>
        <pt x="291" y="-265" on="0"/>
        <pt x="280" y="-252" on="0"/>
        <pt x="280" y="-234" on="0"/>
        <pt x="329" y="-156" on="0"/>
        <pt x="329" y="-132" on="1"/>
        <pt x="317" y="-118" on="0"/>
        <pt x="317" y="-97" on="0"/>
        <pt x="350" y="-80" on="0"/>
        <pt x="384" y="-80" on="0"/>
        <pt x="411" y="-108" on="0"/>
        <pt x="411" y="-128" on="1"/>
        <pt x="411" y="-162" on="0"/>
        <pt x="323" y="-265" on="0"/>
        <pt x="300" y="-265" on="1"/>
      </contour>
    </TTGlyph>
    <TTGlyph name="Ntilde" xMin="10" yMin="-48" xMax="591" yMax="903">
      <component glyphName="N" x="0" y="0" flags="0x1004"/>
      <component glyphName="tilde" x="157" y="256" flags="0x1004"/>
    </TTGlyph>
    <TTGlyph name="O" xMin="30" yMin="-20" xMax="427" yMax="709">
      <contour>
        <pt x="427" y="398" on="1"/>
        <pt x="427" y="317" on="0"/>
        <pt x="367" y="261" on="1"/>
        <pt x="328" y="115" on="0"/>
        <pt x="272" y="29" on="1"/>
        <pt x="239" y="-20" on="0"/>
        <pt x="195" y="-20" on="1"/>
        <pt x="172" y="-20" on="0"/>
        <pt x="141" y="-2" on="1"/>
        <pt x="58" y="49" on="0"/>
        <pt x="30" y="183" on="0"/>
        <pt x="30" y="256" on="1"/>
        <pt x="30" y="446" on="0"/>
        <pt x="126" y="646" on="1"/>
        <pt x="138" y="669" on="0"/>
        <pt x="151" y="669" on="1"/>
        <pt x="153" y="669" on="0"/>
        <pt x="198" y="651" on="1"/>
        <pt x="223" y="709" on="0"/>
        <pt x="300" y="709" on="1"/>
        <pt x="340" y="709" on="0"/>
        <pt x="359" y="694" on="1"/>
        <pt x="402" y="660" on="0"/>
        <pt x="402" y="522" on="1"/>
        <pt x="402" y="476" on="0"/>
        <pt x="395" y="415" on="1"/>
        <pt x="419" y="463" on="1"/>
        <pt x="427" y="429" on="0"/>
      </contour>
      <contour>
        <pt x="321" y="594" on="1"/>
        <pt x="321" y="611" on="0"/>
        <pt x="306" y="643" on="0"/>
        <pt x="280" y="643" on="0"/>
        <pt x="261" y="621" on="0"/>
        <pt x="249" y="601" on="1"/>
        <pt x="192" y="509" on="0"/>
        <pt x="192" y="378" on="1"/>
        <pt x="192" y="345" on="0"/>
        <pt x="229" y="274" on="0"/>
        <pt x="259" y="274" on="1"/>
        <pt x="264" y="274" on="0"/>
        <pt x="272" y="276" on="1"/>
        <pt x="321" y="423" on="0"/>
      </contour>
      <contour>
        <pt x="254" y="228" on="1"/>
        <pt x="223" y="236" on="0"/>
        <pt x="171" y="277" on="0"/>
        <pt x="159" y="305" on="1"/>
        <pt x="137" y="363" on="0"/>
        <pt x="137" y="453" on="0"/>
        <pt x="143" y="483" on="1"/>
        <pt x="100" y="394" on="0"/>
        <pt x="100" y="171" on="0"/>
        <pt x="125" y="89" on="1"/>
        <pt x="134" y="59" on="0"/>
        <pt x="153" y="59" on="1"/>
        <pt x="166" y="59" on="0"/>
        <pt x="177" y="77" on="1"/>
        <pt x="220" y="137" on="0"/>
      </contour>
    </TTGlyph>
    <TTGlyph name="OE" xMin="30" yMin="-36" xMax="703" yMax="710">
      <contour>
        <pt x="396" y="443" on="1"/>
        <pt x="396" y="409" on="0"/>
        <pt x="535" y="409" on="1"/>
        <pt x="552" y="409" on="1"/>
        <pt x="579" y="424" on="0"/>
        <pt x="586" y="424" on="1"/>
        <pt x="603" y="424" on="0"/>
        <pt x="654" y="369" on="0"/>
        <pt x="654" y="333" on="1"/>
        <pt x="654" y="321" on="0"/>
        <pt x="641" y="321" on="1"/>
        <pt x="637" y="321" on="0"/>
        <pt x="604" y="327" on="1"/>
        <pt x="594" y="324" on="0"/>
        <pt x="539" y="308" on="0"/>
        <pt x="519" y="302" on="0"/>
        <pt x="473" y="286" on="0"/>
        <pt x="452" y="275" on="0"/>
        <pt x="415" y="255" on="0"/>
        <pt x="404" y="244" on="1"/>
        <pt x="365" y="207" on="0"/>
        <pt x="351" y="186" on="1"/>
        <pt x="325" y="150" on="0"/>
        <pt x="325" y="73" on="0"/>
        <pt x="361" y="34" on="0"/>
        <pt x="444" y="34" on="0"/>
        <pt x="559" y="75" on="0"/>
        <pt x="559" y="114" on="1"/>
        <pt x="559" y="127" on="0"/>
        <pt x="547" y="152" on="0"/>
        <pt x="520" y="152" on="0"/>
        <pt x="383" y="71" on="0"/>
        <pt x="375" y="71" on="0"/>
        <pt x="375" y="84" on="0"/>
        <pt x="382" y="100" on="1"/>
        <pt x="408" y="149" on="0"/>
        <pt x="504" y="207" on="0"/>
        <pt x="607" y="207" on="0"/>
        <pt x="678" y="147" on="0"/>
        <pt x="678" y="70" on="0"/>
        <pt x="658" y="44" on="1"/>
        <pt x="597" y="-36" on="0"/>
        <pt x="426" y="-36" on="1"/>
        <pt x="327" y="-36" on="0"/>
        <pt x="276" y="35" on="1"/>
        <pt x="274" y="33" on="0"/>
        <pt x="272" y="29" on="1"/>
        <pt x="239" y="-20" on="0"/>
        <pt x="195" y="-20" on="1"/>
        <pt x="172" y="-20" on="0"/>
        <pt x="141" y="-2" on="1"/>
        <pt x="58" y="49" on="0"/>
        <pt x="30" y="183" on="0"/>
        <pt x="30" y="256" on="1"/>
        <pt x="30" y="446" on="0"/>
        <pt x="126" y="646" on="1"/>
        <pt x="138" y="669" on="0"/>
        <pt x="151" y="669" on="1"/>
        <pt x="153" y="669" on="0"/>
        <pt x="198" y="651" on="1"/>
        <pt x="223" y="709" on="0"/>
        <pt x="305" y="709" on="1"/>
        <pt x="341" y="708" on="0"/>
        <pt x="360" y="694" on="1"/>
        <pt x="394" y="666" on="0"/>
        <pt x="394" y="587" on="1"/>
        <pt x="430" y="617" on="0"/>
        <pt x="553" y="689" on="0"/>
        <pt x="586" y="710" on="0"/>
        <pt x="622" y="710" on="0"/>
        <pt x="645" y="683" on="1"/>
        <pt x="657" y="685" on="0"/>
        <pt x="662" y="685" on="1"/>
        <pt x="685" y="685" on="0"/>
        <pt x="695" y="665" on="1"/>
        <pt x="703" y="646" on="0"/>
        <pt x="703" y="640" on="1"/>
        <pt x="703" y="604" on="0"/>
        <pt x="550" y="543" on="1"/>
        <pt x="544" y="541" on="0"/>
        <pt x="542" y="541" on="1"/>
        <pt x="536" y="541" on="0"/>
        <pt x="536" y="558" on="0"/>
        <pt x="546" y="588" on="1"/>
        <pt x="513" y="572" on="1"/>
        <pt x="455" y="542" on="0"/>
        <pt x="442" y="528" on="1"/>
        <pt x="418" y="499" on="0"/>
        <pt x="396" y="451" on="0"/>
      </contour>
      <contour>
        <pt x="210" y="266" on="1"/>
        <pt x="179" y="283" on="0"/>
        <pt x="137" y="382" on="0"/>
        <pt x="137" y="453" on="0"/>
        <pt x="143" y="483" on="1"/>
        <pt x="100" y="394" on="0"/>
        <pt x="100" y="171" on="0"/>
        <pt x="125" y="89" on="1"/>
        <pt x="134" y="59" on="0"/>
        <pt x="153" y="59" on="1"/>
        <pt x="166" y="59" on="0"/>
        <pt x="177" y="77" on="1"/>
        <pt x="246" y="175" on="0"/>
        <pt x="321" y="458" on="0"/>
        <pt x="321" y="594" on="1"/>
        <pt x="321" y="611" on="0"/>
        <pt x="306" y="643" on="0"/>
        <pt x="280" y="643" on="0"/>
        <pt x="261" y="621" on="0"/>
        <pt x="249" y="601" on="1"/>
        <pt x="192" y="509" on="0"/>
        <pt x="192" y="378" on="1"/>
        <pt x="192" y="362" on="0"/>
        <pt x="220" y="266" on="0"/>
        <pt x="214" y="265" on="1"/>
        <pt x="213" y="265" on="0"/>
      </contour>
      <contour>
        <pt x="383" y="395" on="1"/>
        <pt x="377" y="357" on="0"/>
        <pt x="373" y="337" on="1"/>
        <pt x="402" y="352" on="0"/>
        <pt x="439" y="365" on="1"/>
        <pt x="405" y="376" on="0"/>
      </contour>
    </TTGlyph>
    <TTGlyph name="Oacute" xMin="30" yMin="-20" xMax="434" yMax="943">
      <component glyphName="O" x="0" y="0" flags="0x1004"/>
      <component glyphName="acute" x="112" y="252" flags="0x1004"/>
    </TTGlyph>
    <TTGlyph name="Obreve" xMin="30" yMin="-20" xMax="430" yMax="928">
      <component glyphName="O" x="0" y="0" flags="0x1004"/>
      <component glyphName="breve" x="50" y="252" flags="0x1004"/>
    </TTGlyph>
    <TTGlyph name="Ocircumflex" xMin="30" yMin="-20" xMax="431" yMax="945">
      <component glyphName="O" x="0" y="0" flags="0x1004"/>
      <component glyphName="circumflex" x="61" y="252" flags="0x1004"/>
    </TTGlyph>
    <TTGlyph name="Odieresis" xMin="30" yMin="-20" xMax="427" yMax="900">
      <component glyphName="O" x="0" y="0" flags="0x1004"/>
      <component glyphName="dieresis" x="64" y="252" flags="0x1004"/>
    </TTGlyph>
    <TTGlyph name="Ograve" xMin="30" yMin="-20" xMax="427" yMax="945">
      <component glyphName="O" x="0" y="0" flags="0x1004"/>
      <component glyphName="grave" x="29" y="252" flags="0x1004"/>
    </TTGlyph>
    <TTGlyph name="Ohungarumlaut" xMin="30" yMin="-20" xMax="464" yMax="944">
      <component glyphName="O" x="0" y="0" flags="0x1004"/>
      <component glyphName="hungarumlaut" x="90" y="252" flags="0x1004"/>
    </TTGlyph>
    <TTGlyph name="Omacron" xMin="30" yMin="-20" xMax="427" yMax="882">
      <component glyphName="O" x="0" y="0" flags="0x1004"/>
      <component glyphName="macron" x="60" y="252" flags="0x1004"/>
    </TTGlyph>
    <TTGlyph name="Oslash" xMin="-16" yMin="-125" xMax="466" yMax="776">
      <contour>
        <pt x="446" y="776" on="1"/>
        <pt x="450" y="776" on="1"/>
        <pt x="453" y="776" on="0"/>
        <pt x="453" y="774" on="0"/>
        <pt x="455" y="770" on="0"/>
        <pt x="456" y="768" on="1"/>
        <pt x="458" y="758" on="0"/>
        <pt x="466" y="736" on="0"/>
        <pt x="466" y="725" on="1"/>
        <pt x="466" y="693" on="0"/>
        <pt x="399" y="582" on="1"/>
        <pt x="402" y="552" on="0"/>
        <pt x="402" y="522" on="1"/>
        <pt x="402" y="408" on="0"/>
        <pt x="333" y="122" on="0"/>
        <pt x="272" y="29" on="1"/>
        <pt x="239" y="-20" on="0"/>
        <pt x="195" y="-20" on="1"/>
        <pt x="172" y="-20" on="0"/>
        <pt x="104" y="20" on="0"/>
        <pt x="82" y="43" on="1"/>
        <pt x="51" y="-35" on="0"/>
        <pt x="43" y="-101" on="1"/>
        <pt x="42" y="-114" on="1"/>
        <pt x="42" y="-125" on="0"/>
        <pt x="14" y="-125" on="0"/>
        <pt x="2" y="-102" on="1"/>
        <pt x="-16" y="-69" on="0"/>
        <pt x="-16" y="-9" on="0"/>
        <pt x="44" y="116" on="1"/>
        <pt x="30" y="180" on="0"/>
        <pt x="30" y="256" on="1"/>
        <pt x="30" y="446" on="0"/>
        <pt x="126" y="646" on="1"/>
        <pt x="138" y="669" on="0"/>
        <pt x="151" y="669" on="1"/>
        <pt x="153" y="669" on="0"/>
        <pt x="198" y="651" on="1"/>
        <pt x="223" y="709" on="0"/>
        <pt x="300" y="709" on="1"/>
        <pt x="305" y="709" on="1"/>
        <pt x="356" y="708" on="0"/>
        <pt x="376" y="674" on="1"/>
        <pt x="406" y="720" on="0"/>
        <pt x="433" y="764" on="1"/>
        <pt x="439" y="776" on="0"/>
      </contour>
      <contour>
        <pt x="116" y="122" on="1"/>
        <pt x="126" y="59" on="0"/>
        <pt x="153" y="59" on="1"/>
        <pt x="166" y="59" on="0"/>
        <pt x="177" y="77" on="1"/>
        <pt x="280" y="222" on="0"/>
        <pt x="311" y="446" on="1"/>
        <pt x="167" y="229" on="0"/>
      </contour>
      <contour>
        <pt x="176" y="378" on="1"/>
        <pt x="134" y="388" on="0"/>
        <pt x="139" y="452" on="1"/>
        <pt x="140" y="465" on="0"/>
        <pt x="143" y="483" on="1"/>
        <pt x="100" y="394" on="0"/>
        <pt x="100" y="276" on="1"/>
        <pt x="100" y="243" on="0"/>
        <pt x="101" y="227" on="1"/>
        <pt x="181" y="371" on="0"/>
        <pt x="321" y="589" on="1"/>
        <pt x="321" y="594" on="1"/>
        <pt x="321" y="611" on="0"/>
        <pt x="306" y="643" on="0"/>
        <pt x="291" y="643" on="1"/>
        <pt x="265" y="643" on="0"/>
        <pt x="200" y="513" on="0"/>
        <pt x="179" y="429" on="0"/>
      </contour>
    </TTGlyph>
    <TTGlyph name="Oslashacute" xMin="-16" yMin="-125" xMax="466" yMax="943">
      <component glyphName="Oslash" x="0" y="0" flags="0x1004"/>
      <component glyphName="acute" x="111" y="252" flags="0x1004"/>
    </TTGlyph>
    <TTGlyph name="Otilde" xMin="30" yMin="-20" xMax="427" yMax="899">
      <component glyphName="O" x="0" y="0" flags="0x1004"/>
      <component glyphName="tilde" x="55" y="252" flags="0x1004"/>
    </TTGlyph>
    <TTGlyph name="P" xMin="-10" yMin="-19" xMax="426" yMax="713">
      <contour>
        <pt x="80" y="143" on="1"/>
        <pt x="77" y="241" on="1"/>
        <pt x="77" y="431" on="0"/>
        <pt x="125" y="591" on="1"/>
        <pt x="105" y="577" on="0"/>
        <pt x="92" y="560" on="1"/>
        <pt x="59" y="517" on="0"/>
        <pt x="-6" y="517" on="0"/>
        <pt x="-6" y="560" on="1"/>
        <pt x="-6" y="628" on="0"/>
        <pt x="40" y="653" on="1"/>
        <pt x="80" y="676" on="0"/>
        <pt x="187" y="713" on="0"/>
        <pt x="226" y="713" on="1"/>
        <pt x="314" y="713" on="0"/>
        <pt x="426" y="575" on="0"/>
        <pt x="426" y="486" on="1"/>
        <pt x="426" y="431" on="0"/>
        <pt x="407" y="372" on="1"/>
        <pt x="377" y="282" on="0"/>
        <pt x="292" y="253" on="1"/>
        <pt x="246" y="237" on="0"/>
        <pt x="168" y="237" on="0"/>
        <pt x="148" y="256" on="1"/>
        <pt x="148" y="213" on="1"/>
        <pt x="148" y="135" on="0"/>
        <pt x="157" y="57" on="1"/>
        <pt x="158" y="42" on="1"/>
        <pt x="158" y="9" on="0"/>
        <pt x="127" y="-7" on="1"/>
        <pt x="105" y="-19" on="0"/>
        <pt x="69" y="-19" on="0"/>
        <pt x="49" y="14" on="1"/>
        <pt x="16" y="67" on="0"/>
        <pt x="-7" y="165" on="1"/>
        <pt x="-10" y="178" on="0"/>
        <pt x="-10" y="195" on="0"/>
        <pt x="5" y="195" on="0"/>
        <pt x="68" y="125" on="0"/>
        <pt x="80" y="125" on="0"/>
      </contour>
      <contour>
        <pt x="373" y="520" on="1"/>
        <pt x="373" y="578" on="0"/>
        <pt x="293" y="634" on="0"/>
        <pt x="231" y="634" on="1"/>
        <pt x="194" y="634" on="0"/>
        <pt x="171" y="619" on="1"/>
        <pt x="176" y="597" on="0"/>
        <pt x="176" y="570" on="0"/>
        <pt x="172" y="532" on="0"/>
        <pt x="162" y="442" on="0"/>
        <pt x="160" y="419" on="1"/>
        <pt x="187" y="451" on="0"/>
        <pt x="244" y="451" on="1"/>
        <pt x="259" y="451" on="0"/>
        <pt x="259" y="442" on="0"/>
        <pt x="249" y="442" on="1"/>
        <pt x="181" y="442" on="0"/>
        <pt x="181" y="401" on="1"/>
        <pt x="181" y="353" on="0"/>
        <pt x="218" y="353" on="1"/>
        <pt x="225" y="353" on="0"/>
        <pt x="237" y="355" on="1"/>
        <pt x="373" y="384" on="0"/>
      </contour>
    </TTGlyph>
    <TTGlyph name="Q" xMin="30" yMin="-52" xMax="398" yMax="751">
      <contour>
        <pt x="384" y="59" on="1"/>
        <pt x="398" y="59" on="0"/>
        <pt x="398" y="-10" on="0"/>
        <pt x="358" y="-52" on="0"/>
        <pt x="325" y="-52" on="1"/>
        <pt x="275" y="-52" on="0"/>
        <pt x="231" y="-6" on="1"/>
        <pt x="209" y="-33" on="0"/>
        <pt x="155" y="-33" on="0"/>
        <pt x="124" y="-9" on="1"/>
        <pt x="122" y="-7" on="0"/>
        <pt x="102" y="6" on="0"/>
        <pt x="94" y="12" on="0"/>
        <pt x="87" y="18" on="1"/>
        <pt x="74" y="29" on="0"/>
        <pt x="68" y="43" on="1"/>
        <pt x="30" y="120" on="0"/>
        <pt x="30" y="232" on="1"/>
        <pt x="30" y="389" on="0"/>
        <pt x="102" y="589" on="1"/>
        <pt x="109" y="606" on="0"/>
        <pt x="121" y="606" on="0"/>
        <pt x="130" y="597" on="1"/>
        <pt x="133" y="603" on="0"/>
        <pt x="157" y="652" on="0"/>
        <pt x="170" y="675" on="0"/>
        <pt x="197" y="715" on="0"/>
        <pt x="209" y="725" on="1"/>
        <pt x="240" y="751" on="0"/>
        <pt x="296" y="751" on="0"/>
        <pt x="316" y="740" on="1"/>
        <pt x="365" y="712" on="0"/>
        <pt x="377" y="667" on="1"/>
        <pt x="393" y="600" on="0"/>
        <pt x="393" y="393" on="0"/>
        <pt x="328" y="139" on="0"/>
        <pt x="268" y="44" on="1"/>
        <pt x="299" y="15" on="0"/>
        <pt x="340" y="15" on="0"/>
        <pt x="375" y="59" on="0"/>
      </contour>
      <contour>
        <pt x="310" y="609" on="1"/>
        <pt x="310" y="635" on="0"/>
        <pt x="289" y="687" on="0"/>
        <pt x="249" y="687" on="0"/>
        <pt x="234" y="668" on="1"/>
        <pt x="138" y="553" on="0"/>
        <pt x="138" y="366" on="1"/>
        <pt x="138" y="328" on="0"/>
        <pt x="142" y="288" on="0"/>
        <pt x="166" y="234" on="0"/>
        <pt x="191" y="219" on="1"/>
        <pt x="196" y="216" on="0"/>
        <pt x="196" y="213" on="1"/>
        <pt x="196" y="204" on="0"/>
        <pt x="176" y="204" on="0"/>
        <pt x="168" y="207" on="1"/>
        <pt x="130" y="223" on="0"/>
        <pt x="105" y="281" on="1"/>
        <pt x="100" y="243" on="0"/>
        <pt x="100" y="211" on="1"/>
        <pt x="100" y="75" on="0"/>
        <pt x="155" y="37" on="1"/>
        <pt x="172" y="58" on="0"/>
        <pt x="186" y="85" on="1"/>
        <pt x="180" y="113" on="0"/>
        <pt x="180" y="137" on="0"/>
        <pt x="185" y="137" on="0"/>
        <pt x="201" y="116" on="1"/>
        <pt x="246" y="215" on="0"/>
        <pt x="310" y="503" on="0"/>
      </contour>
    </TTGlyph>
    <TTGlyph name="R" xMin="-10" yMin="-14" xMax="460" yMax="713">
      <contour>
        <pt x="8" y="677" on="1"/>
        <pt x="32" y="673" on="1"/>
        <pt x="43" y="673" on="0"/>
        <pt x="63" y="679" on="1"/>
        <pt x="171" y="713" on="0"/>
        <pt x="292" y="713" on="0"/>
        <pt x="390" y="676" on="0"/>
        <pt x="460" y="596" on="0"/>
        <pt x="460" y="504" on="0"/>
        <pt x="423" y="431" on="0"/>
        <pt x="390" y="402" on="1"/>
        <pt x="332" y="353" on="0"/>
        <pt x="255" y="315" on="1"/>
        <pt x="321" y="280" on="0"/>
        <pt x="321" y="192" on="1"/>
        <pt x="320" y="149" on="1"/>
        <pt x="320" y="80" on="0"/>
        <pt x="356" y="80" on="1"/>
        <pt x="393" y="80" on="0"/>
        <pt x="432" y="112" on="1"/>
        <pt x="445" y="122" on="0"/>
        <pt x="448" y="122" on="1"/>
        <pt x="456" y="122" on="0"/>
        <pt x="456" y="110" on="1"/>
        <pt x="456" y="75" on="0"/>
        <pt x="412" y="17" on="1"/>
        <pt x="386" y="-14" on="0"/>
        <pt x="353" y="-14" on="1"/>
        <pt x="308" y="-14" on="0"/>
        <pt x="249" y="84" on="0"/>
        <pt x="249" y="132" on="1"/>
        <pt x="251" y="185" on="1"/>
        <pt x="251" y="252" on="0"/>
        <pt x="230" y="270" on="1"/>
        <pt x="219" y="279" on="0"/>
        <pt x="201" y="288" on="1"/>
        <pt x="169" y="273" on="1"/>
        <pt x="156" y="176" on="0"/>
        <pt x="156" y="117" on="1"/>
        <pt x="157" y="30" on="1"/>
        <pt x="157" y="-7" on="0"/>
        <pt x="136" y="-7" on="1"/>
        <pt x="128" y="-7" on="0"/>
        <pt x="112" y="2" on="1"/>
        <pt x="48" y="42" on="0"/>
        <pt x="26" y="146" on="1"/>
        <pt x="25" y="151" on="0"/>
        <pt x="25" y="154" on="1"/>
        <pt x="25" y="163" on="0"/>
        <pt x="54" y="163" on="0"/>
        <pt x="75" y="146" on="0"/>
        <pt x="85" y="129" on="0"/>
        <pt x="88" y="129" on="1"/>
        <pt x="97" y="129" on="0"/>
        <pt x="97" y="146" on="1"/>
        <pt x="93" y="193" on="1"/>
        <pt x="96" y="348" on="0"/>
        <pt x="118" y="514" on="1"/>
        <pt x="125" y="558" on="0"/>
        <pt x="131" y="582" on="0"/>
        <pt x="131" y="593" on="0"/>
        <pt x="130" y="596" on="1"/>
        <pt x="91" y="585" on="0"/>
        <pt x="60" y="554" on="0"/>
        <pt x="37" y="554" on="0"/>
        <pt x="24" y="558" on="0"/>
        <pt x="13" y="571" on="0"/>
        <pt x="10" y="574" on="1"/>
        <pt x="-10" y="603" on="0"/>
        <pt x="-10" y="625" on="1"/>
        <pt x="-10" y="677" on="0"/>
      </contour>
      <contour>
        <pt x="380" y="566" on="1"/>
        <pt x="380" y="591" on="0"/>
        <pt x="291" y="614" on="0"/>
        <pt x="224" y="614" on="0"/>
        <pt x="199" y="610" on="1"/>
        <pt x="196" y="598" on="0"/>
        <pt x="196" y="485" on="0"/>
        <pt x="184" y="384" on="1"/>
        <pt x="304" y="429" on="0"/>
        <pt x="374" y="546" on="1"/>
        <pt x="380" y="558" on="0"/>
      </contour>
    </TTGlyph>
    <TTGlyph name="Racute" xMin="-10" yMin="-14" xMax="460" yMax="947">
      <component glyphName="R" x="0" y="0" flags="0x1004"/>
      <component glyphName="acute" x="70" y="256" flags="0x1004"/>
    </TTGlyph>
    <TTGlyph name="Rcaron" xMin="-10" yMin="-14" xMax="460" yMax="949">
      <component glyphName="R" x="0" y="0" flags="0x1004"/>
      <component glyphName="caron" x="15" y="256" flags="0x1004"/>
    </TTGlyph>
    <TTGlyph name="Rcommaaccent" xMin="-10" yMin="-265" xMax="460" yMax="713">
      <contour>
        <pt x="8" y="677" on="1"/>
        <pt x="32" y="673" on="1"/>
        <pt x="43" y="673" on="0"/>
        <pt x="63" y="679" on="1"/>
        <pt x="171" y="713" on="0"/>
        <pt x="292" y="713" on="0"/>
        <pt x="390" y="676" on="0"/>
        <pt x="460" y="596" on="0"/>
        <pt x="460" y="504" on="0"/>
        <pt x="423" y="431" on="0"/>
        <pt x="390" y="402" on="1"/>
        <pt x="332" y="353" on="0"/>
        <pt x="255" y="315" on="1"/>
        <pt x="321" y="280" on="0"/>
        <pt x="321" y="192" on="1"/>
        <pt x="320" y="149" on="1"/>
        <pt x="320" y="80" on="0"/>
        <pt x="356" y="80" on="1"/>
        <pt x="393" y="80" on="0"/>
        <pt x="432" y="112" on="1"/>
        <pt x="445" y="122" on="0"/>
        <pt x="448" y="122" on="1"/>
        <pt x="456" y="122" on="0"/>
        <pt x="456" y="110" on="1"/>
        <pt x="456" y="75" on="0"/>
        <pt x="412" y="17" on="1"/>
        <pt x="386" y="-14" on="0"/>
        <pt x="353" y="-14" on="1"/>
        <pt x="308" y="-14" on="0"/>
        <pt x="249" y="84" on="0"/>
        <pt x="249" y="132" on="1"/>
        <pt x="251" y="185" on="1"/>
        <pt x="251" y="252" on="0"/>
        <pt x="230" y="270" on="1"/>
        <pt x="219" y="279" on="0"/>
        <pt x="201" y="288" on="1"/>
        <pt x="169" y="273" on="1"/>
        <pt x="156" y="176" on="0"/>
        <pt x="156" y="117" on="1"/>
        <pt x="157" y="30" on="1"/>
        <pt x="157" y="-7" on="0"/>
        <pt x="136" y="-7" on="1"/>
        <pt x="128" y="-7" on="0"/>
        <pt x="112" y="2" on="1"/>
        <pt x="48" y="42" on="0"/>
        <pt x="26" y="146" on="1"/>
        <pt x="25" y="151" on="0"/>
        <pt x="25" y="154" on="1"/>
        <pt x="25" y="163" on="0"/>
        <pt x="54" y="163" on="0"/>
        <pt x="75" y="146" on="0"/>
        <pt x="85" y="129" on="0"/>
        <pt x="88" y="129" on="1"/>
        <pt x="97" y="129" on="0"/>
        <pt x="97" y="146" on="1"/>
        <pt x="93" y="193" on="1"/>
        <pt x="96" y="348" on="0"/>
        <pt x="118" y="514" on="1"/>
        <pt x="125" y="558" on="0"/>
        <pt x="131" y="582" on="0"/>
        <pt x="131" y="593" on="0"/>
        <pt x="130" y="596" on="1"/>
        <pt x="91" y="585" on="0"/>
        <pt x="60" y="554" on="0"/>
        <pt x="37" y="554" on="0"/>
        <pt x="24" y="558" on="0"/>
        <pt x="13" y="571" on="0"/>
        <pt x="10" y="574" on="1"/>
        <pt x="-10" y="603" on="0"/>
        <pt x="-10" y="625" on="1"/>
        <pt x="-10" y="677" on="0"/>
      </contour>
      <contour>
        <pt x="380" y="566" on="1"/>
        <pt x="380" y="591" on="0"/>
        <pt x="291" y="614" on="0"/>
        <pt x="224" y="614" on="0"/>
        <pt x="199" y="610" on="1"/>
        <pt x="196" y="598" on="0"/>
        <pt x="196" y="485" on="0"/>
        <pt x="184" y="384" on="1"/>
        <pt x="304" y="429" on="0"/>
        <pt x="374" y="546" on="1"/>
        <pt x="380" y="558" on="0"/>
      </contour>
      <contour>
        <pt x="145" y="-265" on="0"/>
        <pt x="134" y="-252" on="0"/>
        <pt x="134" y="-234" on="0"/>
        <pt x="183" y="-156" on="0"/>
        <pt x="183" y="-132" on="1"/>
        <pt x="171" y="-118" on="0"/>
        <pt x="171" y="-97" on="0"/>
        <pt x="204" y="-80" on="0"/>
        <pt x="238" y="-80" on="0"/>
        <pt x="265" y="-108" on="0"/>
        <pt x="265" y="-128" on="1"/>
        <pt x="265" y="-162" on="0"/>
        <pt x="177" y="-265" on="0"/>
        <pt x="154" y="-265" on="1"/>
      </contour>
    </TTGlyph>
    <TTGlyph name="S" xMin="-25" yMin="-21" xMax="444" yMax="708">
      <contour>
        <pt x="400" y="690" on="1"/>
        <pt x="444" y="638" on="0"/>
        <pt x="444" y="618" on="0"/>
        <pt x="434" y="606" on="1"/>
        <pt x="387" y="553" on="0"/>
        <pt x="324" y="499" on="1"/>
        <pt x="310" y="487" on="0"/>
        <pt x="303" y="487" on="1"/>
        <pt x="293" y="487" on="0"/>
        <pt x="293" y="518" on="0"/>
        <pt x="320" y="570" on="0"/>
        <pt x="320" y="578" on="0"/>
        <pt x="313" y="578" on="0"/>
        <pt x="307" y="576" on="1"/>
        <pt x="192" y="535" on="0"/>
        <pt x="147" y="447" on="1"/>
        <pt x="137" y="427" on="0"/>
        <pt x="137" y="414" on="1"/>
        <pt x="137" y="388" on="0"/>
        <pt x="177" y="365" on="1"/>
        <pt x="183" y="361" on="0"/>
        <pt x="231" y="336" on="1"/>
        <pt x="328" y="284" on="0"/>
        <pt x="353" y="252" on="1"/>
        <pt x="393" y="202" on="0"/>
        <pt x="393" y="154" on="1"/>
        <pt x="393" y="135" on="0"/>
        <pt x="372" y="94" on="0"/>
        <pt x="356" y="84" on="1"/>
        <pt x="187" y="-21" on="0"/>
        <pt x="55" y="-21" on="1"/>
        <pt x="-15" y="-21" on="0"/>
        <pt x="-15" y="43" on="1"/>
        <pt x="-15" y="64" on="0"/>
        <pt x="-1" y="83" on="1"/>
        <pt x="-25" y="100" on="0"/>
        <pt x="-25" y="139" on="0"/>
        <pt x="2" y="159" on="1"/>
        <pt x="66" y="207" on="0"/>
        <pt x="208" y="207" on="1"/>
        <pt x="223" y="207" on="0"/>
        <pt x="265" y="186" on="0"/>
        <pt x="278" y="174" on="1"/>
        <pt x="303" y="188" on="0"/>
        <pt x="303" y="210" on="0"/>
        <pt x="290" y="221" on="1"/>
        <pt x="271" y="235" on="0"/>
        <pt x="168" y="281" on="0"/>
        <pt x="154" y="289" on="1"/>
        <pt x="112" y="313" on="0"/>
        <pt x="67" y="403" on="0"/>
        <pt x="67" y="504" on="0"/>
        <pt x="118" y="587" on="0"/>
        <pt x="164" y="618" on="1"/>
        <pt x="234" y="665" on="0"/>
        <pt x="339" y="704" on="1"/>
        <pt x="353" y="708" on="0"/>
        <pt x="361" y="708" on="1"/>
        <pt x="384" y="708" on="0"/>
      </contour>
      <contour>
        <pt x="210" y="136" on="1"/>
        <pt x="200" y="138" on="0"/>
        <pt x="174" y="138" on="0"/>
        <pt x="99" y="114" on="0"/>
        <pt x="99" y="99" on="1"/>
        <pt x="99" y="93" on="0"/>
        <pt x="106" y="93" on="1"/>
        <pt x="133" y="93" on="0"/>
      </contour>
    </TTGlyph>
    <TTGlyph name="Sacute" xMin="-25" yMin="-21" xMax="464" yMax="940">
      <component glyphName="S" x="0" y="0" flags="0x1004"/>
      <component glyphName="acute" x="142" y="249" flags="0x1004"/>
    </TTGlyph>
    <TTGlyph name="Scaron" xMin="-25" yMin="-21" xMax="457" yMax="942">
      <component glyphName="S" x="0" y="0" flags="0x1004"/>
      <component glyphName="caron" x="87" y="249" flags="0x1004"/>
    </TTGlyph>
    <TTGlyph name="Scedilla" xMin="-25" yMin="-269" xMax="444" yMax="708">
      <contour>
        <pt x="227" y="-151" on="1"/>
        <pt x="222" y="-136" on="0"/>
        <pt x="156" y="-118" on="1"/>
        <pt x="132" y="-112" on="0"/>
        <pt x="93" y="-74" on="0"/>
        <pt x="93" y="-31" on="0"/>
        <pt x="97" y="-18" on="1"/>
        <pt x="76" y="-21" on="0"/>
        <pt x="55" y="-21" on="1"/>
        <pt x="-15" y="-21" on="0"/>
        <pt x="-15" y="43" on="1"/>
        <pt x="-15" y="64" on="0"/>
        <pt x="-1" y="83" on="1"/>
        <pt x="-25" y="100" on="0"/>
        <pt x="-25" y="139" on="0"/>
        <pt x="2" y="159" on="1"/>
        <pt x="66" y="207" on="0"/>
        <pt x="208" y="207" on="1"/>
        <pt x="223" y="207" on="0"/>
        <pt x="265" y="186" on="0"/>
        <pt x="278" y="174" on="1"/>
        <pt x="303" y="188" on="0"/>
        <pt x="303" y="210" on="0"/>
        <pt x="290" y="221" on="1"/>
        <pt x="271" y="235" on="0"/>
        <pt x="168" y="281" on="0"/>
        <pt x="154" y="289" on="1"/>
        <pt x="112" y="313" on="0"/>
        <pt x="67" y="403" on="0"/>
        <pt x="67" y="504" on="0"/>
        <pt x="118" y="587" on="0"/>
        <pt x="164" y="618" on="1"/>
        <pt x="234" y="665" on="0"/>
        <pt x="339" y="704" on="1"/>
        <pt x="353" y="708" on="0"/>
        <pt x="361" y="708" on="1"/>
        <pt x="384" y="708" on="0"/>
        <pt x="400" y="690" on="1"/>
        <pt x="444" y="638" on="0"/>
        <pt x="444" y="618" on="0"/>
        <pt x="434" y="606" on="1"/>
        <pt x="387" y="553" on="0"/>
        <pt x="324" y="499" on="1"/>
        <pt x="310" y="487" on="0"/>
        <pt x="303" y="487" on="1"/>
        <pt x="293" y="487" on="0"/>
        <pt x="293" y="518" on="0"/>
        <pt x="320" y="570" on="0"/>
        <pt x="320" y="578" on="0"/>
        <pt x="313" y="578" on="0"/>
        <pt x="307" y="576" on="1"/>
        <pt x="192" y="535" on="0"/>
        <pt x="147" y="447" on="1"/>
        <pt x="137" y="427" on="0"/>
        <pt x="137" y="414" on="1"/>
        <pt x="137" y="388" on="0"/>
        <pt x="177" y="365" on="1"/>
        <pt x="183" y="361" on="0"/>
        <pt x="231" y="336" on="1"/>
        <pt x="328" y="284" on="0"/>
        <pt x="353" y="252" on="1"/>
        <pt x="393" y="202" on="0"/>
        <pt x="393" y="154" on="1"/>
        <pt x="393" y="135" on="0"/>
        <pt x="372" y="94" on="0"/>
        <pt x="356" y="84" on="1"/>
        <pt x="251" y="18" on="0"/>
        <pt x="165" y="-5" on="1"/>
        <pt x="155" y="-21" on="0"/>
        <pt x="155" y="-45" on="0"/>
        <pt x="198" y="-59" on="0"/>
        <pt x="250" y="-69" on="0"/>
        <pt x="293" y="-112" on="0"/>
        <pt x="293" y="-149" on="1"/>
        <pt x="293" y="-212" on="0"/>
        <pt x="210" y="-269" on="0"/>
        <pt x="145" y="-269" on="1"/>
        <pt x="124" y="-269" on="0"/>
        <pt x="103" y="-265" on="0"/>
        <pt x="85" y="-238" on="0"/>
        <pt x="85" y="-178" on="0"/>
        <pt x="106" y="-178" on="1"/>
        <pt x="110" y="-178" on="0"/>
        <pt x="115" y="-186" on="0"/>
        <pt x="117" y="-186" on="1"/>
        <pt x="192" y="-180" on="0"/>
        <pt x="217" y="-165" on="1"/>
        <pt x="227" y="-159" on="0"/>
        <pt x="227" y="-153" on="1"/>
      </contour>
      <contour>
        <pt x="210" y="136" on="1"/>
        <pt x="200" y="138" on="0"/>
        <pt x="174" y="138" on="0"/>
        <pt x="99" y="114" on="0"/>
        <pt x="99" y="99" on="1"/>
        <pt x="99" y="93" on="0"/>
        <pt x="106" y="93" on="1"/>
        <pt x="133" y="93" on="0"/>
      </contour>
    </TTGlyph>
    <TTGlyph name="Scircumflex" xMin="-25" yMin="-21" xMax="461" yMax="942">
      <component glyphName="S" x="0" y="0" flags="0x1004"/>
      <component glyphName="circumflex" x="91" y="249" flags="0x1004"/>
    </TTGlyph>
    <TTGlyph name="T" xMin="-60" yMin="3" xMax="551" yMax="711">
      <contour>
        <pt x="176" y="132" on="1"/>
        <pt x="173" y="211" on="1"/>
        <pt x="173" y="399" on="0"/>
        <pt x="233" y="566" on="1"/>
        <pt x="190" y="571" on="0"/>
        <pt x="181" y="571" on="1"/>
        <pt x="141" y="571" on="0"/>
        <pt x="90" y="540" on="0"/>
        <pt x="64" y="519" on="1"/>
        <pt x="26" y="487" on="0"/>
        <pt x="-15" y="487" on="1"/>
        <pt x="-32" y="487" on="0"/>
        <pt x="-50" y="502" on="0"/>
        <pt x="-54" y="518" on="0"/>
        <pt x="-56" y="550" on="0"/>
        <pt x="-60" y="568" on="0"/>
        <pt x="-60" y="586" on="0"/>
        <pt x="-45" y="599" on="1"/>
        <pt x="41" y="675" on="0"/>
        <pt x="212" y="675" on="1"/>
        <pt x="245" y="675" on="0"/>
        <pt x="278" y="672" on="1"/>
        <pt x="286" y="690" on="1"/>
        <pt x="291" y="683" on="0"/>
        <pt x="299" y="671" on="1"/>
        <pt x="318" y="671" on="1"/>
        <pt x="412" y="671" on="0"/>
        <pt x="524" y="709" on="1"/>
        <pt x="532" y="711" on="0"/>
        <pt x="535" y="711" on="1"/>
        <pt x="551" y="711" on="0"/>
        <pt x="551" y="677" on="0"/>
        <pt x="533" y="659" on="1"/>
        <pt x="444" y="561" on="0"/>
        <pt x="296" y="563" on="1"/>
        <pt x="271" y="466" on="0"/>
        <pt x="253" y="186" on="0"/>
        <pt x="249" y="148" on="0"/>
        <pt x="249" y="120" on="0"/>
        <pt x="267" y="38" on="0"/>
        <pt x="267" y="32" on="1"/>
        <pt x="267" y="3" on="0"/>
        <pt x="237" y="3" on="1"/>
        <pt x="191" y="3" on="0"/>
        <pt x="141" y="105" on="1"/>
        <pt x="131" y="123" on="0"/>
        <pt x="131" y="156" on="0"/>
        <pt x="147" y="156" on="0"/>
        <pt x="170" y="124" on="0"/>
        <pt x="176" y="124" on="0"/>
      </contour>
    </TTGlyph>
    <TTGlyph name="Tbar" xMin="-60" yMin="3" xMax="551" yMax="711">
      <contour>
        <pt x="86" y="411" on="1"/>
        <pt x="190" y="407" on="1"/>
        <pt x="206" y="491" on="0"/>
        <pt x="233" y="566" on="1"/>
        <pt x="190" y="571" on="0"/>
        <pt x="181" y="571" on="1"/>
        <pt x="141" y="571" on="0"/>
        <pt x="90" y="540" on="0"/>
        <pt x="64" y="519" on="1"/>
        <pt x="26" y="487" on="0"/>
        <pt x="-15" y="487" on="1"/>
        <pt x="-32" y="487" on="0"/>
        <pt x="-50" y="502" on="0"/>
        <pt x="-54" y="518" on="0"/>
        <pt x="-56" y="550" on="0"/>
        <pt x="-60" y="568" on="0"/>
        <pt x="-60" y="586" on="0"/>
        <pt x="-45" y="599" on="1"/>
        <pt x="41" y="675" on="0"/>
        <pt x="212" y="675" on="1"/>
        <pt x="245" y="675" on="0"/>
        <pt x="278" y="672" on="1"/>
        <pt x="286" y="690" on="1"/>
        <pt x="291" y="683" on="0"/>
        <pt x="299" y="671" on="1"/>
        <pt x="318" y="671" on="1"/>
        <pt x="412" y="671" on="0"/>
        <pt x="524" y="709" on="1"/>
        <pt x="532" y="711" on="0"/>
        <pt x="535" y="711" on="1"/>
        <pt x="551" y="711" on="0"/>
        <pt x="551" y="695" on="1"/>
        <pt x="551" y="682" on="0"/>
        <pt x="533" y="659" on="1"/>
        <pt x="440" y="561" on="0"/>
        <pt x="296" y="563" on="1"/>
        <pt x="279" y="499" on="0"/>
        <pt x="269" y="406" on="1"/>
        <pt x="310" y="408" on="0"/>
        <pt x="372" y="420" on="0"/>
        <pt x="395" y="420" on="0"/>
        <pt x="413" y="382" on="0"/>
        <pt x="413" y="356" on="0"/>
        <pt x="389" y="338" on="0"/>
        <pt x="366" y="334" on="1"/>
        <pt x="335" y="330" on="0"/>
        <pt x="278" y="330" on="1"/>
        <pt x="261" y="330" on="1"/>
        <pt x="259" y="304" on="0"/>
        <pt x="252" y="184" on="0"/>
        <pt x="249" y="149" on="0"/>
        <pt x="249" y="120" on="0"/>
        <pt x="267" y="38" on="0"/>
        <pt x="267" y="32" on="1"/>
        <pt x="267" y="3" on="0"/>
        <pt x="237" y="3" on="1"/>
        <pt x="186" y="3" on="0"/>
        <pt x="141" y="105" on="1"/>
        <pt x="131" y="123" on="0"/>
        <pt x="131" y="156" on="0"/>
        <pt x="147" y="156" on="0"/>
        <pt x="170" y="124" on="0"/>
        <pt x="176" y="124" on="0"/>
        <pt x="176" y="132" on="1"/>
        <pt x="173" y="211" on="1"/>
        <pt x="173" y="270" on="0"/>
        <pt x="179" y="327" on="1"/>
        <pt x="123" y="325" on="0"/>
        <pt x="83" y="325" on="0"/>
        <pt x="74" y="332" on="0"/>
        <pt x="66" y="346" on="0"/>
        <pt x="64" y="351" on="1"/>
        <pt x="56" y="371" on="0"/>
        <pt x="56" y="375" on="1"/>
        <pt x="56" y="383" on="1"/>
        <pt x="56" y="399" on="0"/>
        <pt x="70" y="411" on="0"/>
      </contour>
    </TTGlyph>
    <TTGlyph name="Tcaron" xMin="-60" yMin="3" xMax="551" yMax="909">
      <component glyphName="T" x="0" y="0" flags="0x1004"/>
      <component glyphName="caron" x="45" y="216" flags="0x1004"/>
    </TTGlyph>
    <TTGlyph name="Tcommaaccent" xMin="-60" yMin="-265" xMax="551" yMax="711">
      <contour>
        <pt x="176" y="132" on="1"/>
        <pt x="173" y="211" on="1"/>
        <pt x="173" y="399" on="0"/>
        <pt x="233" y="566" on="1"/>
        <pt x="190" y="571" on="0"/>
        <pt x="181" y="571" on="1"/>
        <pt x="141" y="571" on="0"/>
        <pt x="90" y="540" on="0"/>
        <pt x="64" y="519" on="1"/>
        <pt x="26" y="487" on="0"/>
        <pt x="-15" y="487" on="1"/>
        <pt x="-32" y="487" on="0"/>
        <pt x="-50" y="502" on="0"/>
        <pt x="-54" y="518" on="0"/>
        <pt x="-56" y="550" on="0"/>
        <pt x="-60" y="568" on="0"/>
        <pt x="-60" y="586" on="0"/>
        <pt x="-45" y="599" on="1"/>
        <pt x="41" y="675" on="0"/>
        <pt x="212" y="675" on="1"/>
        <pt x="245" y="675" on="0"/>
        <pt x="278" y="672" on="1"/>
        <pt x="286" y="690" on="1"/>
        <pt x="291" y="683" on="0"/>
        <pt x="299" y="671" on="1"/>
        <pt x="318" y="671" on="1"/>
        <pt x="412" y="671" on="0"/>
        <pt x="524" y="709" on="1"/>
        <pt x="532" y="711" on="0"/>
        <pt x="535" y="711" on="1"/>
        <pt x="551" y="711" on="0"/>
        <pt x="551" y="677" on="0"/>
        <pt x="533" y="659" on="1"/>
        <pt x="444" y="561" on="0"/>
        <pt x="296" y="563" on="1"/>
        <pt x="271" y="466" on="0"/>
        <pt x="253" y="186" on="0"/>
        <pt x="249" y="148" on="0"/>
        <pt x="249" y="120" on="0"/>
        <pt x="267" y="38" on="0"/>
        <pt x="267" y="32" on="1"/>
        <pt x="267" y="3" on="0"/>
        <pt x="237" y="3" on="1"/>
        <pt x="191" y="3" on="0"/>
        <pt x="141" y="105" on="1"/>
        <pt x="131" y="123" on="0"/>
        <pt x="131" y="156" on="0"/>
        <pt x="147" y="156" on="0"/>
        <pt x="170" y="124" on="0"/>
        <pt x="176" y="124" on="0"/>
      </contour>
      <contour>
        <pt x="136" y="-265" on="0"/>
        <pt x="125" y="-252" on="0"/>
        <pt x="125" y="-234" on="0"/>
        <pt x="174" y="-156" on="0"/>
        <pt x="174" y="-132" on="1"/>
        <pt x="162" y="-118" on="0"/>
        <pt x="162" y="-97" on="0"/>
        <pt x="195" y="-80" on="0"/>
        <pt x="229" y="-80" on="0"/>
        <pt x="256" y="-108" on="0"/>
        <pt x="256" y="-128" on="1"/>
        <pt x="256" y="-162" on="0"/>
        <pt x="168" y="-265" on="0"/>
        <pt x="145" y="-265" on="1"/>
      </contour>
    </TTGlyph>
    <TTGlyph name="Thorn" xMin="10" yMin="-19" xMax="446" yMax="792">
      <contour>
        <pt x="177" y="57" on="1"/>
        <pt x="178" y="42" on="1"/>
        <pt x="178" y="9" on="0"/>
        <pt x="147" y="-7" on="1"/>
        <pt x="125" y="-19" on="0"/>
        <pt x="89" y="-19" on="0"/>
        <pt x="69" y="14" on="1"/>
        <pt x="36" y="67" on="0"/>
        <pt x="13" y="165" on="1"/>
        <pt x="10" y="172" on="0"/>
        <pt x="10" y="195" on="0"/>
        <pt x="25" y="195" on="0"/>
        <pt x="88" y="125" on="0"/>
        <pt x="100" y="125" on="0"/>
        <pt x="100" y="143" on="1"/>
        <pt x="100" y="282" on="0"/>
        <pt x="118" y="468" on="1"/>
        <pt x="116" y="466" on="0"/>
        <pt x="112" y="460" on="1"/>
        <pt x="79" y="417" on="0"/>
        <pt x="14" y="417" on="0"/>
        <pt x="14" y="460" on="1"/>
        <pt x="14" y="528" on="0"/>
        <pt x="60" y="553" on="1"/>
        <pt x="87" y="569" on="0"/>
        <pt x="135" y="588" on="1"/>
        <pt x="140" y="620" on="0"/>
        <pt x="160" y="739" on="0"/>
        <pt x="162" y="751" on="1"/>
        <pt x="158" y="767" on="0"/>
        <pt x="158" y="792" on="0"/>
        <pt x="178" y="792" on="0"/>
        <pt x="190" y="778" on="1"/>
        <pt x="207" y="761" on="0"/>
        <pt x="227" y="695" on="0"/>
        <pt x="227" y="655" on="0"/>
        <pt x="223" y="629" on="1"/>
        <pt x="220" y="611" on="1"/>
        <pt x="238" y="613" on="0"/>
        <pt x="246" y="613" on="1"/>
        <pt x="335" y="613" on="0"/>
        <pt x="446" y="505" on="0"/>
        <pt x="446" y="426" on="1"/>
        <pt x="446" y="325" on="0"/>
        <pt x="336" y="177" on="0"/>
        <pt x="235" y="177" on="1"/>
        <pt x="188" y="177" on="0"/>
        <pt x="168" y="196" on="1"/>
        <pt x="168" y="132" on="0"/>
      </contour>
      <contour>
        <pt x="180" y="359" on="1"/>
        <pt x="207" y="391" on="0"/>
        <pt x="264" y="391" on="1"/>
        <pt x="279" y="391" on="0"/>
        <pt x="279" y="382" on="0"/>
        <pt x="252" y="382" on="0"/>
        <pt x="235" y="380" on="0"/>
        <pt x="224" y="377" on="1"/>
        <pt x="201" y="371" on="0"/>
        <pt x="201" y="341" on="1"/>
        <pt x="201" y="293" on="0"/>
        <pt x="238" y="293" on="1"/>
        <pt x="245" y="293" on="0"/>
        <pt x="257" y="295" on="1"/>
        <pt x="325" y="310" on="0"/>
        <pt x="393" y="384" on="0"/>
        <pt x="393" y="450" on="1"/>
        <pt x="393" y="492" on="0"/>
        <pt x="315" y="531" on="0"/>
        <pt x="231" y="531" on="0"/>
        <pt x="204" y="522" on="1"/>
        <pt x="186" y="412" on="0"/>
      </contour>
    </TTGlyph>
    <TTGlyph name="U" xMin="0" yMin="1" xMax="563" yMax="701">
      <contour>
        <pt x="486" y="648" on="1"/>
        <pt x="430" y="477" on="0"/>
        <pt x="430" y="111" on="0"/>
        <pt x="458" y="111" on="1"/>
        <pt x="464" y="111" on="0"/>
        <pt x="469" y="116" on="1"/>
        <pt x="527" y="176" on="0"/>
        <pt x="533" y="252" on="1"/>
        <pt x="533" y="272" on="0"/>
        <pt x="543" y="272" on="0"/>
        <pt x="563" y="239" on="0"/>
        <pt x="563" y="153" on="0"/>
        <pt x="494" y="17" on="0"/>
        <pt x="451" y="17" on="1"/>
        <pt x="427" y="17" on="0"/>
        <pt x="387" y="55" on="0"/>
        <pt x="373" y="116" on="0"/>
        <pt x="362" y="197" on="0"/>
        <pt x="352" y="297" on="0"/>
        <pt x="348" y="324" on="1"/>
        <pt x="341" y="297" on="0"/>
        <pt x="303" y="133" on="0"/>
        <pt x="292" y="93" on="1"/>
        <pt x="265" y="1" on="0"/>
        <pt x="207" y="1" on="1"/>
        <pt x="179" y="1" on="0"/>
        <pt x="137" y="34" on="0"/>
        <pt x="132" y="61" on="1"/>
        <pt x="120" y="117" on="0"/>
        <pt x="120" y="274" on="0"/>
        <pt x="157" y="442" on="0"/>
        <pt x="196" y="565" on="0"/>
        <pt x="196" y="587" on="0"/>
        <pt x="186" y="587" on="0"/>
        <pt x="164" y="563" on="0"/>
        <pt x="135" y="518" on="0"/>
        <pt x="120" y="487" on="0"/>
        <pt x="92" y="423" on="0"/>
        <pt x="86" y="411" on="1"/>
        <pt x="72" y="382" on="0"/>
        <pt x="27" y="382" on="0"/>
        <pt x="0" y="436" on="0"/>
        <pt x="0" y="482" on="0"/>
        <pt x="17" y="501" on="1"/>
        <pt x="81" y="573" on="0"/>
        <pt x="150" y="694" on="1"/>
        <pt x="164" y="683" on="1"/>
        <pt x="187" y="690" on="0"/>
        <pt x="198" y="690" on="0"/>
        <pt x="212" y="685" on="0"/>
        <pt x="248" y="675" on="0"/>
        <pt x="261" y="670" on="0"/>
        <pt x="285" y="657" on="0"/>
        <pt x="289" y="650" on="1"/>
        <pt x="301" y="627" on="0"/>
        <pt x="301" y="573" on="0"/>
        <pt x="289" y="524" on="0"/>
        <pt x="209" y="237" on="0"/>
        <pt x="200" y="159" on="1"/>
        <pt x="200" y="150" on="1"/>
        <pt x="200" y="133" on="0"/>
        <pt x="212" y="133" on="0"/>
        <pt x="218" y="149" on="1"/>
        <pt x="292" y="329" on="0"/>
        <pt x="377" y="589" on="1"/>
        <pt x="383" y="609" on="0"/>
        <pt x="383" y="619" on="1"/>
        <pt x="376" y="649" on="1"/>
        <pt x="376" y="660" on="0"/>
        <pt x="387" y="666" on="1"/>
        <pt x="403" y="677" on="0"/>
        <pt x="460" y="701" on="0"/>
        <pt x="492" y="701" on="0"/>
        <pt x="492" y="668" on="0"/>
      </contour>
    </TTGlyph>
    <TTGlyph name="Uacute" xMin="0" yMin="1" xMax="563" yMax="931">
      <component glyphName="U" x="0" y="0" flags="0x1004"/>
      <component glyphName="acute" x="146" y="240" flags="0x1004"/>
    </TTGlyph>
    <TTGlyph name="Ubreve" xMin="0" yMin="1" xMax="563" yMax="916">
      <component glyphName="U" x="0" y="0" flags="0x1004"/>
      <component glyphName="breve" x="84" y="240" flags="0x1004"/>
    </TTGlyph>
    <TTGlyph name="Ucircumflex" xMin="0" yMin="1" xMax="563" yMax="933">
      <component glyphName="U" x="0" y="0" flags="0x1004"/>
      <component glyphName="circumflex" x="95" y="240" flags="0x1004"/>
    </TTGlyph>
    <TTGlyph name="Udieresis" xMin="0" yMin="1" xMax="563" yMax="888">
      <component glyphName="U" x="0" y="0" flags="0x1004"/>
      <component glyphName="dieresis" x="98" y="240" flags="0x1004"/>
    </TTGlyph>
    <TTGlyph name="Ugrave" xMin="0" yMin="1" xMax="563" yMax="933">
      <component glyphName="U" x="0" y="0" flags="0x1004"/>
      <component glyphName="grave" x="63" y="240" flags="0x1004"/>
    </TTGlyph>
    <TTGlyph name="Uhungarumlaut" xMin="0" yMin="1" xMax="563" yMax="932">
      <component glyphName="U" x="0" y="0" flags="0x1004"/>
      <component glyphName="hungarumlaut" x="124" y="240" flags="0x1004"/>
    </TTGlyph>
    <TTGlyph name="Umacron" xMin="0" yMin="1" xMax="563" yMax="870">
      <component glyphName="U" x="0" y="0" flags="0x1004"/>
      <component glyphName="macron" x="94" y="240" flags="0x1004"/>
    </TTGlyph>
    <TTGlyph name="Uogonek" xMin="0" yMin="-212" xMax="603" yMax="701">
      <contour>
        <pt x="486" y="648" on="1"/>
        <pt x="430" y="472" on="0"/>
        <pt x="430" y="111" on="0"/>
        <pt x="458" y="111" on="1"/>
        <pt x="464" y="111" on="0"/>
        <pt x="469" y="116" on="1"/>
        <pt x="527" y="176" on="0"/>
        <pt x="533" y="252" on="1"/>
        <pt x="533" y="272" on="0"/>
        <pt x="543" y="272" on="0"/>
        <pt x="563" y="239" on="0"/>
        <pt x="563" y="165" on="0"/>
        <pt x="513" y="60" on="0"/>
        <pt x="474" y="23" on="1"/>
        <pt x="458" y="8" on="0"/>
        <pt x="432" y="-64" on="0"/>
        <pt x="432" y="-110" on="0"/>
        <pt x="446" y="-118" on="1"/>
        <pt x="478" y="-118" on="0"/>
        <pt x="569" y="-75" on="0"/>
        <pt x="581" y="-75" on="1"/>
        <pt x="589" y="-75" on="0"/>
        <pt x="603" y="-115" on="0"/>
        <pt x="603" y="-127" on="1"/>
        <pt x="594" y="-165" on="0"/>
        <pt x="520" y="-212" on="0"/>
        <pt x="461" y="-212" on="1"/>
        <pt x="434" y="-212" on="0"/>
        <pt x="363" y="-143" on="0"/>
        <pt x="363" y="-71" on="0"/>
        <pt x="390" y="12" on="0"/>
        <pt x="409" y="34" on="1"/>
        <pt x="387" y="52" on="0"/>
        <pt x="373" y="116" on="0"/>
        <pt x="362" y="197" on="0"/>
        <pt x="352" y="297" on="0"/>
        <pt x="348" y="324" on="1"/>
        <pt x="341" y="297" on="0"/>
        <pt x="303" y="133" on="0"/>
        <pt x="292" y="93" on="1"/>
        <pt x="265" y="1" on="0"/>
        <pt x="207" y="1" on="1"/>
        <pt x="179" y="1" on="0"/>
        <pt x="138" y="34" on="0"/>
        <pt x="132" y="61" on="1"/>
        <pt x="120" y="124" on="0"/>
        <pt x="120" y="274" on="0"/>
        <pt x="157" y="442" on="0"/>
        <pt x="196" y="565" on="0"/>
        <pt x="196" y="587" on="0"/>
        <pt x="184" y="587" on="0"/>
        <pt x="170" y="569" on="0"/>
        <pt x="149" y="540" on="0"/>
        <pt x="136" y="518" on="0"/>
        <pt x="117" y="479" on="0"/>
        <pt x="113" y="471" on="1"/>
        <pt x="98" y="441" on="0"/>
        <pt x="86" y="411" on="1"/>
        <pt x="71" y="382" on="0"/>
        <pt x="27" y="382" on="0"/>
        <pt x="0" y="436" on="0"/>
        <pt x="0" y="482" on="0"/>
        <pt x="17" y="501" on="1"/>
        <pt x="81" y="573" on="0"/>
        <pt x="150" y="694" on="1"/>
        <pt x="164" y="683" on="1"/>
        <pt x="187" y="690" on="0"/>
        <pt x="198" y="690" on="0"/>
        <pt x="212" y="685" on="0"/>
        <pt x="248" y="675" on="0"/>
        <pt x="261" y="670" on="0"/>
        <pt x="285" y="657" on="0"/>
        <pt x="289" y="650" on="1"/>
        <pt x="301" y="627" on="0"/>
        <pt x="301" y="573" on="0"/>
        <pt x="289" y="522" on="0"/>
        <pt x="209" y="239" on="0"/>
        <pt x="200" y="161" on="1"/>
        <pt x="200" y="150" on="1"/>
        <pt x="200" y="133" on="0"/>
        <pt x="206" y="133" on="1"/>
        <pt x="214" y="133" on="0"/>
        <pt x="218" y="149" on="1"/>
        <pt x="222" y="157" on="0"/>
        <pt x="278" y="304" on="1"/>
        <pt x="339" y="474" on="0"/>
        <pt x="377" y="589" on="1"/>
        <pt x="383" y="609" on="0"/>
        <pt x="383" y="619" on="1"/>
        <pt x="376" y="649" on="1"/>
        <pt x="376" y="660" on="0"/>
        <pt x="387" y="666" on="1"/>
        <pt x="403" y="677" on="0"/>
        <pt x="460" y="701" on="0"/>
        <pt x="492" y="701" on="0"/>
        <pt x="492" y="663" on="0"/>
      </contour>
    </TTGlyph>
    <TTGlyph name="Uring" xMin="0" yMin="1" xMax="563" yMax="981">
      <component glyphName="U" x="0" y="0" flags="0x1004"/>
      <component glyphName="ring" x="100" y="240" flags="0x1004"/>
    </TTGlyph>
    <TTGlyph name="Utilde" xMin="0" yMin="1" xMax="563" yMax="887">
      <component glyphName="U" x="0" y="0" flags="0x1004"/>
      <component glyphName="tilde" x="89" y="240" flags="0x1004"/>
    </TTGlyph>
    <TTGlyph name="V" xMin="0" yMin="-10" xMax="469" yMax="746">
      <contour>
        <pt x="239" y="188" on="1"/>
        <pt x="239" y="95" on="0"/>
        <pt x="256" y="95" on="1"/>
        <pt x="263" y="95" on="0"/>
        <pt x="274" y="111" on="1"/>
        <pt x="290" y="138" on="0"/>
        <pt x="311" y="183" on="1"/>
        <pt x="401" y="374" on="0"/>
        <pt x="401" y="578" on="1"/>
        <pt x="401" y="628" on="0"/>
        <pt x="393" y="705" on="0"/>
        <pt x="393" y="709" on="1"/>
        <pt x="393" y="746" on="0"/>
        <pt x="421" y="746" on="1"/>
        <pt x="439" y="746" on="0"/>
        <pt x="448" y="714" on="1"/>
        <pt x="469" y="634" on="0"/>
        <pt x="469" y="534" on="1"/>
        <pt x="469" y="290" on="0"/>
        <pt x="327" y="41" on="1"/>
        <pt x="297" y="-10" on="0"/>
        <pt x="259" y="-10" on="1"/>
        <pt x="237" y="-10" on="0"/>
        <pt x="215" y="10" on="1"/>
        <pt x="152" y="68" on="0"/>
        <pt x="152" y="186" on="1"/>
        <pt x="152" y="374" on="0"/>
        <pt x="238" y="590" on="1"/>
        <pt x="242" y="600" on="0"/>
        <pt x="242" y="606" on="1"/>
        <pt x="242" y="621" on="0"/>
        <pt x="230" y="621" on="1"/>
        <pt x="224" y="621" on="0"/>
        <pt x="202" y="606" on="0"/>
        <pt x="189" y="587" on="0"/>
        <pt x="175" y="561" on="0"/>
        <pt x="171" y="555" on="1"/>
        <pt x="114" y="477" on="0"/>
        <pt x="81" y="458" on="1"/>
        <pt x="66" y="450" on="0"/>
        <pt x="35" y="450" on="0"/>
        <pt x="0" y="486" on="0"/>
        <pt x="0" y="514" on="0"/>
        <pt x="6" y="530" on="1"/>
        <pt x="43" y="611" on="0"/>
        <pt x="175" y="692" on="1"/>
        <pt x="199" y="707" on="0"/>
        <pt x="267" y="707" on="0"/>
        <pt x="321" y="650" on="0"/>
        <pt x="321" y="608" on="1"/>
        <pt x="321" y="584" on="0"/>
        <pt x="311" y="551" on="0"/>
        <pt x="294" y="493" on="0"/>
        <pt x="289" y="475" on="0"/>
        <pt x="274" y="422" on="0"/>
        <pt x="269" y="400" on="0"/>
        <pt x="257" y="352" on="0"/>
        <pt x="252" y="324" on="0"/>
        <pt x="245" y="280" on="0"/>
        <pt x="244" y="264" on="1"/>
        <pt x="239" y="214" on="0"/>
      </contour>
    </TTGlyph>
    <TTGlyph name="W" xMin="0" yMin="10" xMax="586" yMax="733">
      <contour>
        <pt x="505" y="702" on="1"/>
        <pt x="586" y="556" on="0"/>
        <pt x="586" y="222" on="0"/>
        <pt x="494" y="65" on="1"/>
        <pt x="462" y="10" on="0"/>
        <pt x="404" y="10" on="1"/>
        <pt x="341" y="10" on="0"/>
        <pt x="317" y="83" on="1"/>
        <pt x="306" y="116" on="0"/>
        <pt x="293" y="195" on="0"/>
        <pt x="291" y="205" on="1"/>
        <pt x="283" y="189" on="0"/>
        <pt x="242" y="88" on="0"/>
        <pt x="228" y="62" on="1"/>
        <pt x="207" y="20" on="0"/>
        <pt x="168" y="20" on="1"/>
        <pt x="139" y="20" on="0"/>
        <pt x="116" y="42" on="1"/>
        <pt x="97" y="62" on="0"/>
        <pt x="92" y="120" on="1"/>
        <pt x="91" y="139" on="0"/>
        <pt x="88" y="171" on="0"/>
        <pt x="88" y="199" on="0"/>
        <pt x="94" y="239" on="0"/>
        <pt x="101" y="275" on="0"/>
        <pt x="117" y="325" on="0"/>
        <pt x="129" y="360" on="0"/>
        <pt x="152" y="416" on="0"/>
        <pt x="164" y="445" on="0"/>
        <pt x="191" y="503" on="0"/>
        <pt x="196" y="514" on="1"/>
        <pt x="209" y="545" on="0"/>
        <pt x="229" y="585" on="1"/>
        <pt x="164" y="516" on="0"/>
        <pt x="90" y="490" on="1"/>
        <pt x="69" y="483" on="0"/>
        <pt x="26" y="483" on="0"/>
        <pt x="0" y="517" on="0"/>
        <pt x="0" y="579" on="0"/>
        <pt x="77" y="651" on="0"/>
        <pt x="173" y="693" on="0"/>
        <pt x="250" y="693" on="0"/>
        <pt x="317" y="643" on="0"/>
        <pt x="317" y="602" on="1"/>
        <pt x="317" y="587" on="0"/>
        <pt x="294" y="525" on="0"/>
        <pt x="261" y="444" on="1"/>
        <pt x="189" y="265" on="0"/>
        <pt x="165" y="162" on="1"/>
        <pt x="163" y="154" on="0"/>
        <pt x="163" y="139" on="0"/>
        <pt x="170" y="139" on="1"/>
        <pt x="200" y="139" on="0"/>
        <pt x="290" y="410" on="1"/>
        <pt x="283" y="419" on="0"/>
        <pt x="283" y="428" on="1"/>
        <pt x="283" y="441" on="0"/>
        <pt x="307" y="441" on="1"/>
        <pt x="356" y="441" on="0"/>
        <pt x="390" y="437" on="0"/>
        <pt x="390" y="419" on="0"/>
        <pt x="383" y="414" on="1"/>
        <pt x="372" y="297" on="0"/>
        <pt x="372" y="217" on="0"/>
        <pt x="388" y="91" on="0"/>
        <pt x="405" y="91" on="1"/>
        <pt x="420" y="91" on="0"/>
        <pt x="435" y="128" on="1"/>
        <pt x="502" y="275" on="0"/>
        <pt x="502" y="558" on="0"/>
        <pt x="428" y="678" on="1"/>
        <pt x="417" y="694" on="0"/>
        <pt x="417" y="709" on="1"/>
        <pt x="417" y="733" on="0"/>
        <pt x="487" y="733" on="0"/>
      </contour>
      <contour>
        <pt x="165" y="645" on="1"/>
        <pt x="98" y="634" on="0"/>
        <pt x="65" y="601" on="1"/>
        <pt x="54" y="590" on="0"/>
        <pt x="54" y="572" on="0"/>
        <pt x="66" y="572" on="1"/>
        <pt x="99" y="572" on="0"/>
      </contour>
    </TTGlyph>
    <TTGlyph name="Wacute" xMin="0" yMin="10" xMax="586" yMax="963">
      <component glyphName="W" x="0" y="0" flags="0x1004"/>
      <component glyphName="acute" x="172" y="272" flags="0x1004"/>
    </TTGlyph>
    <TTGlyph name="Wcircumflex" xMin="0" yMin="10" xMax="586" yMax="965">
      <component glyphName="W" x="0" y="0" flags="0x1004"/>
      <component glyphName="circumflex" x="141" y="272" flags="0x1004"/>
    </TTGlyph>
    <TTGlyph name="Wdieresis" xMin="0" yMin="10" xMax="586" yMax="920">
      <component glyphName="W" x="0" y="0" flags="0x1004"/>
      <component glyphName="dieresis" x="124" y="272" flags="0x1004"/>
    </TTGlyph>
    <TTGlyph name="Wgrave" xMin="0" yMin="10" xMax="586" yMax="965">
      <component glyphName="W" x="0" y="0" flags="0x1004"/>
      <component glyphName="grave" x="89" y="272" flags="0x1004"/>
    </TTGlyph>
    <TTGlyph name="X" xMin="0" yMin="-10" xMax="473" yMax="722">
      <contour>
        <pt x="456" y="677" on="1"/>
        <pt x="473" y="662" on="0"/>
        <pt x="473" y="619" on="0"/>
        <pt x="437" y="515" on="0"/>
        <pt x="421" y="515" on="1"/>
        <pt x="409" y="515" on="0"/>
        <pt x="403" y="594" on="1"/>
        <pt x="344" y="507" on="0"/>
        <pt x="290" y="393" on="1"/>
        <pt x="290" y="238" on="0"/>
        <pt x="306" y="175" on="1"/>
        <pt x="321" y="119" on="0"/>
        <pt x="351" y="80" on="1"/>
        <pt x="380" y="99" on="0"/>
        <pt x="426" y="179" on="1"/>
        <pt x="437" y="197" on="0"/>
        <pt x="443" y="197" on="1"/>
        <pt x="456" y="197" on="0"/>
        <pt x="456" y="88" on="0"/>
        <pt x="424" y="24" on="1"/>
        <pt x="407" y="-10" on="0"/>
        <pt x="371" y="-10" on="1"/>
        <pt x="362" y="-10" on="0"/>
        <pt x="312" y="3" on="0"/>
        <pt x="263" y="51" on="0"/>
        <pt x="248" y="86" on="1"/>
        <pt x="225" y="142" on="0"/>
        <pt x="215" y="220" on="1"/>
        <pt x="167" y="102" on="0"/>
        <pt x="123" y="1" on="0"/>
        <pt x="102" y="1" on="1"/>
        <pt x="91" y="1" on="0"/>
        <pt x="73" y="11" on="1"/>
        <pt x="43" y="27" on="0"/>
        <pt x="23" y="86" on="0"/>
        <pt x="23" y="130" on="1"/>
        <pt x="23" y="145" on="0"/>
        <pt x="44" y="145" on="0"/>
        <pt x="60" y="130" on="1"/>
        <pt x="75" y="114" on="1"/>
        <pt x="80" y="114" on="0"/>
        <pt x="84" y="127" on="1"/>
        <pt x="181" y="339" on="0"/>
        <pt x="202" y="380" on="1"/>
        <pt x="202" y="452" on="0"/>
        <pt x="196" y="519" on="1"/>
        <pt x="185" y="629" on="0"/>
        <pt x="166" y="629" on="1"/>
        <pt x="160" y="629" on="0"/>
        <pt x="140" y="592" on="0"/>
        <pt x="97" y="498" on="0"/>
        <pt x="68" y="445" on="0"/>
        <pt x="31" y="445" on="0"/>
        <pt x="0" y="483" on="0"/>
        <pt x="0" y="529" on="0"/>
        <pt x="61" y="648" on="0"/>
        <pt x="83" y="673" on="1"/>
        <pt x="86" y="691" on="0"/>
        <pt x="90" y="722" on="1"/>
        <pt x="97" y="718" on="0"/>
        <pt x="103" y="691" on="1"/>
        <pt x="126" y="708" on="0"/>
        <pt x="177" y="708" on="0"/>
        <pt x="202" y="698" on="1"/>
        <pt x="280" y="669" on="0"/>
        <pt x="284" y="592" on="1"/>
        <pt x="286" y="556" on="0"/>
        <pt x="286" y="537" on="1"/>
        <pt x="345" y="638" on="0"/>
        <pt x="387" y="699" on="1"/>
        <pt x="401" y="718" on="0"/>
        <pt x="420" y="718" on="0"/>
        <pt x="436" y="703" on="0"/>
        <pt x="452" y="680" on="0"/>
      </contour>
    </TTGlyph>
    <TTGlyph name="Y" xMin="0" yMin="-144" xMax="587" yMax="753">
      <contour>
        <pt x="522" y="727" on="1"/>
        <pt x="587" y="727" on="0"/>
        <pt x="587" y="705" on="1"/>
        <pt x="587" y="696" on="0"/>
        <pt x="578" y="680" on="1"/>
        <pt x="455" y="465" on="0"/>
        <pt x="423" y="200" on="1"/>
        <pt x="412" y="114" on="0"/>
        <pt x="412" y="80" on="1"/>
        <pt x="412" y="63" on="0"/>
        <pt x="424" y="63" on="1"/>
        <pt x="428" y="63" on="0"/>
        <pt x="434" y="83" on="0"/>
        <pt x="437" y="83" on="1"/>
        <pt x="444" y="83" on="0"/>
        <pt x="469" y="38" on="0"/>
        <pt x="469" y="27" on="1"/>
        <pt x="469" y="-2" on="0"/>
        <pt x="422" y="-105" on="1"/>
        <pt x="405" y="-144" on="0"/>
        <pt x="385" y="-144" on="1"/>
        <pt x="381" y="-144" on="0"/>
        <pt x="373" y="-140" on="1"/>
        <pt x="331" y="-115" on="0"/>
        <pt x="331" y="104" on="0"/>
        <pt x="361" y="290" on="1"/>
        <pt x="353" y="280" on="0"/>
        <pt x="313" y="223" on="0"/>
        <pt x="286" y="190" on="0"/>
        <pt x="265" y="170" on="1"/>
        <pt x="224" y="129" on="0"/>
        <pt x="134" y="129" on="0"/>
        <pt x="104" y="161" on="1"/>
        <pt x="95" y="171" on="0"/>
        <pt x="58" y="248" on="0"/>
        <pt x="58" y="337" on="0"/>
        <pt x="99" y="435" on="0"/>
        <pt x="141" y="510" on="0"/>
        <pt x="156" y="534" on="1"/>
        <pt x="184" y="575" on="0"/>
        <pt x="243" y="661" on="1"/>
        <pt x="249" y="671" on="0"/>
        <pt x="249" y="677" on="1"/>
        <pt x="249" y="691" on="0"/>
        <pt x="202" y="691" on="0"/>
        <pt x="162" y="673" on="0"/>
        <pt x="156" y="665" on="0"/>
        <pt x="154" y="655" on="1"/>
        <pt x="155" y="642" on="1"/>
        <pt x="155" y="619" on="0"/>
        <pt x="120" y="584" on="0"/>
        <pt x="80" y="555" on="0"/>
        <pt x="30" y="555" on="0"/>
        <pt x="11" y="564" on="0"/>
        <pt x="6" y="574" on="1"/>
        <pt x="0" y="588" on="0"/>
        <pt x="0" y="648" on="0"/>
        <pt x="23" y="664" on="1"/>
        <pt x="26" y="666" on="0"/>
        <pt x="76" y="699" on="0"/>
        <pt x="91" y="709" on="0"/>
        <pt x="136" y="734" on="0"/>
        <pt x="149" y="738" on="1"/>
        <pt x="191" y="753" on="0"/>
        <pt x="260" y="753" on="0"/>
        <pt x="322" y="702" on="0"/>
        <pt x="322" y="660" on="1"/>
        <pt x="322" y="633" on="0"/>
        <pt x="287" y="554" on="0"/>
        <pt x="184" y="401" on="0"/>
        <pt x="169" y="376" on="1"/>
        <pt x="130" y="305" on="0"/>
        <pt x="130" y="227" on="0"/>
        <pt x="148" y="227" on="1"/>
        <pt x="165" y="227" on="0"/>
        <pt x="229" y="284" on="0"/>
        <pt x="263" y="322" on="0"/>
        <pt x="310" y="388" on="0"/>
        <pt x="331" y="422" on="0"/>
        <pt x="377" y="498" on="0"/>
        <pt x="390" y="519" on="1"/>
        <pt x="445" y="612" on="0"/>
        <pt x="479" y="676" on="1"/>
        <pt x="477" y="686" on="0"/>
        <pt x="477" y="693" on="1"/>
        <pt x="477" y="727" on="0"/>
      </contour>
    </TTGlyph>
    <TTGlyph name="Yacute" xMin="0" yMin="-144" xMax="587" yMax="962">
      <component glyphName="Y" x="0" y="0" flags="0x1004"/>
      <component glyphName="acute" x="239" y="271" flags="0x1004"/>
    </TTGlyph>
    <TTGlyph name="Ycircumflex" xMin="0" yMin="-144" xMax="587" yMax="964">
      <component glyphName="Y" x="0" y="0" flags="0x1004"/>
      <component glyphName="circumflex" x="188" y="271" flags="0x1004"/>
    </TTGlyph>
    <TTGlyph name="Ydieresis" xMin="0" yMin="-144" xMax="587" yMax="919">
      <component glyphName="Y" x="0" y="0" flags="0x1004"/>
      <component glyphName="dieresis" x="191" y="271" flags="0x1004"/>
    </TTGlyph>
    <TTGlyph name="Ygrave" xMin="0" yMin="-144" xMax="587" yMax="964">
      <component glyphName="Y" x="0" y="0" flags="0x1004"/>
      <component glyphName="grave" x="156" y="271" flags="0x1004"/>
    </TTGlyph>
    <TTGlyph name="Z" xMin="10" yMin="6" xMax="466" yMax="734">
      <contour>
        <pt x="292" y="671" on="1"/>
        <pt x="321" y="672" on="1"/>
        <pt x="426" y="672" on="0"/>
        <pt x="460" y="585" on="1"/>
        <pt x="466" y="568" on="0"/>
        <pt x="466" y="551" on="1"/>
        <pt x="466" y="504" on="0"/>
        <pt x="382" y="417" on="0"/>
        <pt x="225" y="283" on="0"/>
        <pt x="193" y="252" on="1"/>
        <pt x="118" y="180" on="0"/>
        <pt x="118" y="134" on="1"/>
        <pt x="118" y="106" on="0"/>
        <pt x="155" y="106" on="1"/>
        <pt x="229" y="106" on="0"/>
        <pt x="391" y="133" on="1"/>
        <pt x="400" y="134" on="1"/>
        <pt x="413" y="134" on="0"/>
        <pt x="413" y="108" on="0"/>
        <pt x="407" y="92" on="1"/>
        <pt x="381" y="6" on="0"/>
        <pt x="212" y="6" on="1"/>
        <pt x="154" y="6" on="0"/>
        <pt x="80" y="34" on="0"/>
        <pt x="60" y="80" on="1"/>
        <pt x="48" y="106" on="0"/>
        <pt x="48" y="135" on="1"/>
        <pt x="48" y="193" on="0"/>
        <pt x="147" y="311" on="0"/>
        <pt x="331" y="506" on="0"/>
        <pt x="383" y="567" on="0"/>
        <pt x="383" y="575" on="1"/>
        <pt x="383" y="592" on="0"/>
        <pt x="312" y="592" on="1"/>
        <pt x="275" y="592" on="0"/>
        <pt x="205" y="586" on="1"/>
        <pt x="148" y="552" on="0"/>
        <pt x="58" y="552" on="1"/>
        <pt x="33" y="552" on="0"/>
        <pt x="10" y="567" on="0"/>
        <pt x="10" y="623" on="0"/>
        <pt x="25" y="659" on="0"/>
        <pt x="86" y="686" on="0"/>
        <pt x="221" y="734" on="0"/>
        <pt x="249" y="734" on="0"/>
        <pt x="260" y="719" on="0"/>
        <pt x="266" y="702" on="1"/>
        <pt x="273" y="685" on="1"/>
        <pt x="279" y="671" on="0"/>
      </contour>
    </TTGlyph>
    <TTGlyph name="Zacute" xMin="10" yMin="6" xMax="466" yMax="965">
      <component glyphName="Z" x="0" y="0" flags="0x1004"/>
      <component glyphName="acute" x="96" y="274" flags="0x1004"/>
    </TTGlyph>
    <TTGlyph name="Zcaron" xMin="10" yMin="6" xMax="466" yMax="967">
      <component glyphName="Z" x="0" y="0" flags="0x1004"/>
      <component glyphName="caron" x="51" y="274" flags="0x1004"/>
    </TTGlyph>
    <TTGlyph name="Zdotaccent" xMin="10" yMin="6" xMax="466" yMax="925">
      <component glyphName="Z" x="0" y="0" flags="0x1004"/>
      <component glyphName="dotaccent" x="41" y="274" flags="0x1004"/>
    </TTGlyph>
    <TTGlyph name="a" xMin="10" yMin="-16" xMax="423" yMax="428">
      <contour>
        <pt x="237" y="132" on="1"/>
        <pt x="155" y="-15" on="0"/>
        <pt x="112" y="-15" on="1"/>
        <pt x="81" y="-15" on="0"/>
        <pt x="56" y="23" on="1"/>
        <pt x="49" y="33" on="0"/>
        <pt x="33" y="76" on="0"/>
        <pt x="10" y="112" on="0"/>
        <pt x="10" y="173" on="0"/>
        <pt x="22" y="197" on="1"/>
        <pt x="104" y="359" on="0"/>
        <pt x="195" y="419" on="1"/>
        <pt x="207" y="428" on="0"/>
        <pt x="239" y="428" on="0"/>
        <pt x="263" y="410" on="1"/>
        <pt x="277" y="396" on="0"/>
        <pt x="280" y="386" on="1"/>
        <pt x="285" y="364" on="0"/>
        <pt x="285" y="359" on="1"/>
        <pt x="320" y="347" on="0"/>
        <pt x="320" y="315" on="1"/>
        <pt x="320" y="293" on="0"/>
        <pt x="296" y="138" on="0"/>
        <pt x="294" y="100" on="1"/>
        <pt x="294" y="79" on="0"/>
        <pt x="308" y="79" on="1"/>
        <pt x="324" y="79" on="0"/>
        <pt x="407" y="191" on="0"/>
        <pt x="413" y="191" on="1"/>
        <pt x="423" y="191" on="0"/>
        <pt x="423" y="158" on="1"/>
        <pt x="421" y="109" on="1"/>
        <pt x="421" y="81" on="0"/>
        <pt x="371" y="-16" on="0"/>
        <pt x="332" y="-16" on="1"/>
        <pt x="308" y="-16" on="0"/>
        <pt x="294" y="0" on="1"/>
        <pt x="289" y="5" on="0"/>
        <pt x="279" y="20" on="1"/>
        <pt x="248" y="65" on="0"/>
      </contour>
      <contour>
        <pt x="246" y="363" on="1"/>
        <pt x="120" y="248" on="0"/>
        <pt x="86" y="100" on="1"/>
        <pt x="187" y="187" on="0"/>
      </contour>
    </TTGlyph>
    <TTGlyph name="aacute" xMin="10" yMin="-16" xMax="423" yMax="662">
      <contour>
        <pt x="237" y="132" on="1"/>
        <pt x="155" y="-15" on="0"/>
        <pt x="112" y="-15" on="1"/>
        <pt x="81" y="-15" on="0"/>
        <pt x="56" y="23" on="1"/>
        <pt x="49" y="33" on="0"/>
        <pt x="33" y="76" on="0"/>
        <pt x="10" y="112" on="0"/>
        <pt x="10" y="173" on="0"/>
        <pt x="22" y="197" on="1"/>
        <pt x="104" y="359" on="0"/>
        <pt x="195" y="419" on="1"/>
        <pt x="207" y="428" on="0"/>
        <pt x="239" y="428" on="0"/>
        <pt x="263" y="410" on="1"/>
        <pt x="277" y="396" on="0"/>
        <pt x="280" y="386" on="1"/>
        <pt x="285" y="364" on="0"/>
        <pt x="285" y="359" on="1"/>
        <pt x="320" y="347" on="0"/>
        <pt x="320" y="315" on="1"/>
        <pt x="320" y="293" on="0"/>
        <pt x="296" y="138" on="0"/>
        <pt x="294" y="100" on="1"/>
        <pt x="294" y="79" on="0"/>
        <pt x="308" y="79" on="1"/>
        <pt x="324" y="79" on="0"/>
        <pt x="407" y="191" on="0"/>
        <pt x="413" y="191" on="1"/>
        <pt x="423" y="191" on="0"/>
        <pt x="423" y="158" on="1"/>
        <pt x="421" y="109" on="1"/>
        <pt x="421" y="81" on="0"/>
        <pt x="371" y="-16" on="0"/>
        <pt x="332" y="-16" on="1"/>
        <pt x="308" y="-16" on="0"/>
        <pt x="294" y="0" on="1"/>
        <pt x="289" y="5" on="0"/>
        <pt x="279" y="20" on="1"/>
        <pt x="248" y="65" on="0"/>
      </contour>
      <contour>
        <pt x="246" y="363" on="1"/>
        <pt x="120" y="248" on="0"/>
        <pt x="86" y="100" on="1"/>
        <pt x="187" y="187" on="0"/>
      </contour>
      <contour>
        <pt x="211" y="483" on="1"/>
        <pt x="211" y="538" on="0"/>
        <pt x="293" y="618" on="1"/>
        <pt x="307" y="631" on="0"/>
        <pt x="318" y="644" on="0"/>
        <pt x="318" y="662" on="0"/>
        <pt x="324" y="662" on="1"/>
        <pt x="348" y="662" on="0"/>
        <pt x="375" y="606" on="0"/>
        <pt x="375" y="592" on="1"/>
        <pt x="375" y="564" on="0"/>
        <pt x="353" y="546" on="1"/>
        <pt x="343" y="533" on="0"/>
        <pt x="245" y="466" on="0"/>
        <pt x="220" y="466" on="0"/>
        <pt x="211" y="478" on="0"/>
      </contour>
    </TTGlyph>
    <TTGlyph name="abreve" xMin="10" yMin="-16" xMax="423" yMax="647">
      <contour>
        <pt x="237" y="132" on="1"/>
        <pt x="155" y="-15" on="0"/>
        <pt x="112" y="-15" on="1"/>
        <pt x="81" y="-15" on="0"/>
        <pt x="56" y="23" on="1"/>
        <pt x="49" y="33" on="0"/>
        <pt x="33" y="76" on="0"/>
        <pt x="10" y="112" on="0"/>
        <pt x="10" y="173" on="0"/>
        <pt x="22" y="197" on="1"/>
        <pt x="104" y="359" on="0"/>
        <pt x="195" y="419" on="1"/>
        <pt x="207" y="428" on="0"/>
        <pt x="239" y="428" on="0"/>
        <pt x="263" y="410" on="1"/>
        <pt x="277" y="396" on="0"/>
        <pt x="280" y="386" on="1"/>
        <pt x="285" y="364" on="0"/>
        <pt x="285" y="359" on="1"/>
        <pt x="320" y="347" on="0"/>
        <pt x="320" y="315" on="1"/>
        <pt x="320" y="293" on="0"/>
        <pt x="296" y="138" on="0"/>
        <pt x="294" y="100" on="1"/>
        <pt x="294" y="79" on="0"/>
        <pt x="308" y="79" on="1"/>
        <pt x="324" y="79" on="0"/>
        <pt x="407" y="191" on="0"/>
        <pt x="413" y="191" on="1"/>
        <pt x="423" y="191" on="0"/>
        <pt x="423" y="158" on="1"/>
        <pt x="421" y="109" on="1"/>
        <pt x="421" y="81" on="0"/>
        <pt x="371" y="-16" on="0"/>
        <pt x="332" y="-16" on="1"/>
        <pt x="308" y="-16" on="0"/>
        <pt x="294" y="0" on="1"/>
        <pt x="289" y="5" on="0"/>
        <pt x="279" y="20" on="1"/>
        <pt x="248" y="65" on="0"/>
      </contour>
      <contour>
        <pt x="246" y="363" on="1"/>
        <pt x="120" y="248" on="0"/>
        <pt x="86" y="100" on="1"/>
        <pt x="187" y="187" on="0"/>
      </contour>
      <contour>
        <pt x="83" y="644" on="1"/>
        <pt x="102" y="644" on="0"/>
        <pt x="139" y="600" on="0"/>
        <pt x="183" y="555" on="0"/>
        <pt x="237" y="555" on="0"/>
        <pt x="276" y="584" on="0"/>
        <pt x="285" y="601" on="1"/>
        <pt x="309" y="647" on="0"/>
        <pt x="335" y="647" on="1"/>
        <pt x="344" y="647" on="0"/>
        <pt x="371" y="618" on="0"/>
        <pt x="371" y="611" on="1"/>
        <pt x="371" y="579" on="0"/>
        <pt x="299" y="476" on="0"/>
        <pt x="178" y="476" on="0"/>
        <pt x="70" y="590" on="0"/>
        <pt x="70" y="626" on="1"/>
        <pt x="70" y="644" on="0"/>
      </contour>
    </TTGlyph>
    <TTGlyph name="acircumflex" xMin="10" yMin="-16" xMax="423" yMax="664">
      <contour>
        <pt x="237" y="132" on="1"/>
        <pt x="155" y="-15" on="0"/>
        <pt x="112" y="-15" on="1"/>
        <pt x="81" y="-15" on="0"/>
        <pt x="56" y="23" on="1"/>
        <pt x="49" y="33" on="0"/>
        <pt x="33" y="76" on="0"/>
        <pt x="10" y="112" on="0"/>
        <pt x="10" y="173" on="0"/>
        <pt x="22" y="197" on="1"/>
        <pt x="104" y="359" on="0"/>
        <pt x="195" y="419" on="1"/>
        <pt x="207" y="428" on="0"/>
        <pt x="239" y="428" on="0"/>
        <pt x="263" y="410" on="1"/>
        <pt x="277" y="396" on="0"/>
        <pt x="280" y="386" on="1"/>
        <pt x="285" y="364" on="0"/>
        <pt x="285" y="359" on="1"/>
        <pt x="320" y="347" on="0"/>
        <pt x="320" y="315" on="1"/>
        <pt x="320" y="293" on="0"/>
        <pt x="296" y="138" on="0"/>
        <pt x="294" y="100" on="1"/>
        <pt x="294" y="79" on="0"/>
        <pt x="308" y="79" on="1"/>
        <pt x="324" y="79" on="0"/>
        <pt x="407" y="191" on="0"/>
        <pt x="413" y="191" on="1"/>
        <pt x="423" y="191" on="0"/>
        <pt x="423" y="158" on="1"/>
        <pt x="421" y="109" on="1"/>
        <pt x="421" y="81" on="0"/>
        <pt x="371" y="-16" on="0"/>
        <pt x="332" y="-16" on="1"/>
        <pt x="308" y="-16" on="0"/>
        <pt x="294" y="0" on="1"/>
        <pt x="289" y="5" on="0"/>
        <pt x="279" y="20" on="1"/>
        <pt x="248" y="65" on="0"/>
      </contour>
      <contour>
        <pt x="246" y="363" on="1"/>
        <pt x="120" y="248" on="0"/>
        <pt x="86" y="100" on="1"/>
        <pt x="187" y="187" on="0"/>
      </contour>
      <contour>
        <pt x="372" y="478" on="1"/>
        <pt x="372" y="466" on="0"/>
        <pt x="343" y="466" on="0"/>
        <pt x="313" y="478" on="0"/>
        <pt x="282" y="513" on="0"/>
        <pt x="271" y="526" on="0"/>
        <pt x="237" y="583" on="0"/>
        <pt x="236" y="584" on="1"/>
        <pt x="215" y="552" on="0"/>
        <pt x="132" y="473" on="0"/>
        <pt x="109" y="473" on="1"/>
        <pt x="91" y="473" on="0"/>
        <pt x="91" y="519" on="0"/>
        <pt x="136" y="568" on="1"/>
        <pt x="158" y="592" on="0"/>
        <pt x="191" y="642" on="0"/>
        <pt x="211" y="664" on="0"/>
        <pt x="251" y="664" on="0"/>
        <pt x="291" y="625" on="0"/>
        <pt x="320" y="563" on="0"/>
        <pt x="323" y="558" on="0"/>
        <pt x="345" y="529" on="0"/>
        <pt x="352" y="520" on="1"/>
        <pt x="372" y="492" on="0"/>
      </contour>
    </TTGlyph>
    <TTGlyph name="acute" xMin="158" yMin="495" xMax="322" yMax="691">
      <contour>
        <pt x="158" y="512" on="1"/>
        <pt x="158" y="567" on="0"/>
        <pt x="240" y="646" on="1"/>
        <pt x="254" y="660" on="0"/>
        <pt x="265" y="673" on="0"/>
        <pt x="265" y="691" on="0"/>
        <pt x="271" y="691" on="1"/>
        <pt x="295" y="691" on="0"/>
        <pt x="322" y="635" on="0"/>
        <pt x="322" y="621" on="1"/>
        <pt x="322" y="593" on="0"/>
        <pt x="300" y="575" on="1"/>
        <pt x="290" y="562" on="0"/>
        <pt x="192" y="495" on="0"/>
        <pt x="167" y="495" on="0"/>
        <pt x="158" y="507" on="0"/>
      </contour>
    </TTGlyph>
    <TTGlyph name="adieresis" xMin="10" yMin="-16" xMax="423" yMax="619">
      <contour>
        <pt x="237" y="132" on="1"/>
        <pt x="155" y="-15" on="0"/>
        <pt x="112" y="-15" on="1"/>
        <pt x="81" y="-15" on="0"/>
        <pt x="56" y="23" on="1"/>
        <pt x="49" y="33" on="0"/>
        <pt x="33" y="76" on="0"/>
        <pt x="10" y="112" on="0"/>
        <pt x="10" y="173" on="0"/>
        <pt x="22" y="197" on="1"/>
        <pt x="104" y="359" on="0"/>
        <pt x="195" y="419" on="1"/>
        <pt x="207" y="428" on="0"/>
        <pt x="239" y="428" on="0"/>
        <pt x="263" y="410" on="1"/>
        <pt x="277" y="396" on="0"/>
        <pt x="280" y="386" on="1"/>
        <pt x="285" y="364" on="0"/>
        <pt x="285" y="359" on="1"/>
        <pt x="320" y="347" on="0"/>
        <pt x="320" y="315" on="1"/>
        <pt x="320" y="293" on="0"/>
        <pt x="296" y="138" on="0"/>
        <pt x="294" y="100" on="1"/>
        <pt x="294" y="79" on="0"/>
        <pt x="308" y="79" on="1"/>
        <pt x="324" y="79" on="0"/>
        <pt x="407" y="191" on="0"/>
        <pt x="413" y="191" on="1"/>
        <pt x="423" y="191" on="0"/>
        <pt x="423" y="158" on="1"/>
        <pt x="421" y="109" on="1"/>
        <pt x="421" y="81" on="0"/>
        <pt x="371" y="-16" on="0"/>
        <pt x="332" y="-16" on="1"/>
        <pt x="308" y="-16" on="0"/>
        <pt x="294" y="0" on="1"/>
        <pt x="289" y="5" on="0"/>
        <pt x="279" y="20" on="1"/>
        <pt x="248" y="65" on="0"/>
      </contour>
      <contour>
        <pt x="246" y="363" on="1"/>
        <pt x="120" y="248" on="0"/>
        <pt x="86" y="100" on="1"/>
        <pt x="187" y="187" on="0"/>
      </contour>
      <contour>
        <pt x="361" y="578" on="1"/>
        <pt x="364" y="567" on="0"/>
        <pt x="364" y="533" on="0"/>
        <pt x="332" y="496" on="0"/>
        <pt x="283" y="496" on="0"/>
        <pt x="253" y="527" on="0"/>
        <pt x="253" y="573" on="0"/>
        <pt x="281" y="616" on="0"/>
        <pt x="349" y="616" on="0"/>
      </contour>
      <contour>
        <pt x="152" y="619" on="1"/>
        <pt x="170" y="619" on="0"/>
        <pt x="203" y="584" on="0"/>
        <pt x="203" y="533" on="0"/>
        <pt x="176" y="496" on="0"/>
        <pt x="133" y="496" on="0"/>
        <pt x="105" y="535" on="0"/>
        <pt x="105" y="563" on="1"/>
        <pt x="105" y="619" on="0"/>
      </contour>
    </TTGlyph>
    <TTGlyph name="ae" xMin="10" yMin="-20" xMax="504" yMax="432">
      <contour>
        <pt x="504" y="132" on="1"/>
        <pt x="504" y="-20" on="0"/>
        <pt x="350" y="-20" on="1"/>
        <pt x="292" y="-20" on="0"/>
        <pt x="232" y="35" on="0"/>
        <pt x="213" y="90" on="1"/>
        <pt x="151" y="-15" on="0"/>
        <pt x="112" y="-15" on="1"/>
        <pt x="81" y="-15" on="0"/>
        <pt x="56" y="23" on="1"/>
        <pt x="49" y="33" on="0"/>
        <pt x="33" y="76" on="0"/>
        <pt x="10" y="112" on="0"/>
        <pt x="10" y="173" on="0"/>
        <pt x="22" y="197" on="1"/>
        <pt x="104" y="359" on="0"/>
        <pt x="195" y="419" on="1"/>
        <pt x="207" y="428" on="0"/>
        <pt x="239" y="428" on="0"/>
        <pt x="263" y="410" on="1"/>
        <pt x="277" y="396" on="0"/>
        <pt x="280" y="386" on="1"/>
        <pt x="285" y="364" on="0"/>
        <pt x="285" y="359" on="1"/>
        <pt x="291" y="390" on="0"/>
        <pt x="307" y="390" on="1"/>
        <pt x="318" y="390" on="0"/>
        <pt x="322" y="377" on="1"/>
        <pt x="343" y="396" on="0"/>
        <pt x="403" y="432" on="0"/>
        <pt x="451" y="432" on="0"/>
        <pt x="502" y="376" on="0"/>
        <pt x="502" y="317" on="0"/>
        <pt x="460" y="266" on="1"/>
        <pt x="384" y="170" on="0"/>
        <pt x="340" y="170" on="1"/>
        <pt x="308" y="170" on="0"/>
        <pt x="290" y="223" on="1"/>
        <pt x="289" y="221" on="0"/>
        <pt x="272" y="192" on="0"/>
        <pt x="265" y="178" on="0"/>
        <pt x="260" y="166" on="1"/>
        <pt x="249" y="143" on="0"/>
        <pt x="249" y="125" on="1"/>
        <pt x="249" y="84" on="0"/>
        <pt x="290" y="84" on="1"/>
        <pt x="358" y="84" on="0"/>
        <pt x="453" y="141" on="0"/>
        <pt x="500" y="199" on="1"/>
        <pt x="504" y="155" on="0"/>
      </contour>
      <contour>
        <pt x="246" y="363" on="1"/>
        <pt x="120" y="248" on="0"/>
        <pt x="86" y="100" on="1"/>
        <pt x="187" y="187" on="0"/>
      </contour>
      <contour>
        <pt x="357" y="253" on="0"/>
        <pt x="420" y="331" on="0"/>
        <pt x="420" y="360" on="0"/>
        <pt x="399" y="360" on="0"/>
        <pt x="348" y="308" on="0"/>
        <pt x="333" y="289" on="1"/>
        <pt x="331" y="277" on="0"/>
        <pt x="331" y="271" on="1"/>
        <pt x="331" y="253" on="0"/>
        <pt x="341" y="253" on="1"/>
      </contour>
    </TTGlyph>
    <TTGlyph name="aeacute" xMin="10" yMin="-20" xMax="504" yMax="666">
      <contour>
        <pt x="504" y="132" on="1"/>
        <pt x="504" y="-20" on="0"/>
        <pt x="350" y="-20" on="1"/>
        <pt x="292" y="-20" on="0"/>
        <pt x="232" y="35" on="0"/>
        <pt x="213" y="90" on="1"/>
        <pt x="151" y="-15" on="0"/>
        <pt x="112" y="-15" on="1"/>
        <pt x="81" y="-15" on="0"/>
        <pt x="56" y="23" on="1"/>
        <pt x="49" y="33" on="0"/>
        <pt x="33" y="76" on="0"/>
        <pt x="10" y="112" on="0"/>
        <pt x="10" y="173" on="0"/>
        <pt x="22" y="197" on="1"/>
        <pt x="104" y="359" on="0"/>
        <pt x="195" y="419" on="1"/>
        <pt x="207" y="428" on="0"/>
        <pt x="239" y="428" on="0"/>
        <pt x="263" y="410" on="1"/>
        <pt x="277" y="396" on="0"/>
        <pt x="280" y="386" on="1"/>
        <pt x="285" y="364" on="0"/>
        <pt x="285" y="359" on="1"/>
        <pt x="291" y="390" on="0"/>
        <pt x="307" y="390" on="1"/>
        <pt x="318" y="390" on="0"/>
        <pt x="322" y="377" on="1"/>
        <pt x="343" y="396" on="0"/>
        <pt x="403" y="432" on="0"/>
        <pt x="451" y="432" on="0"/>
        <pt x="502" y="376" on="0"/>
        <pt x="502" y="317" on="0"/>
        <pt x="460" y="266" on="1"/>
        <pt x="384" y="170" on="0"/>
        <pt x="340" y="170" on="1"/>
        <pt x="308" y="170" on="0"/>
        <pt x="290" y="223" on="1"/>
        <pt x="289" y="221" on="0"/>
        <pt x="272" y="192" on="0"/>
        <pt x="265" y="178" on="0"/>
        <pt x="260" y="166" on="1"/>
        <pt x="249" y="143" on="0"/>
        <pt x="249" y="125" on="1"/>
        <pt x="249" y="84" on="0"/>
        <pt x="290" y="84" on="1"/>
        <pt x="358" y="84" on="0"/>
        <pt x="453" y="141" on="0"/>
        <pt x="500" y="199" on="1"/>
        <pt x="504" y="155" on="0"/>
      </contour>
      <contour>
        <pt x="246" y="363" on="1"/>
        <pt x="120" y="248" on="0"/>
        <pt x="86" y="100" on="1"/>
        <pt x="187" y="187" on="0"/>
      </contour>
      <contour>
        <pt x="357" y="253" on="0"/>
        <pt x="420" y="331" on="0"/>
        <pt x="420" y="360" on="0"/>
        <pt x="399" y="360" on="0"/>
        <pt x="348" y="308" on="0"/>
        <pt x="333" y="289" on="1"/>
        <pt x="331" y="277" on="0"/>
        <pt x="331" y="271" on="1"/>
        <pt x="331" y="253" on="0"/>
        <pt x="341" y="253" on="1"/>
      </contour>
      <contour>
        <pt x="305" y="487" on="1"/>
        <pt x="305" y="542" on="0"/>
        <pt x="387" y="622" on="1"/>
        <pt x="401" y="635" on="0"/>
        <pt x="412" y="648" on="0"/>
        <pt x="412" y="666" on="0"/>
        <pt x="418" y="666" on="1"/>
        <pt x="442" y="666" on="0"/>
        <pt x="469" y="610" on="0"/>
        <pt x="469" y="596" on="1"/>
        <pt x="469" y="568" on="0"/>
        <pt x="447" y="550" on="1"/>
        <pt x="437" y="537" on="0"/>
        <pt x="339" y="470" on="0"/>
        <pt x="314" y="470" on="0"/>
        <pt x="305" y="482" on="0"/>
      </contour>
    </TTGlyph>
    <TTGlyph name="agrave" xMin="10" yMin="-16" xMax="423" yMax="664">
      <contour>
        <pt x="237" y="132" on="1"/>
        <pt x="155" y="-15" on="0"/>
        <pt x="112" y="-15" on="1"/>
        <pt x="81" y="-15" on="0"/>
        <pt x="56" y="23" on="1"/>
        <pt x="49" y="33" on="0"/>
        <pt x="33" y="76" on="0"/>
        <pt x="10" y="112" on="0"/>
        <pt x="10" y="173" on="0"/>
        <pt x="22" y="197" on="1"/>
        <pt x="104" y="359" on="0"/>
        <pt x="195" y="419" on="1"/>
        <pt x="207" y="428" on="0"/>
        <pt x="239" y="428" on="0"/>
        <pt x="263" y="410" on="1"/>
        <pt x="277" y="396" on="0"/>
        <pt x="280" y="386" on="1"/>
        <pt x="285" y="364" on="0"/>
        <pt x="285" y="359" on="1"/>
        <pt x="320" y="347" on="0"/>
        <pt x="320" y="315" on="1"/>
        <pt x="320" y="293" on="0"/>
        <pt x="296" y="138" on="0"/>
        <pt x="294" y="100" on="1"/>
        <pt x="294" y="79" on="0"/>
        <pt x="308" y="79" on="1"/>
        <pt x="324" y="79" on="0"/>
        <pt x="407" y="191" on="0"/>
        <pt x="413" y="191" on="1"/>
        <pt x="423" y="191" on="0"/>
        <pt x="423" y="158" on="1"/>
        <pt x="421" y="109" on="1"/>
        <pt x="421" y="81" on="0"/>
        <pt x="371" y="-16" on="0"/>
        <pt x="332" y="-16" on="1"/>
        <pt x="308" y="-16" on="0"/>
        <pt x="294" y="0" on="1"/>
        <pt x="289" y="5" on="0"/>
        <pt x="279" y="20" on="1"/>
        <pt x="248" y="65" on="0"/>
      </contour>
      <contour>
        <pt x="246" y="363" on="1"/>
        <pt x="120" y="248" on="0"/>
        <pt x="86" y="100" on="1"/>
        <pt x="187" y="187" on="0"/>
      </contour>
      <contour>
        <pt x="184" y="497" on="0"/>
        <pt x="168" y="521" on="0"/>
        <pt x="144" y="552" on="0"/>
        <pt x="94" y="600" on="0"/>
        <pt x="70" y="623" on="0"/>
        <pt x="70" y="630" on="1"/>
        <pt x="70" y="640" on="0"/>
        <pt x="112" y="664" on="0"/>
        <pt x="138" y="664" on="0"/>
        <pt x="146" y="662" on="0"/>
        <pt x="155" y="655" on="0"/>
        <pt x="161" y="649" on="0"/>
        <pt x="171" y="633" on="0"/>
        <pt x="180" y="619" on="0"/>
        <pt x="197" y="591" on="0"/>
        <pt x="205" y="578" on="0"/>
        <pt x="224" y="550" on="1"/>
        <pt x="262" y="492" on="0"/>
        <pt x="262" y="466" on="0"/>
        <pt x="238" y="466" on="0"/>
        <pt x="218" y="471" on="0"/>
        <pt x="205" y="476" on="0"/>
        <pt x="198" y="484" on="1"/>
        <pt x="187" y="494" on="1"/>
      </contour>
    </TTGlyph>
    <TTGlyph name="amacron" xMin="10" yMin="-16" xMax="423" yMax="601">
      <contour>
        <pt x="237" y="132" on="1"/>
        <pt x="155" y="-15" on="0"/>
        <pt x="112" y="-15" on="1"/>
        <pt x="81" y="-15" on="0"/>
        <pt x="56" y="23" on="1"/>
        <pt x="49" y="33" on="0"/>
        <pt x="33" y="76" on="0"/>
        <pt x="10" y="112" on="0"/>
        <pt x="10" y="173" on="0"/>
        <pt x="22" y="197" on="1"/>
        <pt x="104" y="359" on="0"/>
        <pt x="195" y="419" on="1"/>
        <pt x="207" y="428" on="0"/>
        <pt x="239" y="428" on="0"/>
        <pt x="263" y="410" on="1"/>
        <pt x="277" y="396" on="0"/>
        <pt x="280" y="386" on="1"/>
        <pt x="285" y="364" on="0"/>
        <pt x="285" y="359" on="1"/>
        <pt x="320" y="347" on="0"/>
        <pt x="320" y="315" on="1"/>
        <pt x="320" y="293" on="0"/>
        <pt x="296" y="138" on="0"/>
        <pt x="294" y="100" on="1"/>
        <pt x="294" y="79" on="0"/>
        <pt x="308" y="79" on="1"/>
        <pt x="324" y="79" on="0"/>
        <pt x="407" y="191" on="0"/>
        <pt x="413" y="191" on="1"/>
        <pt x="423" y="191" on="0"/>
        <pt x="423" y="158" on="1"/>
        <pt x="421" y="109" on="1"/>
        <pt x="421" y="81" on="0"/>
        <pt x="371" y="-16" on="0"/>
        <pt x="332" y="-16" on="1"/>
        <pt x="308" y="-16" on="0"/>
        <pt x="294" y="0" on="1"/>
        <pt x="289" y="5" on="0"/>
        <pt x="279" y="20" on="1"/>
        <pt x="248" y="65" on="0"/>
      </contour>
      <contour>
        <pt x="246" y="363" on="1"/>
        <pt x="120" y="248" on="0"/>
        <pt x="86" y="100" on="1"/>
        <pt x="187" y="187" on="0"/>
      </contour>
      <contour>
        <pt x="127" y="592" on="1"/>
        <pt x="232" y="587" on="1"/>
        <pt x="275" y="587" on="0"/>
        <pt x="326" y="601" on="0"/>
        <pt x="332" y="601" on="1"/>
        <pt x="342" y="601" on="0"/>
        <pt x="355" y="563" on="0"/>
        <pt x="355" y="537" on="0"/>
        <pt x="338" y="518" on="0"/>
        <pt x="320" y="515" on="1"/>
        <pt x="295" y="511" on="0"/>
        <pt x="261" y="511" on="1"/>
        <pt x="129" y="506" on="1"/>
        <pt x="117" y="506" on="0"/>
        <pt x="106" y="556" on="1"/>
        <pt x="106" y="564" on="1"/>
        <pt x="106" y="580" on="0"/>
        <pt x="116" y="592" on="0"/>
      </contour>
    </TTGlyph>
    <TTGlyph name="ampersand" xMin="20" yMin="-21" xMax="525" yMax="726">
      <contour>
        <pt x="330" y="273" on="1"/>
        <pt x="293" y="263" on="1"/>
        <pt x="290" y="263" on="0"/>
        <pt x="290" y="266" on="0"/>
        <pt x="294" y="274" on="1"/>
        <pt x="311" y="308" on="0"/>
        <pt x="393" y="369" on="0"/>
        <pt x="414" y="369" on="1"/>
        <pt x="424" y="369" on="0"/>
        <pt x="446" y="335" on="0"/>
        <pt x="448" y="324" on="1"/>
        <pt x="448" y="300" on="0"/>
        <pt x="371" y="164" on="0"/>
        <pt x="329" y="111" on="1"/>
        <pt x="383" y="51" on="0"/>
        <pt x="404" y="51" on="1"/>
        <pt x="415" y="51" on="0"/>
        <pt x="502" y="108" on="0"/>
        <pt x="525" y="108" on="0"/>
        <pt x="525" y="78" on="0"/>
        <pt x="517" y="62" on="1"/>
        <pt x="485" y="-18" on="0"/>
        <pt x="400" y="-18" on="1"/>
        <pt x="349" y="-18" on="0"/>
        <pt x="290" y="66" on="1"/>
        <pt x="213" y="-21" on="0"/>
        <pt x="127" y="-21" on="1"/>
        <pt x="100" y="-21" on="0"/>
        <pt x="56" y="23" on="0"/>
        <pt x="44" y="54" on="1"/>
        <pt x="20" y="116" on="0"/>
        <pt x="20" y="159" on="1"/>
        <pt x="20" y="233" on="0"/>
        <pt x="90" y="339" on="0"/>
        <pt x="162" y="398" on="1"/>
        <pt x="145" y="451" on="0"/>
        <pt x="145" y="494" on="1"/>
        <pt x="145" y="578" on="0"/>
        <pt x="251" y="693" on="0"/>
        <pt x="337" y="721" on="1"/>
        <pt x="357" y="726" on="0"/>
        <pt x="388" y="726" on="0"/>
        <pt x="436" y="678" on="0"/>
        <pt x="440" y="656" on="1"/>
        <pt x="440" y="571" on="0"/>
        <pt x="313" y="377" on="0"/>
        <pt x="234" y="312" on="1"/>
        <pt x="237" y="295" on="0"/>
        <pt x="264" y="227" on="0"/>
        <pt x="275" y="211" on="1"/>
        <pt x="283" y="220" on="0"/>
        <pt x="296" y="236" on="1"/>
        <pt x="326" y="271" on="0"/>
      </contour>
      <contour>
        <pt x="110" y="78" on="0"/>
        <pt x="120" y="67" on="0"/>
        <pt x="137" y="67" on="0"/>
        <pt x="151" y="74" on="0"/>
        <pt x="167" y="88" on="0"/>
        <pt x="180" y="102" on="0"/>
        <pt x="199" y="126" on="0"/>
        <pt x="204" y="133" on="1"/>
        <pt x="219" y="154" on="0"/>
        <pt x="231" y="170" on="1"/>
        <pt x="206" y="205" on="0"/>
        <pt x="185" y="278" on="1"/>
        <pt x="184" y="276" on="0"/>
        <pt x="164" y="250" on="0"/>
        <pt x="158" y="240" on="0"/>
        <pt x="141" y="213" on="0"/>
        <pt x="133" y="196" on="0"/>
        <pt x="120" y="167" on="0"/>
        <pt x="115" y="143" on="0"/>
        <pt x="110" y="110" on="0"/>
      </contour>
      <contour>
        <pt x="373" y="588" on="1"/>
        <pt x="379" y="613" on="1"/>
        <pt x="378" y="619" on="0"/>
        <pt x="364" y="619" on="0"/>
        <pt x="356" y="615" on="1"/>
        <pt x="302" y="591" on="0"/>
        <pt x="218" y="492" on="0"/>
        <pt x="218" y="452" on="1"/>
        <pt x="219" y="434" on="1"/>
        <pt x="327" y="510" on="0"/>
        <pt x="374" y="587" on="1"/>
        <pt x="373" y="587" on="0"/>
      </contour>
    </TTGlyph>
</ttFont>
